<?xml version="1.0" encoding="utf-8"?>
<!-- Generator: Adobe Illustrator 15.1.0, SVG Export Plug-In . SVG Version: 6.00 Build 0)  -->
<!DOCTYPE svg PUBLIC "-//W3C//DTD SVG 1.1//EN" "http://www.w3.org/Graphics/SVG/1.1/DTD/svg11.dtd">
<svg version="1.1" xmlns="http://www.w3.org/2000/svg" xmlns:xlink="http://www.w3.org/1999/xlink" x="0px" y="0px" width="300px"
	 height="273px" viewBox="0 0 300 273" enable-background="new 0 0 300 273" xml:space="preserve">
<g id="Ebene_2" display="none">
	<rect x="-9.5" y="-11" display="inline" fill="#FF0000" stroke="#000000" stroke-miterlimit="10" width="338" height="289"/>
</g>
<g id="Ebene_1">
	<polygon fill="#040506" points="77.578,129.838 77.578,123.243 71.428,117.773 72.362,116.721 78.985,122.609 78.985,129.838 	"/>
	<rect x="77.578" y="135.64" fill="#040506" width="1.406" height="1.406"/>
	<g>
		<g>
			<defs>
				<rect id="SVGID_1_" x="26.942" y="97.802" width="59.347" height="105.925"/>
			</defs>
			<clipPath id="SVGID_2_">
				<use xlink:href="#SVGID_1_"  overflow="visible"/>
			</clipPath>
			<path clip-path="url(#SVGID_2_)" fill="#040506" d="M36.832,203.725c-3.368,0-6.109-2.738-6.109-6.109v-30.637
				c0-0.388,0.316-0.703,0.704-0.703h2.909v-5.801H31.39l-0.042,0.004c-0.024,0.002-0.051,0.002-0.074,0.002h-0.029
				c-0.655-0.033-1.279-0.315-1.742-0.801c-1.717-2.021-2.562-4.59-2.374-7.234l2.885-39.672c0.127-1.687,0.672-3.34,1.575-4.773
				l0.024-0.042l4.986-8.719c0.413-0.783,1.17-1.311,2.039-1.439c0.83,0.114,1.558,0.609,1.967,1.345l5.137,8.959
				c0.87,1.413,1.395,3.035,1.512,4.694l2.878,39.648c0.248,2.71-0.546,5.376-2.233,7.511c-0.337,0.331-0.799,0.521-1.272,0.521
				c-0.033,0-0.065,0-0.099-0.002l-0.026-0.002h-3.56v5.801h2.901c0.388,0,0.705,0.314,0.705,0.703v30.637
				c0,3.371-2.743,6.109-6.11,6.109H36.832z M32.129,197.615c0,2.593,2.108,4.703,4.703,4.703h3.604
				c2.593,0,4.702-2.109,4.702-4.703v-29.932h-13.01V197.615z M38.633,146.057c-1.598,0-2.901,1.301-2.901,2.9v17.32h5.803v-17.32
				C41.534,147.357,40.234,146.057,38.633,146.057 M28.54,152.499c-0.231,2.269,0.518,4.535,2.051,6.22l0.331,0.362l3.404-0.021
				v-10.104c0-2.375,1.934-4.308,4.308-4.308c2.376,0,4.309,1.933,4.309,4.308v10.11h4.03l0.321-0.534
				c1.095-1.824,1.596-3.91,1.447-6.035l-2.886-39.625c-0.115-1.414-0.56-2.792-1.284-4l-5.937-10.357L32.78,108.76
				c-0.76,1.226-1.227,2.63-1.354,4.069L28.54,152.499z"/>
		</g>
		<g>
			<defs>
				<rect id="SVGID_3_" x="26.942" y="97.802" width="59.347" height="105.925"/>
			</defs>
			<clipPath id="SVGID_4_">
				<use xlink:href="#SVGID_3_"  overflow="visible"/>
			</clipPath>
			<path clip-path="url(#SVGID_4_)" fill="#040506" d="M71.074,203.725c-3.371,0-6.112-2.74-6.112-6.106v-30.64
				c0-0.387,0.314-0.701,0.705-0.701h2.9v-9.407h-5.125c-2.238-0.12-3.979-2.031-3.888-4.271l0.002-0.048v-50.28
				c-0.042-1.711,0.93-3.282,2.479-4.008c0.441-0.189,0.907-0.284,1.389-0.284c0.916,0,1.786,0.35,2.444,0.985l18.937,17.64
				c0.892,0.853,1.401,2.062,1.389,3.311v32.66l0.001,0.023c0.094,2.241-1.647,4.152-3.886,4.271h-5.126v9.406h2.902
				c0.388,0,0.701,0.314,0.701,0.703v30.639c0,3.367-2.739,6.107-6.109,6.107h-3.603V203.725z M66.372,197.617
				c0,2.591,2.108,4.701,4.703,4.701h3.603c2.592,0,4.703-2.11,4.703-4.701v-29.934H66.372V197.617z M72.875,146.057
				c-1.602,0-2.901,1.301-2.901,2.9v17.32h5.802v-17.32C75.776,147.357,74.476,146.057,72.875,146.057 M72.875,144.648
				c2.375,0,4.308,1.933,4.308,4.308v6.505h5.154c1.351,0,2.45-1.306,2.45-2.912v-32.614c0.016-0.845-0.314-1.671-0.91-2.275
				l-0.03-0.029l-18.896-17.6c-0.396-0.415-0.947-0.651-1.523-0.651c-0.293,0-0.582,0.061-0.851,0.183l-0.035,0.014l-0.032,0.016
				c-1.011,0.531-1.614,1.604-1.546,2.743v50.215c0,1.606,1.1,2.912,2.45,2.912h5.153v-6.505
				C68.567,146.582,70.5,144.648,72.875,144.648"/>
		</g>
	</g>
	<g>
		<g>
			<defs>
				<rect id="SVGID_5_" x="92.21" y="212.465" width="88.669" height="56.658"/>
			</defs>
			<clipPath id="SVGID_6_">
				<use xlink:href="#SVGID_5_"  overflow="visible"/>
			</clipPath>
			<path clip-path="url(#SVGID_6_)" fill="#040506" d="M124.223,268.199l7.633-7.635v-15.283l10.425-10.42l1.283,0.135l-0.079-1.342
				l17.834-17.836c2.16-2.163,5.041-3.355,8.102-3.355c2.735,0,5.387,0.988,7.467,2.78l0.153,0.134l0.02-0.018l0.925,0.925
				l-0.021,0.018l0.134,0.155c1.793,2.075,2.782,4.729,2.782,7.464c0,3.06-1.194,5.937-3.358,8.104l-6.674,6.675l-1.376,0.077
				l-0.052,1.351l-21.356,21.359h-15.283l-7.633,7.637L124.223,268.199z M134.087,260.182h13.433l5.755-5.756l-13.388-0.043
				L134.087,260.182z M133.162,245.824v13.436l5.803-5.805l-0.044-13.387L133.162,245.824z M141.189,253.08l13.389,0.043
				l12.104-12.105l-13.388-0.045L141.189,253.08z M140.223,238.766l0.044,13.39l9.286-9.287l-0.043-13.392l-4.686,4.686l0.136,2.294
				l-2.197-0.231L140.223,238.766z M150.812,228.171l0.043,13.392l9.104-9.106l-0.043-13.388L150.812,228.171z M154.597,239.67
				l13.388,0.045l0.147-0.15l0.077-2.022l2.066-0.117l6.386-6.389l-13.39-0.041L154.597,239.67z M169.419,213.771
				c-2.712,0-5.26,1.055-7.178,2.973l-1.023,1.021l0.045,13.39l14.856-14.856l-0.186-0.154
				C174.089,214.59,171.835,213.771,169.419,213.771 M164.571,229.689l13.168,0.043l0.066-0.094
				c1.154-1.687,1.766-3.664,1.766-5.717c0-2.385-0.841-4.697-2.375-6.517l-0.152-0.185L164.571,229.689z M92.862,266.311
				c-0.359,0-0.653-0.289-0.653-0.651c0-0.359,0.294-0.654,0.653-0.654h26.095c0.359,0,0.651,0.295,0.651,0.654
				c0,0.362-0.292,0.651-0.651,0.651H92.862z M92.862,259.895c-0.359,0-0.653-0.295-0.653-0.653c0-0.361,0.294-0.652,0.653-0.652
				h34.458c0.36,0,0.655,0.291,0.655,0.652c0,0.358-0.295,0.653-0.655,0.653H92.862z M92.862,253.471
				c-0.359,0-0.653-0.293-0.653-0.654c0-0.358,0.294-0.653,0.653-0.653h34.458c0.36,0,0.655,0.295,0.655,0.653
				c0,0.361-0.295,0.654-0.655,0.654H92.862z M92.862,247.047c-0.359,0-0.653-0.291-0.653-0.65c0-0.36,0.294-0.653,0.653-0.653
				h34.458c0.36,0,0.655,0.293,0.655,0.653c0,0.359-0.295,0.65-0.655,0.65H92.862z"/>
		</g>
	</g>
	<g>
		<g>
			<defs>
				<rect id="SVGID_7_" x="97.525" y="8.815" width="74.805" height="71.538"/>
			</defs>
			<clipPath id="SVGID_8_">
				<use xlink:href="#SVGID_7_"  overflow="visible"/>
			</clipPath>
			<path clip-path="url(#SVGID_8_)" fill="#040506" d="M153.483,65.333c-0.039,0-0.082-0.002-0.125-0.002l-0.079-0.001
				c-4.015-0.079-7.851-1.844-10.527-4.842c-1.938-2.17-4.698-3.415-7.576-3.415h-0.393c-2.877,0-5.64,1.245-7.574,3.415
				c-2.676,2.998-6.514,4.764-10.526,4.842c-0.091,0-0.184,0.001-0.273,0.001c-7.842,0-14.346-6.369-14.5-14.198
				c-0.072-3.676,1.232-7.208,3.681-9.945c2.318-2.593,5.485-4.268,8.919-4.716l0.113-0.016l0.105-0.045
				c0.094-0.041,0.188-0.061,0.292-0.061h39.922c0.103,0,0.201,0.02,0.293,0.061l0.103,0.045l0.118,0.016
				c3.433,0.448,6.598,2.123,8.918,4.716c2.444,2.735,3.755,6.267,3.68,9.945c-0.154,7.829-6.654,14.198-14.488,14.198
				C153.55,65.331,153.504,65.333,153.483,65.333 M135.175,55.624c3.29,0,6.447,1.421,8.658,3.898
				c2.408,2.699,5.859,4.288,9.474,4.358c0.083,0.002,0.17,0.002,0.256,0.002c7.05,0,12.9-5.731,13.04-12.777
				c0.136-6.759-5.019-12.576-11.732-13.243c-0.05-0.003-0.098-0.014-0.146-0.027l-0.113-0.038h-39.262l-0.114,0.038
				c-0.046,0.014-0.097,0.024-0.146,0.027c-6.714,0.669-11.867,6.484-11.732,13.243c0.141,7.045,5.993,12.777,13.052,12.777
				c0.084,0,0.162,0,0.246-0.002c3.61-0.07,7.063-1.659,9.474-4.358c2.212-2.477,5.368-3.898,8.655-3.898H135.175z"/>
		</g>
		<g>
			<defs>
				<rect id="SVGID_9_" x="97.525" y="8.815" width="74.805" height="71.538"/>
			</defs>
			<clipPath id="SVGID_10_">
				<use xlink:href="#SVGID_9_"  overflow="visible"/>
			</clipPath>
			<path clip-path="url(#SVGID_10_)" fill="#040506" d="M134.671,37.854c-0.186,0-0.36-0.069-0.492-0.191
				c-3.936-3.627-6.19-8.777-6.19-14.126c0-5.585,2.427-10.886,6.657-14.542c0.131-0.114,0.299-0.177,0.475-0.177
				c0.174,0,0.343,0.063,0.476,0.177c4.229,3.657,6.655,8.957,6.655,14.542c0,5.347-2.255,10.497-6.191,14.126
				c-0.132,0.122-0.307,0.191-0.49,0.191H134.671z M134.546,11.072c-3.294,3.346-5.108,7.771-5.108,12.464
				c0,4.622,1.86,9.167,5.108,12.463l0.573,0.584L135.692,36c3.246-3.298,5.107-7.844,5.107-12.463
				c0-4.693-1.813-9.118-5.107-12.464l-0.572-0.583L134.546,11.072z"/>
		</g>
		<g>
			<defs>
				<rect id="SVGID_11_" x="97.525" y="8.815" width="74.805" height="71.538"/>
			</defs>
			<clipPath id="SVGID_12_">
				<use xlink:href="#SVGID_11_"  overflow="visible"/>
			</clipPath>
			<path clip-path="url(#SVGID_12_)" fill="#040506" d="M135.568,37.854c-0.301,0-0.565-0.181-0.675-0.46
				c-0.107-0.281-0.038-0.592,0.185-0.796c3.113-2.873,5.103-6.763,5.598-10.946c0.021-0.183,0.11-0.346,0.248-0.464
				c0.578-0.498,1.188-0.963,1.819-1.388c3.185-2.147,6.892-3.281,10.716-3.281c1.708,0,3.415,0.228,5.065,0.676
				c0.343,0.096,0.572,0.433,0.526,0.788c-0.668,5.55-3.707,10.524-8.341,13.646c-1.353,0.908-2.811,1.646-4.334,2.186
				c-0.079,0.026-0.161,0.04-0.243,0.04L135.568,37.854L135.568,37.854z M153.458,21.969c-3.534,0-6.961,1.048-9.906,3.031
				c-0.416,0.281-0.83,0.586-1.225,0.904l-0.245,0.197l-0.047,0.311c-0.474,3.144-1.74,6.153-3.668,8.703l-0.975,1.29h8.615
				l0.136-0.051c1.317-0.49,2.58-1.136,3.757-1.929c3.892-2.621,6.552-6.598,7.482-11.2l0.166-0.802l-0.805-0.149
				C155.662,22.071,154.558,21.969,153.458,21.969"/>
		</g>
		<g>
			<defs>
				<rect id="SVGID_13_" x="97.525" y="8.815" width="74.805" height="71.538"/>
			</defs>
			<clipPath id="SVGID_14_">
				<use xlink:href="#SVGID_13_"  overflow="visible"/>
			</clipPath>
			<path clip-path="url(#SVGID_14_)" fill="#040506" d="M124.104,37.854c-0.082,0-0.164-0.014-0.24-0.04
				c-1.524-0.541-2.983-1.278-4.337-2.188c-4.634-3.12-7.674-8.094-8.342-13.644c-0.042-0.354,0.187-0.692,0.53-0.788
				c1.65-0.448,3.354-0.676,5.062-0.676c3.825,0,7.531,1.134,10.717,3.279c0.631,0.425,1.242,0.893,1.819,1.39
				c0.14,0.118,0.227,0.283,0.247,0.462c0.496,4.188,2.485,8.076,5.601,10.948c0.222,0.202,0.292,0.515,0.182,0.794
				c-0.107,0.283-0.374,0.462-0.673,0.462L124.104,37.854L124.104,37.854z M116.779,21.969c-1.099,0-2.203,0.104-3.286,0.305
				l-0.804,0.149l0.163,0.802c0.936,4.601,3.591,8.579,7.484,11.2c1.176,0.792,2.438,1.439,3.757,1.929l0.135,0.051h8.613
				l-0.974-1.29c-1.926-2.548-3.193-5.558-3.666-8.703l-0.047-0.311l-0.245-0.197c-0.396-0.318-0.808-0.623-1.225-0.904
				C123.74,23.017,120.315,21.969,116.779,21.969"/>
		</g>
		<g>
			<defs>
				<rect id="SVGID_15_" x="97.525" y="8.815" width="74.805" height="71.538"/>
			</defs>
			<clipPath id="SVGID_16_">
				<use xlink:href="#SVGID_15_"  overflow="visible"/>
			</clipPath>
			<path clip-path="url(#SVGID_16_)" fill="#040506" d="M149.85,53.583c-1.896,0-3.89-0.539-5.768-1.551
				c-0.305-0.164-0.448-0.521-0.347-0.852c1.075-3.468,3.274-6.035,6.194-7.227c1.173-0.477,2.424-0.721,3.719-0.721
				c1.896,0,3.89,0.536,5.765,1.548c0.305,0.164,0.451,0.521,0.35,0.852c-1.075,3.468-3.278,6.036-6.196,7.227
				C152.395,53.339,151.144,53.583,149.85,53.583 M153.649,44.683c-1.104,0-2.173,0.207-3.169,0.614
				c-2.135,0.869-3.816,2.595-4.868,4.991l-0.334,0.761l0.771,0.309c1.279,0.513,2.56,0.776,3.8,0.776
				c1.104,0,2.172-0.208,3.168-0.615c2.133-0.869,3.815-2.597,4.868-4.992l0.334-0.761l-0.771-0.311
				C156.17,44.942,154.891,44.683,153.649,44.683"/>
		</g>
		<g>
			<defs>
				<rect id="SVGID_17_" x="97.525" y="8.815" width="74.805" height="71.538"/>
			</defs>
			<clipPath id="SVGID_18_">
				<use xlink:href="#SVGID_17_"  overflow="visible"/>
			</clipPath>
			<path clip-path="url(#SVGID_18_)" fill="#040506" d="M120.108,53.583c-1.294,0-2.544-0.244-3.716-0.723
				c-2.921-1.191-5.12-3.759-6.196-7.227c-0.102-0.33,0.046-0.688,0.349-0.852c1.877-1.012,3.871-1.548,5.767-1.548
				c1.294,0,2.545,0.244,3.719,0.721c2.918,1.192,5.119,3.759,6.195,7.227c0.103,0.331-0.044,0.688-0.348,0.852
				C123.999,53.044,122.006,53.583,120.108,53.583 M116.311,44.683c-1.24,0-2.521,0.26-3.802,0.773l-0.771,0.311l0.334,0.761
				c1.052,2.395,2.734,4.121,4.867,4.992c0.997,0.407,2.063,0.615,3.168,0.615c1.241,0,2.521-0.263,3.802-0.776l0.771-0.309
				l-0.334-0.761c-1.051-2.396-2.734-4.123-4.866-4.991C118.483,44.89,117.415,44.683,116.311,44.683"/>
		</g>
		<g>
			<defs>
				<rect id="SVGID_19_" x="97.525" y="8.815" width="74.805" height="71.538"/>
			</defs>
			<clipPath id="SVGID_20_">
				<use xlink:href="#SVGID_19_"  overflow="visible"/>
			</clipPath>
			<path clip-path="url(#SVGID_20_)" fill="#040506" d="M167.866,77.569c-0.239,0-0.463-0.116-0.599-0.315
				c-0.161-0.234-3.877-5.799-0.043-12.989c3.444-6.456-0.47-12.695-0.512-12.759c-0.104-0.161-0.136-0.354-0.094-0.542
				c0.042-0.189,0.156-0.351,0.317-0.457c0.117-0.074,0.25-0.112,0.388-0.112c0.251,0,0.479,0.125,0.613,0.334
				c0.183,0.283,4.395,7.044,0.565,14.219c-3.436,6.437-0.074,11.438-0.041,11.485c0.227,0.329,0.142,0.782-0.188,1.007
				C168.153,77.523,168.015,77.569,167.866,77.569"/>
		</g>
		<g>
			<defs>
				<rect id="SVGID_21_" x="97.525" y="8.815" width="74.805" height="71.538"/>
			</defs>
			<clipPath id="SVGID_22_">
				<use xlink:href="#SVGID_21_"  overflow="visible"/>
			</clipPath>
			<path clip-path="url(#SVGID_22_)" fill="#040506" d="M161.276,80.353c-0.242,0-0.471-0.118-0.608-0.32
				c-0.105-0.156-2.581-3.855-0.039-8.621c2.115-3.963-0.216-7.783-0.318-7.945c-0.107-0.168-0.142-0.359-0.1-0.55
				c0.04-0.189,0.157-0.35,0.319-0.454c0.113-0.073,0.249-0.114,0.386-0.114c0.252,0,0.483,0.128,0.617,0.338
				c0.121,0.19,2.904,4.661,0.372,9.407c-2.092,3.926-0.125,6.991-0.039,7.118c0.229,0.336,0.146,0.791-0.185,1.017
				C161.563,80.309,161.422,80.353,161.276,80.353"/>
		</g>
		<g>
			<defs>
				<rect id="SVGID_23_" x="97.525" y="8.815" width="74.805" height="71.538"/>
			</defs>
			<clipPath id="SVGID_24_">
				<use xlink:href="#SVGID_23_"  overflow="visible"/>
			</clipPath>
			<path clip-path="url(#SVGID_24_)" fill="#040506" d="M108.69,80.349c-0.145,0-0.288-0.045-0.407-0.128
				c-0.33-0.224-0.414-0.678-0.188-1.008c0.088-0.133,2.05-3.198-0.042-7.118c-2.529-4.746,0.255-9.216,0.374-9.407
				c0.137-0.208,0.362-0.334,0.615-0.334c0.136,0,0.27,0.04,0.387,0.114c0.336,0.213,0.438,0.663,0.223,0.999
				c-0.101,0.164-2.429,3.987-0.318,7.947c2.542,4.765,0.064,8.465-0.041,8.621C109.153,80.23,108.929,80.349,108.69,80.349"/>
		</g>
		<g>
			<defs>
				<rect id="SVGID_25_" x="97.525" y="8.815" width="74.805" height="71.538"/>
			</defs>
			<clipPath id="SVGID_26_">
				<use xlink:href="#SVGID_25_"  overflow="visible"/>
			</clipPath>
			<path clip-path="url(#SVGID_26_)" fill="#040506" d="M101.989,77.569c-0.146,0-0.286-0.045-0.407-0.128
				c-0.33-0.225-0.413-0.678-0.188-1.009c0.142-0.208,3.347-5.133-0.042-11.483c-3.827-7.175,0.384-13.936,0.564-14.219
				c0.136-0.208,0.363-0.334,0.613-0.334c0.138,0,0.271,0.038,0.388,0.112c0.336,0.214,0.438,0.663,0.223,0.999
				c-0.159,0.258-3.919,6.366-0.511,12.759c3.835,7.189,0.119,12.755-0.04,12.987C102.452,77.453,102.229,77.569,101.989,77.569"/>
		</g>
	</g>
	<g>
		<path fill="#040506" d="M135.007,202.975c-7.046,0-13.098-2.463-17.503-7.121c-4.208-4.442-6.55-10.608-6.596-17.367l-0.003-0.285
			l0.285-0.153l1.229-0.01v0.287c0.048,6.521,2.242,12.327,6.181,16.493c4.118,4.347,9.792,6.644,16.405,6.644h0.641l0.007,1.509
			L135.007,202.975z"/>
		<path fill="#040506" d="M135.007,202.689c-6.967,0-12.944-2.431-17.296-7.033c-4.155-4.387-6.474-10.482-6.519-17.172v-0.151
			l0.942-0.008v0.147c0.047,6.449,2.269,12.321,6.258,16.543c4.172,4.399,9.916,6.73,16.613,6.73h0.356l0.005,0.939L135.007,202.689
			z"/>
		<path fill="#040506" d="M135.009,202.826c-7.004,0-13.019-2.445-17.396-7.072c-4.177-4.411-6.506-10.544-6.555-17.268
			l-0.002-0.283l1.214-0.016l0.003,0.287c0.045,6.413,2.253,12.254,6.219,16.443c4.146,4.377,9.854,6.689,16.506,6.689l0.502-0.002
			l0.008,1.217L135.009,202.826z"/>
		<path fill="#040506" d="M135.219,202.539c-7.014,0.049-13.031-2.364-17.399-6.98c-4.131-4.363-6.428-10.428-6.477-17.074
			l0.644-0.008c0.046,6.489,2.283,12.396,6.298,16.638c4.245,4.481,10.099,6.829,16.931,6.776L135.219,202.539z"/>
		<path fill="#040506" d="M132.442,200.848"/>
		<path fill="#040506" d="M132.442,200.848"/>
		<path fill="#040506" d="M132.442,200.848"/>
		<path fill="#040506" d="M132.442,200.848"/>
		<path fill="#040506" d="M135.002,202.893c-7.021,0-13.051-2.451-17.438-7.091c-4.19-4.425-6.525-10.573-6.573-17.315
			c-0.016-1.918,0.182-3.795,0.582-5.578l0.169-0.764l0.734,0.28c0.615,0.239,1.25,0.36,1.888,0.36
			c1.548-0.008,3.029-0.686,4.284-1.958c1.209-1.228,2.147-2.931,2.716-4.927c0.408-1.424,0.609-2.936,0.6-4.492
			c-0.008-0.999-0.11-2.014-0.303-3.02c-0.908-4.671-3.704-7.976-6.957-8.226l-0.623-0.049v-0.622
			c-0.021-5.102,1.597-10.096,4.553-14.059c0.584-0.787,1.24-1.55,1.95-2.269c2.655-2.698,5.928-4.597,9.458-5.489l0.276-0.07
			l0.216,0.241l0.255,1.03l-0.272,0.073c-3.405,0.868-6.432,2.628-8.898,5.13c-3.807,3.854-6.057,9.25-6.183,14.817
			c3.7,0.722,6.597,4.306,7.554,9.233c0.212,1.093,0.321,2.192,0.326,3.265c0.012,1.697-0.207,3.336-0.646,4.879
			c-0.635,2.219-1.692,4.121-3.06,5.5c-1.511,1.535-3.305,2.354-5.188,2.367c-0.569,0-1.119-0.068-1.674-0.209
			c-0.29,1.579-0.415,3.053-0.4,4.539c0.045,6.398,2.246,12.221,6.198,16.398c4.133,4.367,9.828,6.675,16.471,6.675l0.196-0.004
			c6.452-0.049,12.01-2.252,16.071-6.375c0.173-0.171,0.337-0.347,0.503-0.528c3.895-4.231,6.016-10.084,5.973-16.479
			c-0.015-1.561-0.172-3.09-0.469-4.544c-0.618,0.161-1.145,0.229-1.674,0.237c-3.656,0-6.938-3.043-8.355-7.75
			c-0.462-1.55-0.703-3.188-0.715-4.865c-0.004-1.113,0.089-2.211,0.274-3.264c0.516-2.867,1.731-5.389,3.426-7.107
			c1.175-1.191,2.557-1.967,4.002-2.245c-0.414-9.662-6.929-17.897-15.575-19.779l-0.277-0.061l-0.088-0.312l0.223-1.042
			l0.278,0.059c9.695,2.109,16.699,11.229,16.805,21.717l0.01,0.622l-0.623,0.059c-1.356,0.12-2.669,0.788-3.792,1.932
			c-1.497,1.513-2.58,3.783-3.053,6.393c-0.175,0.993-0.261,2.008-0.255,3.021c0.01,1.553,0.23,3.061,0.658,4.48
			c1.242,4.124,3.994,6.79,7.012,6.79c0.674-0.004,1.314-0.13,1.969-0.388l0.723-0.287l0.19,0.755
			c0.427,1.799,0.646,3.671,0.655,5.567c0.049,6.742-2.197,12.922-6.326,17.408c-0.17,0.188-0.352,0.379-0.529,0.561
			c-4.325,4.391-10.214,6.732-17.028,6.779h-0.221V202.893z"/>
		<path fill="#040506" d="M135.002,202.607c-6.938,0-12.899-2.42-17.231-7.002c-4.143-4.373-6.448-10.455-6.496-17.121
			c-0.015-1.885,0.178-3.736,0.577-5.512l0.098-0.441l0.425,0.164c0.654,0.253,1.325,0.377,1.989,0.377
			c1.644-0.008,3.179-0.713,4.488-2.042c1.238-1.259,2.202-3,2.786-5.048c0.414-1.447,0.62-2.988,0.609-4.573
			c-0.01-1.021-0.112-2.054-0.309-3.071c-0.932-4.798-3.831-8.197-7.215-8.457l-0.361-0.027v-0.357
			c-0.021-5.038,1.573-9.969,4.498-13.888c0.585-0.788,1.234-1.541,1.924-2.239c2.623-2.663,5.849-4.533,9.323-5.413l0.146-0.038
			l0.188,0.758l-0.145,0.038c-3.307,0.841-6.38,2.626-8.885,5.167c-3.882,3.932-6.162,9.441-6.268,15.107l-0.001,0.148l0.146,0.024
			c3.548,0.565,6.46,4.108,7.415,9.026c0.206,1.065,0.314,2.151,0.319,3.213c0.013,1.66-0.2,3.276-0.635,4.797
			c-0.621,2.17-1.653,4.029-2.988,5.378c-1.457,1.481-3.182,2.271-4.987,2.282c-0.001,0-0.004,0-0.004,0
			c-0.603,0-1.16-0.08-1.712-0.229l-0.18-0.051l-0.036,0.181c-0.298,1.534-0.441,3.122-0.427,4.717
			c0.045,6.474,2.272,12.363,6.275,16.594c4.186,4.421,9.954,6.763,16.679,6.763l0.201-0.005c6.521-0.049,12.15-2.28,16.271-6.459
			c0.172-0.172,0.339-0.35,0.51-0.532c3.942-4.288,6.09-10.211,6.047-16.677c-0.015-1.62-0.183-3.205-0.497-4.715l-0.042-0.183
			l-0.173,0.05c-0.566,0.166-1.145,0.252-1.72,0.26c-3.544,0-6.696-2.965-8.08-7.549c-0.451-1.519-0.689-3.129-0.7-4.787
			c-0.006-1.088,0.086-2.17,0.271-3.211c0.505-2.815,1.698-5.285,3.348-6.957c1.161-1.18,2.524-1.931,3.944-2.182l0.147-0.027
			l-0.007-0.146c-0.31-9.75-6.956-18.223-15.803-20.148l-0.146-0.033l0.163-0.765l0.148,0.031
			c9.416,2.049,16.326,11.052,16.432,21.409l0.003,0.359l-0.359,0.033c-1.423,0.129-2.8,0.828-3.97,2.018
			c-1.537,1.555-2.647,3.879-3.129,6.541c-0.177,1.002-0.265,2.033-0.259,3.074c0.009,1.578,0.233,3.114,0.668,4.562
			c1.28,4.246,4.141,6.993,7.286,6.993c0.723-0.003,1.404-0.145,2.073-0.407l0.42-0.167l0.11,0.438
			c0.417,1.758,0.639,3.605,0.647,5.5c0.051,6.67-2.172,12.783-6.251,17.213c-0.169,0.189-0.349,0.375-0.524,0.556
			c-4.271,4.334-10.09,6.646-16.824,6.69H135.002L135.002,202.607z"/>
		<path fill="#040506" d="M134.983,202.742c-6.971,0-12.957-2.438-17.313-7.047c-4.163-4.396-6.483-10.506-6.529-17.213
			c-0.016-1.887,0.179-3.752,0.579-5.539l0.134-0.596l0.57,0.224c0.636,0.245,1.295,0.37,1.956,0.37
			c1.586-0.012,3.089-0.707,4.375-2.01c1.223-1.233,2.175-2.961,2.755-4.992c0.413-1.437,0.614-2.961,0.603-4.534
			c-0.009-1.003-0.109-2.027-0.305-3.048c-0.921-4.735-3.771-8.09-7.093-8.348l-0.486-0.025v-0.495
			c-0.021-5.064,1.585-10.023,4.525-13.963c0.587-0.791,1.239-1.55,1.936-2.256c2.642-2.678,5.889-4.562,9.392-5.449l0.28-0.071
			l0.24,1.023l-0.271,0.069c-3.28,0.832-6.329,2.607-8.82,5.131c-3.854,3.908-6.122,9.38-6.225,15.015l-0.001,0.033l0.033,0.006
			c3.605,0.578,6.561,4.162,7.522,9.135c0.206,1.062,0.315,2.15,0.325,3.238c0.01,1.679-0.206,3.305-0.645,4.83
			c-0.629,2.195-1.673,4.074-3.018,5.438c-1.486,1.506-3.246,2.311-5.087,2.321c-0.001,0-0.004,0-0.006,0
			c-0.623,0-1.187-0.079-1.748-0.236l-0.036-0.01l-0.009,0.04c-0.297,1.521-0.44,3.1-0.426,4.691
			c0.045,6.434,2.263,12.291,6.241,16.498c4.16,4.395,9.896,6.719,16.588,6.719c6.677-0.045,12.271-2.268,16.367-6.426
			c0.176-0.175,0.343-0.349,0.505-0.526c3.92-4.263,6.057-10.152,6.01-16.587c-0.011-1.596-0.175-3.172-0.491-4.688l-0.008-0.037
			l-0.037,0.011c-0.569,0.172-1.16,0.262-1.754,0.265c-3.604,0-6.81-3.001-8.21-7.649c-0.458-1.52-0.696-3.142-0.71-4.818
			c-0.005-1.098,0.088-2.188,0.273-3.239c0.513-2.835,1.714-5.332,3.384-7.028c1.18-1.197,2.569-1.966,4.021-2.22l0.032-0.006
			l-0.001-0.023c-0.312-9.692-6.916-18.114-15.701-20.024l-0.276-0.062l0.219-1.03l0.28,0.062
			c9.48,2.063,16.438,11.12,16.541,21.538v0.485l-0.482,0.043c-1.394,0.125-2.737,0.811-3.889,1.975
			c-1.52,1.542-2.616,3.841-3.09,6.473c-0.176,0.994-0.264,2.021-0.259,3.049c0.015,1.573,0.237,3.098,0.667,4.524
			c1.263,4.19,4.066,6.897,7.147,6.897c0.714-0.004,1.382-0.138,2.029-0.398l0.572-0.23l0.137,0.597
			c0.426,1.772,0.645,3.635,0.657,5.53c0.047,6.703-2.186,12.849-6.287,17.305c-0.169,0.189-0.351,0.375-0.528,0.557
			c-4.302,4.36-10.153,6.688-16.921,6.732L134.983,202.742z"/>
		<path fill="#040506" d="M151.935,195.811c-4.243,4.301-10.024,6.602-16.718,6.645c-6.99,0.055-12.988-2.352-17.339-6.955
			c-4.114-4.34-6.408-10.389-6.453-17.02c-0.016-1.869,0.178-3.709,0.573-5.476l0.061-0.271l0.26,0.102
			c0.688,0.266,1.396,0.395,2.093,0.391c1.639-0.013,3.209-0.738,4.548-2.095c1.257-1.272,2.231-3.043,2.825-5.112
			c0.418-1.459,0.626-3.013,0.611-4.617c-0.007-1.023-0.11-2.063-0.309-3.098c-0.945-4.861-3.898-8.312-7.353-8.578l-0.223-0.013
			v-0.224c-0.021-5.006,1.565-9.901,4.469-13.792c0.584-0.786,1.226-1.533,1.909-2.226c2.606-2.643,5.804-4.5,9.258-5.373
			l0.11,0.468c-3.336,0.847-6.427,2.645-8.955,5.207c-3.903,3.96-6.202,9.503-6.305,15.208l-0.006,0.279l0.275,0.047
			c3.485,0.56,6.349,4.051,7.289,8.91c0.205,1.055,0.312,2.125,0.321,3.186c0.01,1.648-0.203,3.246-0.633,4.75
			c-0.615,2.143-1.633,3.982-2.947,5.315c-1.432,1.451-3.119,2.226-4.885,2.237c-0.561,0.008-1.119-0.071-1.678-0.227l-0.334-0.092
			l-0.065,0.342c-0.301,1.537-0.446,3.138-0.432,4.748c0.046,6.508,2.291,12.437,6.318,16.692
			c4.263,4.503,10.137,6.853,16.988,6.808c6.563-0.045,12.227-2.295,16.378-6.509c0.178-0.177,0.347-0.354,0.512-0.534
			c3.97-4.315,6.13-10.274,6.085-16.781c-0.01-1.622-0.179-3.221-0.498-4.746l-0.073-0.34l-0.33,0.099
			c-0.555,0.167-1.121,0.25-1.677,0.254c-3.446,0.024-6.562-2.897-7.935-7.446c-0.45-1.498-0.686-3.093-0.698-4.738
			c-0.003-1.082,0.087-2.15,0.271-3.188c0.502-2.78,1.677-5.222,3.306-6.877c1.139-1.155,2.476-1.896,3.866-2.139l0.278-0.048
			l-0.012-0.274c-0.316-9.844-7.003-18.351-15.927-20.292l0.1-0.472c9.36,2.036,16.216,10.947,16.317,21.261v0.223l-0.222,0.02
			c-1.461,0.134-2.868,0.846-4.065,2.058c-1.56,1.583-2.683,3.931-3.169,6.624c-0.178,1.01-0.266,2.051-0.263,3.102
			c0.015,1.601,0.242,3.149,0.679,4.604c1.309,4.339,4.237,7.126,7.466,7.101c0.703-0.002,1.407-0.143,2.092-0.418l0.264-0.105
			l0.062,0.271c0.416,1.746,0.637,3.582,0.648,5.467c0.048,6.633-2.158,12.707-6.213,17.111
			C152.288,195.448,152.111,195.629,151.935,195.811L151.935,195.811z"/>
		<path fill="#040506" d="M135.002,202.818c-6.993,0-13.004-2.445-17.383-7.07c-4.178-4.412-6.502-10.543-6.548-17.266
			c-0.019-1.891,0.177-3.76,0.577-5.553l0.151-0.673l0.644,0.244c0.636,0.244,1.281,0.368,1.927,0.368
			c3.096-0.021,5.871-2.746,7.07-6.943c0.411-1.437,0.611-2.955,0.601-4.516c-0.007-1-0.107-2.021-0.304-3.039
			c-0.913-4.701-3.739-8.031-7.032-8.289l-0.542-0.041l-0.008-0.547c-0.021-5.083,1.592-10.059,4.54-14.01
			c2.914-3.906,7.008-6.667,11.522-7.771l0.277-0.067l0.215,0.243l0.212,0.875l-0.271,0.072c-8.772,2.143-15.111,10.566-15.3,20.124
			c3.578,0.599,6.595,4.25,7.559,9.188c0.207,1.069,0.314,2.164,0.322,3.254c0.015,1.671-0.203,3.303-0.646,4.85
			c-1.348,4.721-4.553,7.787-8.171,7.811c-0.602,0-1.173-0.074-1.737-0.228c-0.29,1.508-0.43,3.069-0.416,4.642
			c0.045,6.418,2.253,12.262,6.221,16.45c4.147,4.382,9.862,6.697,16.524,6.697h0.206c6.749-0.05,12.502-2.447,16.631-6.929
			c3.91-4.252,6.036-10.125,5.987-16.54c-0.013-1.589-0.173-3.146-0.483-4.636c-0.57,0.164-1.154,0.25-1.735,0.254
			c-3.621,0-6.869-3.021-8.277-7.695c-0.461-1.543-0.701-3.171-0.711-4.842c-0.006-1.094,0.086-2.188,0.271-3.254
			c0.898-4.959,3.867-8.651,7.432-9.293c-0.326-9.741-6.936-18.111-15.794-19.958l-0.279-0.058l-0.089-0.312l0.184-0.885
			l0.277,0.054c9.752,2.034,16.798,11.136,16.908,21.671v0.552l-0.541,0.051c-3.288,0.297-6.068,3.666-6.921,8.387
			c-0.176,1.002-0.263,2.026-0.258,3.037c0.013,1.562,0.233,3.08,0.661,4.508c1.254,4.158,4.038,6.845,7.091,6.845
			c0.688-0.006,1.339-0.136,1.998-0.399l0.643-0.254l0.157,0.674c0.427,1.77,0.649,3.635,0.661,5.545
			c0.046,6.719-2.192,12.883-6.307,17.353c-0.174,0.188-0.354,0.381-0.539,0.562c-4.301,4.364-10.166,6.701-16.961,6.752
			l-0.214,0.004h-0.003V202.818z"/>
		<path fill="#040506" d="M135.002,202.533c-6.917,0-12.855-2.418-17.175-6.982c-4.13-4.357-6.426-10.419-6.472-17.07
			c-0.018-1.873,0.177-3.717,0.572-5.488l0.079-0.352l0.336,0.127c0.67,0.258,1.349,0.387,2.026,0.387
			c3.242-0.022,6.109-2.83,7.345-7.15c0.416-1.455,0.624-3,0.61-4.596c-0.006-1.024-0.109-2.061-0.309-3.092
			c-0.938-4.827-3.868-8.252-7.289-8.52l-0.284-0.021l-0.004-0.285c-0.02-5.02,1.573-9.936,4.485-13.835
			c2.875-3.855,6.909-6.575,11.36-7.664l0.146-0.035l0.146,0.604l-0.146,0.039c-8.842,2.157-15.288,10.812-15.369,20.607
			c3.572,0.45,6.601,4.042,7.564,8.998c0.207,1.062,0.312,2.141,0.318,3.201c0.015,1.653-0.202,3.259-0.636,4.769
			c-1.31,4.594-4.411,7.581-7.896,7.604h-0.003c-0.673,0-1.316-0.101-1.952-0.305c-0.333,1.614-0.498,3.297-0.482,5.006
			c0.045,6.492,2.281,12.402,6.299,16.645c4.201,4.439,9.987,6.787,16.731,6.787h0.206c6.829-0.051,12.652-2.479,16.841-7.023
			c3.958-4.301,6.112-10.244,6.062-16.732c-0.011-1.719-0.197-3.397-0.556-5.002c-0.641,0.221-1.3,0.334-1.951,0.337l0,0
			c-3.507,0-6.631-2.939-8.002-7.492c-0.452-1.508-0.689-3.108-0.7-4.763c-0.006-1.084,0.088-2.162,0.271-3.201
			c0.901-4.971,3.879-8.608,7.442-9.1c-0.225-9.986-6.944-18.587-16.028-20.48l-0.148-0.032l0.127-0.609l0.149,0.029
			c9.47,1.977,16.422,10.961,16.53,21.366v0.289l-0.284,0.027c-3.417,0.307-6.298,3.771-7.174,8.619
			c-0.177,1.006-0.267,2.043-0.263,3.09c0.012,1.597,0.238,3.138,0.674,4.589c1.292,4.282,4.184,7.048,7.363,7.048
			c0.729-0.006,1.424-0.146,2.104-0.418l0.334-0.133l0.083,0.353c0.421,1.748,0.642,3.589,0.651,5.481
			c0.049,6.652-2.165,12.74-6.23,17.158c-0.17,0.185-0.346,0.375-0.527,0.551c-4.254,4.318-10.051,6.621-16.763,6.672H135.002z"/>
		<path fill="#040506" d="M135.007,202.666c-6.954,0-12.928-2.428-17.279-7.021c-4.149-4.385-6.461-10.479-6.507-17.162
			c-0.018-1.864,0.176-3.723,0.574-5.519l0.072-0.321l0.348-0.065c0.828,0.315,1.498,0.442,2.168,0.442
			c3.167-0.021,5.984-2.789,7.204-7.057c0.413-1.445,0.616-2.979,0.604-4.559c-0.006-1.01-0.109-2.039-0.308-3.067
			c-0.93-4.771-3.811-8.149-7.166-8.405l-0.26-0.021l-0.15-0.272c-0.021-5.199,1.581-10.142,4.509-14.065
			c2.896-3.88,6.956-6.619,11.438-7.713l0.278-0.068l0.208,0.866l-0.276,0.068c-8.749,2.137-15.133,10.676-15.263,20.365
			c3.578,0.517,6.599,4.125,7.562,9.083c0.204,1.076,0.312,2.161,0.322,3.227c0.009,1.672-0.208,3.291-0.645,4.809
			c-1.328,4.655-4.479,7.68-8.025,7.702h-0.002c-0.638,0-1.25-0.09-1.851-0.269c-0.312,1.556-0.466,3.18-0.453,4.834
			c0.046,6.455,2.271,12.332,6.266,16.551c4.177,4.41,9.927,6.742,16.629,6.742h0.209c6.789-0.045,12.579-2.459,16.741-6.977
			c3.935-4.277,6.076-10.188,6.028-16.641c-0.012-1.645-0.186-3.268-0.521-4.828c-0.618,0.189-1.237,0.293-1.849,0.299
			c-3.567,0-6.743-2.98-8.135-7.592c-0.46-1.522-0.695-3.137-0.705-4.797c-0.004-1.102,0.088-2.188,0.272-3.229
			c0.896-4.976,3.866-8.628,7.436-9.194c-0.27-9.871-6.931-18.354-15.917-20.229l-0.275-0.058l0.175-0.877l0.281,0.059
			c9.534,1.989,16.531,11.029,16.641,21.495l0.001,0.257l-0.258,0.175c-3.503,0.321-6.34,3.739-7.206,8.528
			c-0.174,0.99-0.261,2.023-0.258,3.064c0.014,1.584,0.236,3.113,0.668,4.547c1.274,4.227,4.111,6.957,7.229,6.957
			c0.715-0.008,1.396-0.146,2.062-0.406l0.305-0.121l0.248,0.248c0.466,1.939,0.688,3.796,0.699,5.697
			c0.044,6.688-2.183,12.813-6.269,17.246c-0.173,0.19-0.349,0.381-0.531,0.561c-4.282,4.341-10.112,6.661-16.857,6.706
			L135.007,202.666z"/>
		<path fill="#040506" d="M151.876,195.754c-4.229,4.288-9.972,6.579-16.659,6.624c-6.969,0.049-12.942-2.349-17.281-6.93
			c-4.102-4.331-6.385-10.36-6.43-16.968c-0.02-1.861,0.178-3.693,0.568-5.455l0.042-0.181l0.174,0.064
			c0.696,0.268,1.413,0.399,2.122,0.396c3.27-0.021,6.192-2.875,7.447-7.263c0.42-1.466,0.628-3.026,0.616-4.64
			c-0.006-1.027-0.109-2.075-0.312-3.117c-0.954-4.893-3.936-8.371-7.424-8.639l-0.146-0.012l-0.002-0.146
			c-0.021-4.985,1.561-9.867,4.453-13.745c2.854-3.827,6.857-6.528,11.275-7.607l0.073,0.312
			c-8.966,2.19-15.46,10.964-15.479,20.895c3.569,0.361,6.602,3.91,7.566,8.885c0.2,1.055,0.309,2.123,0.316,3.174
			c0.011,1.637-0.202,3.231-0.632,4.728c-1.292,4.527-4.334,7.472-7.755,7.496c-0.688,0.003-1.385-0.114-2.062-0.353
			c-0.363,1.682-0.538,3.431-0.524,5.205c0.047,6.527,2.3,12.475,6.343,16.748c4.276,4.516,10.172,6.877,17.047,6.828
			c6.879-0.044,12.737-2.494,16.95-7.066c3.98-4.329,6.15-10.305,6.104-16.836c-0.012-1.789-0.217-3.537-0.599-5.198
			c-0.676,0.244-1.37,0.378-2.062,0.386c-3.416,0.021-6.497-2.874-7.857-7.39c-0.45-1.492-0.685-3.078-0.693-4.716
			c-0.003-1.079,0.086-2.146,0.271-3.178c0.898-4.99,3.883-8.582,7.443-8.996c-0.164-10.119-6.939-18.835-16.147-20.757l0.062-0.317
			c9.405,1.961,16.308,10.886,16.413,21.218v0.146l-0.146,0.017c-3.485,0.315-6.421,3.83-7.312,8.745
			c-0.179,1.018-0.265,2.062-0.261,3.117c0.013,1.608,0.239,3.164,0.679,4.627c1.319,4.373,4.279,7.185,7.544,7.16
			c0.715-0.007,1.427-0.15,2.125-0.426l0.17-0.07l0.045,0.181c0.415,1.737,0.635,3.571,0.647,5.452
			c0.043,6.609-2.15,12.666-6.191,17.053C152.228,195.395,152.055,195.578,151.876,195.754z"/>
		<path fill="none" stroke="#040506" stroke-width="0.5" stroke-miterlimit="10" d="M132.897,156.277
			c-1.867,0-3.396-1.52-3.411-3.389l1.067-45.967l7.992-0.057l1.706,45.929c0.007,0.929-0.344,1.791-0.984,2.438
			c-0.642,0.647-1.492,1.008-2.396,1.014L132.897,156.277L132.897,156.277z"/>
		<path fill="none" stroke="#040506" stroke-width="0.5" stroke-miterlimit="10" d="M132.897,155.993
			c-1.709,0-3.112-1.39-3.125-3.106l1.061-45.682l7.438-0.053l1.696,45.652c0.006,0.847-0.314,1.636-0.902,2.229
			c-0.585,0.589-1.363,0.922-2.194,0.928L132.897,155.993z"/>
		<path fill="none" stroke="#040506" stroke-width="0.5" stroke-miterlimit="10" d="M132.887,156.12
			c-1.779,0-3.237-1.448-3.25-3.231l1.064-45.818l7.698-0.055l1.701,45.786c0.006,0.886-0.329,1.707-0.938,2.326
			c-0.613,0.622-1.43,0.965-2.295,0.97L132.887,156.12z"/>
		<path fill="none" stroke="#040506" stroke-width="0.5" stroke-miterlimit="10" d="M138.96,154.927
			c-0.561,0.567-1.301,0.882-2.093,0.886l-3.952,0.023c-1.64,0.016-2.98-1.309-2.992-2.949l1.057-45.532l7.146-0.051l1.689,45.508
			C139.821,153.604,139.518,154.361,138.96,154.927z"/>
		<path fill="none" stroke="#040506" stroke-width="0.5" stroke-miterlimit="10" d="M132.895,155.873
			c-1.646,0-2.994-1.341-3.008-2.988l1.057-45.565l7.217-0.049l1.689,45.543c0.005,0.81-0.304,1.563-0.866,2.137
			c-0.565,0.574-1.315,0.893-2.113,0.896l-3.973,0.025H132.895z"/>
		<path fill="none" d="M132.895,155.587c-1.489,0-2.711-1.213-2.723-2.705l1.05-45.279l6.662-0.045l1.682,45.266
			c0.003,0.724-0.272,1.408-0.785,1.927c-0.508,0.515-1.188,0.808-1.912,0.812L132.895,155.587z"/>
		<path fill="none" d="M132.892,155.719c-1.561,0-2.84-1.271-2.854-2.834l1.057-45.416l6.919-0.047l1.686,45.396
			c0.005,0.769-0.287,1.486-0.819,2.026c-0.539,0.544-1.254,0.847-2.012,0.851L132.892,155.719z"/>
		<path fill="none" stroke="#040506" stroke-width="0.75" stroke-miterlimit="10" d="M138.675,154.645
			c-0.481,0.487-1.126,0.764-1.812,0.767l-3.949,0.024c-1.416,0.012-2.579-1.136-2.592-2.553l1.051-45.13l6.364-0.043l1.677,45.119
			C139.417,153.505,139.156,154.156,138.675,154.645z"/>
		<path fill="#040506" d="M130.769,189.75c-0.006-0.771,0.283-1.479,0.812-2.018c0.535-0.539,1.24-0.838,1.987-0.84l3.086-0.022
			c1.553,0,2.825,1.254,2.838,2.796l-0.859,11.471l-1.353-0.105l0.858-11.408c-0.016-0.758-0.673-1.398-1.465-1.398l-3.096,0.021
			c-0.395,0.004-0.761,0.159-1.034,0.438c-0.271,0.277-0.42,0.64-0.42,1.022l1.02,11.36l-1.352,0.119L130.769,189.75z"/>
		<path fill="#040506" d="M131.053,189.725c-0.004-0.67,0.262-1.313,0.73-1.791c0.475-0.479,1.109-0.752,1.785-0.758l3.087-0.021
			c1.402,0,2.537,1.13,2.55,2.512l-0.838,11.162l-0.782-0.062l0.836-11.125c-0.018-0.939-0.8-1.707-1.748-1.707l-3.099,0.021
			c-0.47,0.004-0.907,0.189-1.234,0.525c-0.323,0.328-0.502,0.763-0.502,1.221l0.995,11.101l-0.783,0.069L131.053,189.725z"/>
		<path fill="#040506" d="M130.922,189.736c-0.009-0.715,0.271-1.398,0.766-1.896c0.497-0.509,1.165-0.792,1.88-0.796l3.086-0.024
			c1.479,0,2.676,1.188,2.686,2.648l-0.847,11.305l-1.051-0.084l0.849-11.256c-0.02-0.855-0.738-1.559-1.608-1.559l-3.104,0.02
			c-0.433,0.004-0.837,0.174-1.142,0.485c-0.301,0.301-0.465,0.7-0.465,1.125l1.006,11.226l-1.048,0.09L130.922,189.736z"/>
		<path fill="#040506" d="M137.748,200.628l0.823-10.974l-0.002-0.016c-0.017-1.024-0.874-1.861-1.91-1.851l-3.085,0.021
			c-0.509,0.004-0.985,0.207-1.343,0.569c-0.351,0.354-0.546,0.826-0.546,1.325l0.002,0.027l0.979,10.938l-0.479,0.042
			l-0.982-10.999c-0.006-0.618,0.237-1.221,0.686-1.671c0.445-0.457,1.045-0.708,1.679-0.712l3.088-0.023
			c1.312-0.008,2.388,1.051,2.396,2.365v0.026l-0.825,10.969L137.748,200.628z"/>
		<path fill="#040506" d="M130.852,189.777c-0.008-0.768,0.272-1.465,0.786-1.988c0.508-0.518,1.193-0.809,1.928-0.816l3.088-0.022
			c1.51,0,2.745,1.217,2.757,2.715l-0.871,11.621l-1.19-0.087l0.871-11.573c-0.009-0.806-0.701-1.479-1.546-1.479l-3.096,0.02
			c-0.854,0.006-1.54,0.704-1.535,1.553l1.031,11.514l-1.188,0.103L130.852,189.777z"/>
		<path fill="#040506" d="M131.136,189.751c-0.006-0.674,0.246-1.293,0.706-1.761c0.458-0.469,1.073-0.725,1.728-0.731l3.088-0.024
			c1.359,0,2.456,1.094,2.468,2.433l-0.851,11.313l-0.621-0.045l0.85-11.289c-0.007-0.982-0.829-1.787-1.829-1.787l-3.099,0.021
			c-1.012,0.009-1.823,0.833-1.817,1.841l1.007,11.252l-0.618,0.053L131.136,189.751z"/>
		<path fill="#040506" d="M131.001,189.766c-0.011-1.457,1.145-2.631,2.568-2.639l3.083-0.023c1.438,0,2.597,1.15,2.606,2.565
			l-0.862,11.454l-0.888-0.061l0.858-11.424c-0.007-0.896-0.767-1.643-1.694-1.643l-3.097,0.018
			c-0.937,0.008-1.691,0.772-1.688,1.705l1.022,11.381l-0.892,0.069L131.001,189.766z"/>
		<path fill="#040506" d="M138.134,200.816l-0.319-0.021l0.839-11.137c-0.007-1.076-0.901-1.956-1.993-1.948l-3.085,0.018
			c-1.094,0.008-1.976,0.902-1.97,1.992l0.997,11.117l-0.322,0.025l-0.994-11.123c-0.01-1.282,1.015-2.32,2.288-2.328l3.082-0.023
			c1.271-0.012,2.311,1.014,2.317,2.282L138.134,200.816z"/>
		
			<rect x="129.972" y="165.847" transform="matrix(1 -0.0073 0.0073 1 -1.2041 0.983)" fill="#040506" width="9.965" height="1.354"/>
		
			<rect x="130.259" y="166.13" transform="matrix(1 -0.0072 0.0072 1 -1.191 0.9723)" fill="#040506" width="9.394" height="0.782"/>
		<polygon fill="#040506" points="130.13,166.03 139.79,165.96 139.804,167.014 130.139,167.08 		"/>
		<rect x="130.419" y="166.281" fill="#040506" width="9.091" height="0.479"/>
		<polygon fill="#040506" points="129.819,165.96 140.102,165.889 140.116,167.08 129.825,167.155 		"/>
		
			<rect x="130.112" y="166.202" transform="matrix(1 -0.0067 0.0067 1 -1.1186 0.913)" fill="#040506" width="9.713" height="0.62"/>
		<polygon fill="#040506" points="129.974,166.109 139.952,166.041 139.958,166.932 129.974,167 		"/>
		
			<rect x="130.262" y="166.364" transform="matrix(-1 0.0068 -0.0068 -1 271.0732 332.1197)" fill="#040506" width="9.412" height="0.319"/>
		<polygon fill="#040506" points="125.604,104.055 131.459,104.016 131.472,105.37 125.61,105.409 		"/>
		
			<rect x="125.895" y="104.314" transform="matrix(1 -0.0067 0.0067 1 -0.703 0.8689)" fill="#040506" width="5.287" height="0.784"/>
		
			<rect x="125.753" y="104.188" transform="matrix(1 -0.0068 0.0068 1 -0.7057 0.8722)" fill="#040506" width="5.556" height="1.051"/>
		<rect x="126.042" y="104.471" fill="#040506" width="4.985" height="0.484"/>
		
			<rect x="125.445" y="104.109" transform="matrix(1 -0.007 0.007 1 -0.7248 0.8961)" fill="#040506" width="6.181" height="1.194"/>
		<rect x="125.723" y="104.405" transform="matrix(1 -0.007 0.007 1 -0.735 0.9087)" fill="#040506" width="5.61" height="0.624"/>
		
			<rect x="125.596" y="104.258" transform="matrix(1 -0.0071 0.0071 1 -0.7443 0.9205)" fill="#040506" width="5.881" height="0.893"/>
		
			<rect x="125.884" y="104.555" transform="matrix(-1 0.0068 -0.0068 -1 257.7881 208.5542)" fill="#040506" width="5.311" height="0.321"/>
		<path fill="#040506" d="M130.469,97.86c-0.006-0.908,0.342-1.766,0.981-2.415c0.641-0.647,1.491-1.009,2.398-1.017l1.218-0.01
			c1.877,0,3.417,1.519,3.435,3.384l0.064,10.018l-1.349,0.007l-0.072-10.015c-0.007-1.126-0.928-2.041-2.054-2.041l-1.229,0.009
			c-0.549,0.006-1.062,0.224-1.446,0.614c-0.389,0.392-0.601,0.908-0.597,1.455l0.073,10.017l-1.355,0.007L130.469,97.86z"/>
		<path fill="#040506" d="M130.755,97.858c-0.006-0.831,0.312-1.618,0.898-2.212c0.585-0.593,1.367-0.925,2.197-0.933l1.217-0.009
			c1.731,0,3.132,1.392,3.147,3.102l0.062,9.731l-0.778,0.004l-0.069-9.729c-0.007-1.281-1.062-2.324-2.339-2.324l-1.231,0.009
			c-0.626,0.006-1.21,0.254-1.647,0.7c-0.44,0.444-0.684,1.034-0.678,1.656l0.07,9.731l-0.785,0.004L130.755,97.858z"/>
		<path fill="#040506" d="M130.619,97.86c-0.006-0.869,0.327-1.688,0.938-2.308c0.615-0.621,1.429-0.965,2.294-0.971l1.216-0.012
			c1.807,0,3.27,1.451,3.283,3.236l0.067,9.863l-1.051,0.009l-0.069-9.866c-0.011-1.207-1.001-2.19-2.209-2.19l-1.228,0.011
			c-0.59,0.004-1.142,0.238-1.554,0.659c-0.415,0.419-0.641,0.973-0.639,1.561l0.067,9.866l-1.051,0.004L130.619,97.86z"/>
		<path fill="#040506" d="M137.65,107.39l-0.067-9.58c-0.012-1.374-1.137-2.481-2.51-2.473l-1.215,0.011
			c-0.665,0.004-1.289,0.269-1.755,0.744c-0.468,0.473-0.722,1.101-0.72,1.761l0.066,9.583l-0.481,0.001l-0.065-9.578
			c-0.003-0.791,0.299-1.538,0.857-2.107c0.559-0.563,1.303-0.878,2.091-0.884l1.217-0.012c1.642-0.01,2.983,1.314,2.996,2.953
			l0.067,9.577L137.65,107.39z"/>
		<path fill="#040506" d="M130.547,97.86c-0.012-1.833,1.47-3.337,3.304-3.352l1.217-0.009c1.837,0,3.341,1.483,3.353,3.304
			l0.066,10.176l-1.188,0.008l-0.07-10.174c-0.007-1.168-0.965-2.12-2.135-2.12l-1.231,0.009c-1.177,0.011-2.127,0.974-2.118,2.149
			l0.069,10.176l-1.19,0.012L130.547,97.86z"/>
		<path fill="#040506" d="M130.832,97.858c-0.012-1.675,1.346-3.051,3.02-3.064l1.217-0.009c1.688,0,3.056,1.355,3.065,3.021
			l0.065,9.891l-0.618,0.004l-0.069-9.89c-0.009-1.326-1.097-2.403-2.42-2.403l-1.233,0.009c-1.334,0.011-2.41,1.104-2.402,2.435
			l0.068,9.892l-0.621,0.006L130.832,97.858z"/>
		<path fill="#040506" d="M130.698,97.858c-0.012-1.75,1.402-3.185,3.153-3.2l1.217-0.008c1.763,0,3.188,1.415,3.202,3.155
			l0.068,10.027l-0.893,0.004l-0.066-10.026c-0.011-1.252-1.038-2.271-2.295-2.271l-1.227,0.012c-1.26,0.009-2.276,1.042-2.27,2.3
			l0.07,10.023l-0.891,0.011L130.698,97.858z"/>
		<path fill="#040506" d="M138.052,107.549l-0.322,0.001l-0.064-9.741c-0.012-1.416-1.176-2.562-2.591-2.555l-1.218,0.012
			c-1.417,0.011-2.561,1.172-2.551,2.588l0.067,9.739l-0.32,0.004l-0.069-9.741c-0.011-1.593,1.277-2.899,2.871-2.914l1.217-0.008
			c1.593-0.011,2.9,1.279,2.915,2.873L138.052,107.549z"/>
		<polygon fill="#040506" points="137.58,102.602 143.441,102.56 143.456,103.914 137.593,103.955 		"/>
		
			<rect x="137.87" y="102.862" transform="matrix(1 -0.0071 0.0071 1 -0.7301 1.0011)" fill="#040506" width="5.291" height="0.784"/>
		
			<rect x="137.734" y="102.726" transform="matrix(1 -0.0071 0.0071 1 -0.7307 1.0019)" fill="#040506" width="5.562" height="1.052"/>
		<rect x="138.023" y="103.016" fill="#040506" width="4.991" height="0.483"/>
		
			<rect x="137.427" y="102.654" transform="matrix(1 -0.0073 0.0073 1 -0.7464 1.0235)" fill="#040506" width="6.184" height="1.194"/>
		
			<rect x="137.71" y="102.943" transform="matrix(1 -0.0073 0.0073 1 -0.751 1.0298)" fill="#040506" width="5.611" height="0.623"/>
		<polygon fill="#040506" points="137.571,102.834 143.457,102.79 143.462,103.682 137.582,103.725 		"/>
		
			<rect x="137.869" y="103.094" transform="matrix(-1 0.0074 -0.0074 -1 281.8075 205.4724)" fill="#040506" width="5.314" height="0.32"/>
		
			<rect x="142.487" y="101.89" transform="matrix(1 -0.0076 0.0076 1 -0.7764 1.0852)" fill="#040506" width="1.356" height="2.71"/>
		<rect x="142.776" y="102.17" transform="matrix(1 -0.0081 0.0081 1 -0.832 1.1637)" fill="#040506" width="0.783" height="2.14"/>
		<rect x="142.649" y="102.038" fill="#040506" width="1.053" height="2.406"/>
		
			<rect x="142.253" y="103.006" transform="matrix(-0.0069 -1 1 -0.0069 40.9172 247.1283)" fill="#040506" width="1.839" height="0.48"/>
		
			<rect x="142.571" y="101.723" transform="matrix(1 -0.0086 0.0086 1 -0.8818 1.2339)" fill="#040506" width="1.193" height="3.033"/>
		<rect x="142.862" y="102.011" fill="#040506" width="0.622" height="2.461"/>
		<polygon fill="#040506" points="142.721,101.88 143.608,101.874 143.632,104.603 142.738,104.608 		"/>
		<rect x="143.015" y="102.162" fill="#040506" width="0.321" height="2.158"/>
		<polygon fill="#040506" points="137.58,97.639 143.441,97.596 143.456,98.95 137.593,98.991 		"/>
		
			<rect x="137.866" y="97.903" transform="matrix(1 -0.0075 0.0075 1 -0.7308 1.0531)" fill="#040506" width="5.291" height="0.784"/>
		
			<rect x="137.729" y="97.77" transform="matrix(1 -0.0076 0.0076 1 -0.7383 1.0639)" fill="#040506" width="5.561" height="1.051"/>
		<rect x="138.023" y="98.053" fill="#040506" width="4.991" height="0.482"/>
		
			<rect x="137.427" y="97.69" transform="matrix(1 -0.0073 0.0073 1 -0.7103 1.0234)" fill="#040506" width="6.184" height="1.193"/>
		<rect x="137.71" y="97.98" transform="matrix(1 -0.0073 0.0073 1 -0.7147 1.0297)" fill="#040506" width="5.611" height="0.623"/>
		
			<rect x="137.572" y="97.844" transform="matrix(1 -0.0072 0.0072 1 -0.7058 1.0169)" fill="#040506" width="5.885" height="0.89"/>
		
			<rect x="137.87" y="98.13" transform="matrix(-1 0.0074 -0.0074 -1 281.7801 195.5317)" fill="#040506" width="5.313" height="0.32"/>
		<polygon fill="#040506" points="142.487,96.931 143.844,96.917 143.859,99.627 142.508,99.641 		"/>
		<rect x="142.77" y="97.209" transform="matrix(1 -0.01 0.01 1 -0.972 1.4311)" fill="#040506" width="0.784" height="2.14"/>
		
			<rect x="142.639" y="97.077" transform="matrix(1 -0.0084 0.0084 1 -0.8163 1.1998)" fill="#040506" width="1.052" height="2.409"/>
		
			<rect x="142.253" y="98.041" transform="matrix(-0.0069 -1 1 -0.0069 45.882 242.1289)" fill="#040506" width="1.837" height="0.48"/>
		
			<rect x="142.578" y="96.755" transform="matrix(1 -0.0065 0.0065 1 -0.6403 0.9394)" fill="#040506" width="1.193" height="3.031"/>
		<rect x="142.862" y="97.049" fill="#040506" width="0.622" height="2.461"/>
		<polygon fill="#040506" points="142.721,96.916 143.608,96.91 143.632,99.643 142.738,99.646 		"/>
		<rect x="143.015" y="97.198" fill="#040506" width="0.321" height="2.161"/>
		
			<rect x="125.211" y="103.378" transform="matrix(0.9999 -0.0101 0.0101 0.9999 -1.0522 1.2778)" fill="#040506" width="1.353" height="2.711"/>
		<rect x="125.48" y="103.656" transform="matrix(1 -0.01 0.01 1 -1.0383 1.2607)" fill="#040506" width="0.783" height="2.14"/>
		
			<rect x="125.343" y="103.526" transform="matrix(1 -0.0084 0.0084 1 -0.8708 1.0554)" fill="#040506" width="1.052" height="2.408"/>
		
			<rect x="124.956" y="104.489" transform="matrix(-0.0069 -1 1 -0.0069 22.0174 231.3253)" fill="#040506" width="1.837" height="0.48"/>
		
			<rect x="125.286" y="103.206" transform="matrix(1 -0.0066 0.0066 1 -0.6834 0.827)" fill="#040506" width="1.192" height="3.028"/>
		<rect x="125.569" y="103.499" fill="#040506" width="0.622" height="2.459"/>
		
			<rect x="125.428" y="103.363" transform="matrix(1 -0.0088 0.0088 1 -0.9138 1.1081)" fill="#040506" width="0.891" height="2.729"/>
		<rect x="125.719" y="103.65" fill="#040506" width="0.32" height="2.157"/>
		<polygon fill="#040506" points="125.604,98.94 131.459,98.901 131.472,100.253 125.61,100.294 		"/>
		
			<rect x="125.896" y="99.197" transform="matrix(1 -0.0066 0.0066 1 -0.6502 0.845)" fill="#040506" width="5.287" height="0.782"/>
		<rect x="125.759" y="99.064" transform="matrix(1 -0.007 0.007 1 -0.6972 0.9064)" fill="#040506" width="5.555" height="1.052"/>
		<rect x="126.042" y="99.357" fill="#040506" width="4.985" height="0.48"/>
		<rect x="125.2" y="98.262" transform="matrix(1 -0.004 0.004 1 -0.3946 0.5006)" fill="#040506" width="1.353" height="2.704"/>
		<rect x="125.489" y="98.544" fill="#040506" width="0.783" height="2.135"/>
		
			<rect x="125.349" y="98.403" transform="matrix(1 -0.0088 0.0088 1 -0.8737 1.1142)" fill="#040506" width="1.052" height="2.407"/>
		
			<rect x="124.956" y="99.374" transform="matrix(-0.0069 -1 1 -0.0069 27.1328 226.1742)" fill="#040506" width="1.835" height="0.48"/>
		<rect x="125.279" y="98.093" transform="matrix(1 -0.009 0.009 1 -0.8915 1.1371)" fill="#040506" width="1.193" height="3.032"/>
		
			<rect x="125.569" y="98.374" transform="matrix(1 -0.0086 0.0086 1 -0.8553 1.0905)" fill="#040506" width="0.622" height="2.46"/>
		
			<rect x="125.431" y="98.248" transform="matrix(1 -0.0066 0.0066 1 -0.6533 0.8312)" fill="#040506" width="0.89" height="2.728"/>
		<rect x="125.719" y="98.534" fill="#040506" width="0.32" height="2.158"/>
		<path fill="#040506" d="M123.169,184.076c-0.694,0-1.268-0.344-1.479-0.492l-0.252-0.173l0.06-0.329l0.654-0.821l0.221,0.149
			c0.327,0.222,0.569,0.305,0.777,0.305c0.177,0,0.321-0.061,0.444-0.185c0.293-0.343,0.011-2.354-0.141-3.433
			c-0.329-2.314-0.474-3.553,0.155-4.187c0.391-0.394,0.871-0.593,1.433-0.593c0.604,0,1.154,0.244,1.428,0.393l0.273,0.146
			l-0.022,0.34l-0.566,0.873l-0.229-0.118c-0.217-0.112-0.534-0.271-0.871-0.271c-0.207,0-0.364,0.06-0.479,0.18
			c-0.059,0.058-0.147,0.47,0.218,3.045c0.323,2.292,0.49,3.734-0.135,4.465C124.163,183.879,123.699,184.076,123.169,184.076z"/>
		<path fill="#040506" d="M123.169,183.791c-0.612,0-1.127-0.309-1.317-0.439l-0.132-0.091l0.489-0.612l0.116,0.08
			c0.266,0.178,0.563,0.273,0.823,0.273c0.249,0,0.469-0.089,0.646-0.27c0.366-0.426,0.178-1.977-0.062-3.674
			c-0.308-2.156-0.455-3.41,0.076-3.945c0.334-0.338,0.744-0.508,1.229-0.508c0.549,0,1.048,0.228,1.292,0.359l0.146,0.079
			l-0.424,0.657l-0.123-0.062c-0.136-0.072-0.491-0.238-0.878-0.238c-0.278,0-0.511,0.084-0.685,0.267
			c-0.143,0.146-0.254,0.519,0.141,3.283c0.312,2.22,0.466,3.612-0.069,4.241l-0.096,0.102
			C124.016,183.622,123.621,183.791,123.169,183.791z"/>
		<path fill="#040506" d="M123.167,183.924c-0.648,0-1.189-0.324-1.394-0.466l-0.255-0.175l0.667-0.813l0.214,0.145
			c0.243,0.163,0.516,0.255,0.746,0.255c0.217,0,0.398-0.076,0.554-0.236c0.323-0.369,0.127-1.956-0.1-3.554
			c-0.311-2.2-0.46-3.478,0.115-4.06c0.359-0.364,0.805-0.55,1.325-0.55c0.586,0,1.104,0.236,1.359,0.378l0.269,0.146l-0.57,0.882
			l-0.23-0.124c-0.124-0.066-0.451-0.225-0.811-0.225c-0.247,0-0.44,0.076-0.594,0.229c-0.162,0.167-0.106,1.144,0.18,3.169
			c0.319,2.258,0.473,3.68-0.102,4.348C124.091,183.738,123.65,183.924,123.167,183.924z"/>
		<path fill="#040506" d="M124.235,183.184c-0.76,0.772-1.768,0.406-2.299,0.041l0.308-0.373c0.418,0.278,1.132,0.521,1.659-0.021
			c0.019-0.017,0.037-0.037,0.057-0.051c0.33-0.39,0.23-1.564-0.076-3.741c-0.289-2.051-0.443-3.333,0.037-3.82
			c0.815-0.83,1.951-0.338,2.345-0.121l-0.263,0.403c-0.443-0.239-1.233-0.456-1.741,0.056c-0.19,0.196-0.302,0.569,0.101,3.409
			c0.3,2.117,0.456,3.548-0.035,4.123C124.297,183.122,124.265,183.154,124.235,183.184z"/>
		<path fill="#040506" d="M123.164,183.993c-0.63,0-1.229-0.302-1.579-0.584l-0.22-0.179l0.06-0.317l0.569-0.71l0.222,0.18
			c0.131,0.104,0.525,0.417,0.942,0.417c0.212,0,0.381-0.083,0.532-0.259c0.284-0.331-0.004-2.357-0.158-3.446
			c-0.287-2.022-0.494-3.485,0.135-4.122c0.358-0.371,0.838-0.564,1.383-0.564c0.601,0,1.191,0.242,1.545,0.47l0.24,0.156
			l-0.029,0.323l-0.494,0.762l-0.412-0.277c0.002,0.002,0.002,0.004,0.001,0.004c-0.012,0-0.43-0.246-0.854-0.246
			c-0.218,0-0.393,0.068-0.531,0.209c-0.199,0.28,0.066,2.17,0.194,3.077c0.294,2.087,0.52,3.692-0.113,4.435
			C124.123,183.805,123.676,183.993,123.164,183.993z"/>
		<path fill="#040506" d="M123.164,183.708c-0.553,0-1.085-0.269-1.398-0.521l-0.118-0.096l0.392-0.486l0.118,0.095
			c0.021,0.02,0.484,0.385,1.002,0.385c0.29,0,0.541-0.116,0.75-0.356c0.365-0.428,0.112-2.227-0.094-3.672
			c-0.266-1.877-0.474-3.349,0.056-3.884c0.311-0.317,0.71-0.479,1.18-0.479c0.54,0,1.072,0.221,1.39,0.426l0.127,0.084
			l-0.338,0.521l-0.126-0.084c-0.005-0.002-0.517-0.326-1.058-0.326c-0.293,0-0.541,0.099-0.732,0.291
			c-0.312,0.322-0.062,2.072,0.119,3.358c0.267,1.892,0.498,3.527-0.054,4.171l-0.087,0.1
			C123.974,183.55,123.596,183.708,123.164,183.708z"/>
		<path fill="#040506" d="M123.157,183.845c-0.586,0-1.146-0.284-1.477-0.552l-0.218-0.177l0.547-0.702l0.227,0.177
			c0.048,0.037,0.472,0.36,0.922,0.36c0.252,0,0.464-0.104,0.646-0.315c0.324-0.374,0.06-2.265-0.116-3.515
			c-0.276-1.958-0.49-3.46,0.086-4.048c0.334-0.339,0.773-0.517,1.275-0.517c0.573,0,1.132,0.233,1.465,0.451l0.237,0.155
			l-0.479,0.739l-0.238-0.147c-0.052-0.032-0.517-0.31-0.988-0.31c-0.261,0-0.468,0.084-0.636,0.256
			c-0.27,0.271,0.006,2.201,0.152,3.24c0.274,1.932,0.508,3.586-0.082,4.276C124.049,183.665,123.624,183.845,123.157,183.845z"/>
		<path fill="#040506" d="M124.181,183.122c-0.789,0.802-1.854,0.327-2.32-0.052l0.199-0.256c0.05,0.041,1.17,0.925,1.962,0.009
			c0.413-0.478,0.159-2.243-0.059-3.798c-0.248-1.75-0.461-3.267,0.015-3.75c0.748-0.76,1.884-0.354,2.381-0.028l-0.173,0.269
			c-0.015-0.009-1.228-0.779-1.979-0.013c-0.364,0.37-0.133,2.021,0.075,3.479c0.251,1.777,0.491,3.459-0.018,4.055
			C124.235,183.066,124.212,183.096,124.181,183.122z"/>
		<path fill="#040506" d="M146.983,183.911c-0.579,0-1.073-0.231-1.473-0.688c-0.637-0.719-0.488-2.16-0.194-4.451
			c0.329-2.586,0.231-2.996,0.173-3.054c-0.118-0.116-0.271-0.173-0.469-0.173c-0.337,0-0.665,0.163-0.756,0.214l-0.229,0.124
			l-0.265-0.15l-0.603-0.912l0.27-0.148c0.412-0.232,0.964-0.492,1.592-0.492c0.551,0,1.024,0.194,1.412,0.578
			c0.635,0.621,0.513,1.861,0.219,4.186c-0.119,0.924-0.397,3.089-0.134,3.388c0.131,0.149,0.283,0.22,0.47,0.22
			c0.319,0,0.615-0.197,0.673-0.238l0.216-0.152l0.282,0.128l0.7,0.84l-0.255,0.179C148.265,183.55,147.688,183.911,146.983,183.911
			z"/>
		<path fill="#040506" d="M146.983,183.625c-0.488,0-0.914-0.197-1.257-0.59c-0.545-0.616-0.412-2.01-0.126-4.23
			c0.354-2.771,0.236-3.146,0.089-3.291c-0.173-0.169-0.397-0.256-0.669-0.256c-0.39,0-0.755,0.174-0.893,0.248l-0.12,0.068
			l-0.433-0.654l0.142-0.079c0.251-0.142,0.751-0.378,1.312-0.378c0.473,0,0.881,0.167,1.212,0.496
			c0.543,0.53,0.407,1.781,0.136,3.947c-0.219,1.697-0.389,3.246-0.063,3.611c0.186,0.213,0.415,0.316,0.684,0.316
			c0.373,0,0.71-0.2,0.837-0.291l0.113-0.074l0.504,0.602l-0.136,0.095C148.119,183.305,147.604,183.625,146.983,183.625z"/>
		<path fill="#040506" d="M146.986,183.761c-0.522,0-0.993-0.22-1.359-0.634c-0.582-0.657-0.449-2.076-0.16-4.337
			c0.257-2.033,0.298-3.015,0.131-3.177c-0.149-0.147-0.336-0.221-0.572-0.221c-0.355,0-0.701,0.164-0.833,0.233l-0.229,0.122
			l-0.579-0.869l0.266-0.15c0.262-0.147,0.785-0.397,1.381-0.397c0.509,0,0.946,0.179,1.306,0.533
			c0.584,0.575,0.454,1.852,0.175,4.056c-0.151,1.184-0.405,3.164-0.096,3.514c0.161,0.181,0.351,0.269,0.579,0.269
			c0.335,0,0.644-0.187,0.762-0.267l0.215-0.146l0.674,0.809l-0.25,0.178C148.189,183.421,147.643,183.761,146.986,183.761z"/>
		<path fill="#040506" d="M148.228,183.043c-0.552,0.393-1.605,0.777-2.388-0.105c-0.503-0.566-0.361-1.998-0.091-4.113
			c0.36-2.852,0.243-3.225,0.048-3.417c-0.529-0.523-1.336-0.248-1.74-0.033l-0.266-0.399c0.386-0.22,1.513-0.729,2.343,0.092
			c0.49,0.482,0.353,1.765,0.093,3.817c-0.277,2.183-0.357,3.359-0.026,3.737c0.543,0.611,1.297,0.336,1.718,0.049L148.228,183.043z
			"/>
		<path fill="#040506" d="M146.986,183.828c-0.558,0-1.032-0.221-1.415-0.652c-0.643-0.734-0.438-2.346-0.179-4.386
			c0.119-0.942,0.361-2.849,0.151-3.138c-0.13-0.123-0.3-0.188-0.516-0.188c-0.451,0-0.902,0.287-0.907,0.289l-0.236,0.157
			l-0.288-0.153l-0.502-0.75l0.232-0.159c0.303-0.203,0.933-0.576,1.694-0.576c0.539,0,0.998,0.183,1.363,0.545
			c0.64,0.627,0.451,2.091,0.191,4.115c-0.141,1.098-0.396,3.129-0.112,3.453c0.155,0.174,0.327,0.26,0.525,0.26
			c0.412,0,0.816-0.332,0.819-0.334l0.222-0.192l0.307,0.124l0.58,0.705l-0.225,0.182
			C148.23,183.511,147.626,183.828,146.986,183.828z"/>
		<path fill="#040506" d="M146.986,183.542c-0.469,0-0.874-0.185-1.199-0.556c-0.558-0.635-0.352-2.271-0.111-4.162
			c0.165-1.292,0.392-3.053,0.074-3.37c-0.19-0.185-0.434-0.277-0.721-0.277c-0.534,0-1.05,0.324-1.069,0.341l-0.125,0.078
			l-0.346-0.515l0.124-0.085c0.319-0.21,0.858-0.441,1.409-0.441c0.46,0,0.853,0.152,1.163,0.461
			c0.537,0.529,0.35,2.008,0.109,3.879c-0.186,1.455-0.415,3.254-0.044,3.676c0.207,0.234,0.457,0.356,0.739,0.356
			c0.525,0,1.005-0.401,1.009-0.405l0.117-0.103l0.397,0.483l-0.116,0.095C148.082,183.264,147.544,183.542,146.986,183.542z"/>
		<path fill="#040506" d="M146.986,183.68c-0.501,0-0.95-0.209-1.302-0.605c-0.601-0.676-0.387-2.344-0.141-4.272
			c0.135-1.042,0.383-2.976,0.108-3.243c-0.168-0.164-0.373-0.246-0.627-0.246c-0.418,0-0.856,0.229-0.991,0.316l-0.234,0.154
			l-0.501-0.735l0.239-0.159c0.34-0.227,0.905-0.466,1.483-0.466c0.489,0,0.925,0.173,1.256,0.501
			c0.588,0.574,0.395,2.082,0.15,3.99c-0.162,1.275-0.406,3.193-0.075,3.568c0.185,0.207,0.394,0.307,0.639,0.307
			c0.472,0,0.91-0.361,0.915-0.365l0.222-0.189l0.576,0.689l-0.219,0.182C148.151,183.382,147.581,183.68,146.986,183.68z"/>
		<path fill="#040506" d="M148.304,182.884c-0.478,0.397-1.598,0.914-2.405,0c-0.514-0.579-0.298-2.267-0.069-4.048
			c0.187-1.463,0.397-3.118,0.023-3.482c-0.764-0.754-1.965,0.028-1.976,0.037l-0.181-0.266c0.492-0.329,1.622-0.751,2.381,0
			c0.485,0.477,0.293,1.993,0.066,3.752c-0.195,1.557-0.422,3.32-0.005,3.792c0.805,0.909,1.91,0.008,1.957-0.035L148.304,182.884z"
			/>
	</g>
	<path fill="#040506" d="M233.461,200.823l-6.748-30.146l-5.724,0.045l-6.631,30.055l-11.256,0.046l6.635-30.169l-25.991,0.07
		c-2.188,0-3.972-1.783-3.972-3.974v-60.2c0-2.191,1.782-3.973,3.972-3.973h80.269c2.19,0,3.971,1.782,3.971,3.973v60.2
		c0,2.19-1.779,3.974-3.971,3.974h-26.041l6.761,30.1L233.461,200.823L233.461,200.823z M204.584,199.633l8.81-0.068l6.371-28.91
		l-8.761,0.068L204.584,199.633z M234.424,199.609l8.812-0.045l-6.487-28.887l-8.738,0.045L234.424,199.609z M246.193,162.777
		l0.059,6.744l17.764-0.057c1.497,0,2.715-1.219,2.715-2.715v-60.2c0-1.498-1.218-2.716-2.715-2.716h-80.269
		c-1.495,0-2.716,1.218-2.716,2.716v60.2c0,1.496,1.221,2.715,2.716,2.715h17.825l-0.057-6.688H246.193z M202.771,169.521
		l42.276-0.057l-0.058-5.486l-42.22,0.057L202.771,169.521L202.771,169.521z"/>
	<path fill="#040506" d="M233.461,200.766l-6.691-30.1h-5.778l-6.687,30.1h-11.201l6.689-30.1h-26.047
		c-2.158,0-3.913-1.757-3.913-3.916v-60.2c0-2.159,1.755-3.916,3.913-3.916h80.269c2.158,0,3.915,1.757,3.915,3.916v60.2
		c0,2.159-1.757,3.916-3.915,3.916h-26.041l6.69,30.1H233.461z M234.369,199.622h8.866l-6.434-28.956h-8.864L234.369,199.622z
		 M204.529,199.622h8.864l6.426-28.956h-8.859L204.529,199.622z M246.193,169.521h17.821c1.53,0,2.772-1.241,2.772-2.771v-60.2
		c0-1.529-1.242-2.773-2.772-2.773h-80.269c-1.528,0-2.771,1.244-2.771,2.773v60.2c0,1.53,1.242,2.771,2.771,2.771h17.825v-6.688
		h44.621L246.193,169.521L246.193,169.521z M202.714,169.521h42.334v-5.543h-42.334V169.521z"/>
	<path fill="#040506" d="M227.233,156.242c-0.862-0.11-1.511-0.364-2.053-0.751c-0.275-0.21-0.596-0.339-0.929-0.372
		c-0.267-0.049-0.518-0.073-0.771-0.073c-0.179,0-0.357,0.013-0.536,0.035c-0.248,0.03-0.495,0.042-0.735,0.042
		c-0.399,0-0.792-0.035-1.162-0.102c-0.634-0.096-1.249-0.287-1.831-0.562c-0.391-0.191-0.807-0.32-1.232-0.381
		c-0.264-0.051-0.521-0.075-0.775-0.075c-0.183,0-0.36,0.013-0.536,0.035c-0.251,0.028-0.498,0.04-0.738,0.04
		c-0.398,0-0.789-0.035-1.159-0.102c-0.679-0.093-1.323-0.347-1.86-0.731c-0.27-0.205-0.587-0.332-0.926-0.37
		c-0.643-0.146-1.044-0.709-0.956-1.342c0.086-0.588,0.597-1.032,1.187-1.032c0.838,0.101,1.475,0.353,2.013,0.739
		c0.27,0.208,0.584,0.336,0.919,0.371c0.269,0.048,0.523,0.072,0.781,0.072c0.173,0,0.348-0.011,0.519-0.033
		c0.241-0.024,0.479-0.035,0.72-0.035c1.038,0,2.082,0.23,3.021,0.665c0.629,0.291,1.33,0.444,2.027,0.444
		c0.166,0,0.335-0.009,0.502-0.025c0.249-0.027,0.496-0.04,0.741-0.04c0.399,0,0.793,0.036,1.165,0.103
		c0.675,0.088,1.318,0.342,1.864,0.731c0.277,0.21,0.602,0.339,0.932,0.372c0.585,0.113,0.994,0.595,1,1.175
		c0,0.323-0.124,0.624-0.351,0.853c-0.223,0.221-0.516,0.346-0.824,0.352h-0.003h-0.011V156.242z M223.481,154.363
		c0.299,0,0.592,0.027,0.867,0.078c0.431,0.043,0.873,0.219,1.241,0.498c0.44,0.318,0.969,0.526,1.521,0.6l0.183,0.352l-0.121-0.272
		c0.188-0.062,0.312-0.114,0.41-0.212c0.098-0.1,0.151-0.227,0.151-0.364c-0.001-0.244-0.176-0.454-0.415-0.503
		c-0.427-0.039-0.867-0.214-1.236-0.493c-0.447-0.321-0.976-0.528-1.525-0.603c-0.388-0.068-0.739-0.101-1.099-0.101
		c-0.222,0-0.444,0.013-0.668,0.036c-0.19,0.021-0.388,0.029-0.575,0.029c-0.796,0-1.596-0.174-2.313-0.508
		c-0.852-0.394-1.797-0.602-2.734-0.602c-0.217,0-0.431,0.01-0.642,0.032c-0.192,0.024-0.396,0.036-0.597,0.036
		c-0.302,0-0.597-0.026-0.878-0.077c-0.43-0.045-0.868-0.222-1.23-0.499c-0.441-0.316-0.972-0.525-1.525-0.598
		c-0.007,0-0.013,0-0.02,0c-0.319,0-0.531,0.188-0.564,0.436c-0.038,0.262,0.134,0.514,0.393,0.575
		c0.422,0.042,0.857,0.218,1.217,0.489c0.442,0.318,0.968,0.526,1.521,0.6c0.388,0.07,0.736,0.102,1.093,0.102
		c0.216,0,0.438-0.012,0.654-0.035c0.197-0.026,0.408-0.039,0.62-0.039c0.299,0,0.6,0.027,0.889,0.08
		c0.495,0.076,0.973,0.225,1.421,0.445c0.518,0.245,1.064,0.415,1.622,0.497c0.362,0.067,0.714,0.099,1.07,0.099
		c0.213,0,0.434-0.012,0.65-0.036C223.06,154.375,223.275,154.363,223.481,154.363z"/>
	<path fill="#040506" d="M227.233,156.186h-0.01c-0.058-0.002-0.112-0.01-0.163-0.021c-0.685-0.09-1.312-0.34-1.847-0.722
		c-0.284-0.217-0.613-0.346-0.955-0.381c-0.267-0.049-0.52-0.073-0.777-0.073c-0.18,0-0.364,0.012-0.544,0.036
		c-0.244,0.029-0.488,0.041-0.729,0.041c-0.396,0-0.783-0.036-1.153-0.104c-0.631-0.094-1.237-0.281-1.813-0.556
		c-0.395-0.193-0.814-0.325-1.25-0.388c-0.265-0.051-0.524-0.074-0.784-0.074c-0.185,0-0.366,0.012-0.545,0.035
		c-0.245,0.027-0.491,0.039-0.729,0.039c-0.396,0-0.78-0.035-1.148-0.103c-0.68-0.092-1.307-0.34-1.839-0.722
		c-0.279-0.213-0.605-0.34-0.951-0.379c-0.614-0.141-0.987-0.688-0.906-1.277c0.083-0.561,0.566-0.982,1.13-0.982
		c0.055,0,0.112,0.004,0.166,0.012c0.651,0.086,1.281,0.334,1.812,0.718c0.28,0.216,0.604,0.344,0.946,0.381
		c0.268,0.047,0.524,0.071,0.787,0.071c0.174,0,0.353-0.01,0.526-0.032c0.236-0.024,0.473-0.035,0.711-0.035
		c1.028,0,2.066,0.229,2.999,0.659c0.637,0.295,1.344,0.45,2.05,0.45c0.167,0,0.338-0.009,0.508-0.025
		c0.248-0.026,0.493-0.04,0.735-0.04c0.396,0,0.786,0.035,1.154,0.102c0.677,0.09,1.307,0.339,1.842,0.723
		c0.288,0.216,0.616,0.346,0.959,0.381c0.557,0.107,0.943,0.576,0.947,1.118c0,0.308-0.116,0.594-0.333,0.812
		c-0.21,0.209-0.489,0.33-0.786,0.336H227.233z M223.481,154.419c0.295,0,0.584,0.028,0.857,0.079
		c0.422,0.041,0.852,0.21,1.215,0.484c0.45,0.324,0.989,0.537,1.552,0.611l0.013,0.002l0.063,0.01l0.055,0.293l-0.006-0.285
		c0.15-0.002,0.287-0.062,0.395-0.168c0.109-0.11,0.169-0.254,0.169-0.405c-0.002-0.269-0.196-0.505-0.462-0.558
		c-0.419-0.041-0.85-0.209-1.213-0.484c-0.456-0.326-0.994-0.539-1.555-0.613c-0.389-0.068-0.742-0.1-1.104-0.1
		c-0.225,0-0.448,0.012-0.673,0.035c-0.189,0.021-0.385,0.029-0.57,0.029c-0.787,0-1.579-0.174-2.291-0.502
		c-0.856-0.396-1.811-0.606-2.758-0.606c-0.219,0-0.436,0.01-0.646,0.03c-0.191,0.025-0.394,0.037-0.591,0.037
		c-0.297,0-0.589-0.026-0.868-0.078c-0.424-0.041-0.849-0.213-1.205-0.486c-0.45-0.322-0.989-0.535-1.555-0.609
		c-0.031-0.004-0.058-0.008-0.085-0.008c-0.281,0-0.524,0.212-0.563,0.493c-0.042,0.289,0.151,0.569,0.438,0.637
		c0.414,0.043,0.839,0.21,1.195,0.479c0.449,0.324,0.985,0.537,1.547,0.611c0.39,0.07,0.74,0.103,1.101,0.103
		c0.219,0,0.44-0.013,0.66-0.036c0.197-0.027,0.403-0.04,0.614-0.04c0.294,0,0.591,0.028,0.878,0.081
		c0.483,0.072,0.962,0.22,1.406,0.438c0.522,0.25,1.071,0.42,1.64,0.504c0.364,0.066,0.718,0.099,1.078,0.099
		c0.215,0,0.437-0.013,0.657-0.038C223.065,154.432,223.277,154.419,223.481,154.419z"/>
	<path fill="#040506" d="M190.392,134.541c-0.405,0-0.78-0.202-1.002-0.539c-0.178-0.27-0.238-0.589-0.173-0.902
		c0.062-0.312,0.245-0.582,0.512-0.759c0.588-0.447,1.249-0.715,1.963-0.794c0.345-0.021,0.66-0.146,0.914-0.357
		c0.265-0.185,0.483-0.38,0.68-0.6l0.251-0.303c0.814-1.083,1.927-1.877,3.214-2.298c0.832-0.265,1.55-0.777,2.074-1.482
		c0.396-0.545,0.877-1.012,1.425-1.388c0.575-0.438,1.251-0.713,1.955-0.79c0.342-0.024,0.668-0.151,0.917-0.362
		c0.215-0.148,0.446-0.221,0.689-0.221c0.393,0,0.758,0.187,0.981,0.5c0.186,0.263,0.258,0.58,0.207,0.896
		c-0.055,0.308-0.22,0.577-0.465,0.76c-0.599,0.456-1.27,0.723-1.97,0.802c-0.345,0.02-0.671,0.146-0.925,0.358
		c-0.377,0.261-0.679,0.557-0.922,0.906c-0.824,1.085-1.937,1.879-3.219,2.297c-0.833,0.269-1.549,0.78-2.069,1.479
		c-0.398,0.546-0.879,1.014-1.426,1.389c-0.569,0.436-1.246,0.708-1.952,0.788c-0.348,0.02-0.67,0.147-0.932,0.368
		C190.855,134.473,190.628,134.541,190.392,134.541z M193.708,131.142c-0.204,0.216-0.435,0.416-0.688,0.594
		c-0.342,0.284-0.806,0.465-1.271,0.495c-0.568,0.063-1.114,0.282-1.579,0.634c-0.179,0.125-0.257,0.239-0.286,0.374
		c-0.026,0.134,0,0.271,0.074,0.388c0.097,0.144,0.258,0.23,0.433,0.23c0.1,0,0.199-0.029,0.281-0.083
		c0.372-0.315,0.844-0.505,1.322-0.534c0.568-0.062,1.112-0.282,1.575-0.634c0.521-0.36,0.948-0.774,1.312-1.266
		c0.608-0.817,1.441-1.414,2.406-1.725c1.149-0.376,2.146-1.085,2.876-2.05c0.289-0.408,0.646-0.762,1.062-1.047
		c0.343-0.286,0.811-0.469,1.28-0.497c0.562-0.062,1.112-0.283,1.586-0.639c0.127-0.096,0.205-0.214,0.228-0.354
		c0.024-0.135-0.007-0.268-0.09-0.384c-0.092-0.132-0.253-0.213-0.421-0.213c-0.101,0-0.195,0.028-0.278,0.082
		c-0.332,0.283-0.797,0.466-1.269,0.5c-0.572,0.063-1.118,0.283-1.578,0.636c-0.524,0.359-0.954,0.773-1.312,1.266
		c-0.611,0.822-1.445,1.419-2.412,1.727c-1.152,0.376-2.147,1.088-2.878,2.059l-0.263,0.346L193.708,131.142z"/>
	<path fill="#040506" d="M190.392,134.484c-0.388,0-0.742-0.192-0.956-0.513c-0.167-0.256-0.225-0.561-0.164-0.858
		c0.062-0.299,0.235-0.556,0.489-0.724c0.584-0.444,1.242-0.708,1.937-0.784c0.354-0.023,0.686-0.153,0.945-0.371
		c0.267-0.187,0.49-0.386,0.686-0.605l0.087-0.097h0.009l0.158-0.21c0.809-1.075,1.912-1.862,3.187-2.278
		c0.841-0.269,1.568-0.788,2.102-1.502c0.394-0.54,0.868-1.003,1.412-1.375c0.575-0.439,1.234-0.704,1.929-0.781
		c0.356-0.024,0.688-0.157,0.949-0.374c0.207-0.143,0.425-0.208,0.651-0.208c0.372,0,0.723,0.178,0.936,0.477
		c0.176,0.251,0.245,0.552,0.195,0.854c-0.051,0.295-0.206,0.549-0.439,0.723l-0.031,0.027c-0.561,0.424-1.221,0.687-1.91,0.764
		c-0.358,0.02-0.691,0.152-0.956,0.371c-0.379,0.263-0.687,0.566-0.932,0.918c-0.818,1.076-1.917,1.86-3.189,2.276
		c-0.843,0.272-1.567,0.79-2.098,1.499c-0.395,0.542-0.871,1.006-1.411,1.376c-0.574,0.438-1.232,0.701-1.927,0.778
		c-0.36,0.021-0.696,0.156-0.963,0.382l-0.016,0.011l-0.051,0.038C190.834,134.419,190.618,134.484,190.392,134.484z
		 M193.666,131.102c-0.201,0.215-0.431,0.412-0.679,0.586c-0.334,0.278-0.781,0.456-1.241,0.485
		c-0.577,0.064-1.139,0.289-1.609,0.646l-0.009,0.006l-0.052,0.042c-0.13,0.083-0.216,0.211-0.247,0.361
		c-0.028,0.148,0,0.302,0.083,0.429c0.105,0.16,0.284,0.257,0.479,0.257c0.112,0,0.223-0.034,0.312-0.092
		c0.371-0.315,0.827-0.498,1.296-0.525c0.576-0.063,1.136-0.288,1.604-0.646c0.533-0.369,0.962-0.788,1.322-1.278
		c0.602-0.807,1.423-1.396,2.378-1.704c1.16-0.379,2.164-1.095,2.903-2.07c0.28-0.398,0.636-0.75,1.05-1.035
		c0.336-0.281,0.789-0.459,1.253-0.487c0.572-0.062,1.137-0.289,1.616-0.651c0.142-0.104,0.224-0.236,0.251-0.389
		c0.025-0.15-0.01-0.3-0.101-0.427c-0.104-0.148-0.28-0.237-0.469-0.237c-0.113,0-0.22,0.032-0.31,0.092
		c-0.327,0.277-0.777,0.457-1.241,0.489c-0.58,0.064-1.141,0.289-1.609,0.648c-0.537,0.368-0.966,0.787-1.322,1.277
		c-0.605,0.813-1.431,1.401-2.386,1.707c-1.159,0.379-2.166,1.098-2.904,2.078l-0.244,0.324l-0.087,0.114H193.666L193.666,131.102z"
		/>
	<path fill="#040506" d="M253.791,124.454c-0.678-0.091-1.319-0.342-1.858-0.729c-0.271-0.207-0.593-0.335-0.935-0.372
		c-0.278-0.05-0.53-0.073-0.77-0.073c-0.179,0-0.358,0.015-0.536,0.037c-0.244,0.028-0.492,0.042-0.736,0.042
		c-0.385,0-0.772-0.035-1.157-0.104c-0.645-0.097-1.259-0.287-1.831-0.562c-0.383-0.189-0.798-0.318-1.233-0.383
		c-0.261-0.05-0.516-0.074-0.774-0.074c-0.179,0-0.36,0.011-0.536,0.035c-0.248,0.029-0.492,0.043-0.738,0.043
		c-0.39,0-0.779-0.036-1.158-0.106c-0.672-0.088-1.315-0.34-1.86-0.731l-0.199-0.142l-0.738-0.235
		c-0.376-0.07-0.647-0.252-0.826-0.516s-0.244-0.584-0.186-0.899c0.111-0.563,0.606-0.971,1.178-0.971
		c0.073,0,0.147,0.005,0.222,0.019c0.694,0.094,1.322,0.341,1.869,0.733c0.268,0.206,0.584,0.335,0.916,0.372
		c0.273,0.047,0.528,0.071,0.776,0.071c0.175,0,0.348-0.011,0.521-0.034c0.244-0.023,0.482-0.034,0.72-0.034
		c1.033,0,2.076,0.228,3.013,0.658c0.395,0.192,0.812,0.322,1.239,0.386c0.259,0.05,0.513,0.075,0.773,0.075
		c0.182,0,0.361-0.014,0.539-0.036c0.242-0.029,0.487-0.041,0.733-0.041c0.393,0,0.783,0.034,1.163,0.102
		c0.677,0.09,1.323,0.344,1.863,0.733c0.274,0.208,0.599,0.336,0.935,0.369c0.59,0.118,0.996,0.602,0.996,1.179
		c0.003,0.318-0.119,0.619-0.343,0.848c-0.229,0.228-0.529,0.354-0.849,0.354L253.791,124.454z M250.229,122.596
		c0.279,0,0.568,0.027,0.868,0.08c0.439,0.046,0.882,0.224,1.241,0.5c0.445,0.316,0.972,0.523,1.524,0.596l0.167,0.336l-0.11-0.264
		c0.191-0.058,0.322-0.112,0.419-0.21c0.098-0.098,0.15-0.227,0.148-0.362c0-0.245-0.176-0.457-0.415-0.504
		c-0.431-0.042-0.871-0.218-1.237-0.497c-0.448-0.32-0.976-0.528-1.524-0.6c-0.391-0.069-0.744-0.101-1.096-0.101
		c-0.219,0-0.438,0.012-0.653,0.038c-0.203,0.025-0.411,0.04-0.619,0.04c-0.307,0-0.604-0.029-0.891-0.085
		c-0.489-0.073-0.967-0.221-1.417-0.441c-0.842-0.387-1.782-0.592-2.719-0.592c-0.213,0-0.433,0.01-0.645,0.03
		c-0.189,0.023-0.394,0.037-0.596,0.037c-0.288,0-0.582-0.026-0.875-0.078c-0.439-0.05-0.865-0.223-1.227-0.5
		c-0.441-0.318-0.968-0.525-1.519-0.598c-0.02-0.001-0.04-0.002-0.059-0.002c-0.369,0-0.565,0.17-0.611,0.4
		c-0.024,0.135,0.004,0.271,0.08,0.386c0.078,0.114,0.195,0.19,0.326,0.215l1.543,0.226l-0.133,0.433
		c0.417,0.209,0.893,0.386,1.39,0.45c0.396,0.072,0.745,0.104,1.091,0.104c0.219,0,0.436-0.014,0.653-0.04
		c0.198-0.027,0.415-0.039,0.621-0.039c0.303,0,0.603,0.027,0.893,0.084c0.493,0.073,0.972,0.222,1.417,0.443
		c0.508,0.244,1.054,0.412,1.622,0.497c0.372,0.067,0.724,0.099,1.065,0.099c0.221,0,0.439-0.014,0.658-0.037
		C249.815,122.612,250.023,122.596,250.229,122.596z"/>
	<path fill="#040506" d="M253.981,124.414h-0.002c-0.06,0-0.122-0.006-0.179-0.017c-0.675-0.091-1.305-0.338-1.835-0.719
		c-0.281-0.214-0.611-0.345-0.961-0.382c-0.279-0.05-0.533-0.074-0.775-0.074c-0.181,0-0.362,0.015-0.542,0.037
		c-0.244,0.028-0.489,0.042-0.73,0.042c-0.379,0-0.768-0.035-1.147-0.103c-0.642-0.097-1.249-0.284-1.814-0.557
		c-0.39-0.192-0.809-0.321-1.25-0.387c-0.262-0.051-0.521-0.076-0.784-0.076c-0.183,0-0.366,0.011-0.545,0.035
		c-0.244,0.03-0.486,0.043-0.729,0.043c-0.385,0-0.771-0.036-1.146-0.105c-0.676-0.087-1.304-0.335-1.839-0.721l-0.197-0.141
		l0.016-0.133l-0.781-0.112l-0.014-0.001l-0.058-0.013c-0.282-0.052-0.545-0.222-0.715-0.478c-0.173-0.253-0.233-0.556-0.178-0.857
		c0.106-0.537,0.578-0.925,1.121-0.925c0.069,0,0.142,0.005,0.211,0.018c0.688,0.094,1.313,0.341,1.848,0.724
		c0.276,0.213,0.6,0.344,0.942,0.384c0.273,0.047,0.53,0.07,0.782,0.07c0.178,0,0.354-0.011,0.526-0.034
		c0.241-0.023,0.479-0.033,0.713-0.033c1.026,0,2.06,0.227,2.989,0.653c0.396,0.194,0.815,0.326,1.255,0.39
		c0.26,0.051,0.517,0.076,0.781,0.076c0.184,0,0.365-0.014,0.545-0.035c0.239-0.03,0.482-0.042,0.729-0.042
		c0.39,0,0.777,0.034,1.153,0.1c0.677,0.091,1.306,0.339,1.84,0.724c0.285,0.216,0.615,0.346,0.962,0.381
		c0.56,0.112,0.944,0.582,0.944,1.121c0.003,0.302-0.112,0.59-0.327,0.807C254.57,124.292,254.285,124.414,253.981,124.414z
		 M250.229,122.653c0.275,0,0.562,0.027,0.857,0.079c0.433,0.046,0.86,0.216,1.217,0.489c0.45,0.321,0.989,0.534,1.554,0.608
		l0.122,0.301l-0.003-0.286c0.154,0,0.296-0.061,0.403-0.17c0.107-0.109,0.168-0.251,0.165-0.404c0-0.271-0.192-0.506-0.46-0.56
		c-0.423-0.041-0.854-0.21-1.214-0.485c-0.456-0.325-0.994-0.539-1.553-0.613c-0.394-0.069-0.749-0.1-1.104-0.1
		c-0.221,0-0.441,0.011-0.659,0.037c-0.2,0.025-0.406,0.039-0.613,0.039c-0.303,0-0.598-0.028-0.879-0.083
		c-0.483-0.072-0.96-0.219-1.403-0.437c-0.848-0.39-1.799-0.599-2.743-0.599c-0.215,0-0.436,0.009-0.649,0.03
		c-0.188,0.024-0.389,0.037-0.59,0.037c-0.285,0-0.576-0.026-0.865-0.077c-0.428-0.049-0.849-0.219-1.2-0.489
		c-0.449-0.322-0.987-0.534-1.546-0.609l-0.016-0.002l-0.062-0.012c-0.021-0.003-0.055-0.006-0.094-0.006
		c-0.271,0-0.509,0.196-0.561,0.464c-0.027,0.149,0.003,0.302,0.088,0.427c0.086,0.127,0.216,0.213,0.363,0.24l0.015,0.002
		l0.056,0.014l1.084,0.154l0.393,0.056l-0.179,0.352c0.448,0.291,0.936,0.468,1.435,0.533c0.396,0.072,0.749,0.104,1.099,0.104
		c0.221,0,0.439-0.014,0.659-0.04c0.198-0.026,0.41-0.039,0.615-0.039c0.299,0,0.596,0.027,0.881,0.083
		c0.487,0.072,0.965,0.22,1.403,0.438c0.513,0.247,1.062,0.415,1.639,0.501c0.375,0.068,0.729,0.1,1.074,0.1
		c0.223,0,0.443-0.014,0.665-0.038C249.818,122.669,250.026,122.653,250.229,122.653z"/>
	<path fill="#040506" d="M253.981,145.641c-2.189,0-3.974-1.783-3.974-3.974s1.783-3.974,3.974-3.974
		c2.189,0,3.973,1.783,3.973,3.974S256.171,145.641,253.981,145.641z M253.981,138.95c-1.498,0-2.717,1.219-2.717,2.717
		c0,1.496,1.219,2.713,2.717,2.713s2.716-1.217,2.716-2.713C256.697,140.169,255.479,138.95,253.981,138.95z"/>
	<path fill="#040506" d="M253.981,145.583c-2.159,0-3.916-1.757-3.916-3.916c0-2.16,1.757-3.916,3.916-3.916
		c2.158,0,3.916,1.756,3.916,3.916C257.897,143.826,256.14,145.583,253.981,145.583z M253.981,138.893
		c-1.529,0-2.773,1.244-2.773,2.774c0,1.528,1.244,2.771,2.773,2.771s2.773-1.242,2.773-2.771
		C256.755,140.137,255.511,138.893,253.981,138.893z"/>
	<path fill="#040506" d="M190.437,164.035c-2.189,0-3.973-1.783-3.973-3.973c0-2.19,1.782-3.974,3.973-3.974
		c2.191,0,3.975,1.783,3.975,3.974C194.411,162.252,192.627,164.035,190.437,164.035z M190.437,157.345
		c-1.498,0-2.717,1.22-2.717,2.718c0,1.496,1.219,2.713,2.717,2.713c1.496,0,2.715-1.217,2.715-2.713
		C193.151,158.564,191.933,157.345,190.437,157.345z"/>
	<path fill="#040506" d="M190.437,163.979c-2.158,0-3.916-1.758-3.916-3.916s1.758-3.916,3.916-3.916s3.916,1.758,3.916,3.916
		S192.595,163.979,190.437,163.979z M190.437,157.288c-1.527,0-2.771,1.244-2.771,2.774c0,1.527,1.244,2.77,2.771,2.77
		c1.53,0,2.772-1.242,2.772-2.77C193.209,158.532,191.967,157.288,190.437,157.288z"/>
	<path fill="#040506" d="M220.536,117.213c-2.191,0-3.975-1.783-3.975-3.975c0-2.191,1.782-3.973,3.975-3.973
		c2.189,0,3.974,1.782,3.974,3.973C224.51,115.43,222.727,117.213,220.536,117.213z M220.536,110.523
		c-1.498,0-2.717,1.218-2.717,2.715c0,1.498,1.219,2.715,2.717,2.715s2.718-1.217,2.718-2.715
		C223.254,111.741,222.034,110.523,220.536,110.523z"/>
	<path fill="#040506" d="M220.536,117.156c-2.16,0-3.917-1.757-3.917-3.918c0-2.159,1.757-3.916,3.917-3.916
		c2.159,0,3.916,1.757,3.916,3.916C224.452,115.398,222.696,117.156,220.536,117.156z M220.536,110.466
		c-1.528,0-2.772,1.244-2.772,2.772c0,1.529,1.244,2.771,2.772,2.771c1.529,0,2.773-1.243,2.773-2.771
		C223.311,111.709,222.066,110.466,220.536,110.466z"/>
	<path fill="#040506" d="M186.521,117.211l-0.057-7.89l7.889-0.057l0.059,7.947H186.521z M187.722,116.01l5.487-0.057l-0.059-5.487
		l-5.43,0.056L187.722,116.01L187.722,116.01z"/>
	<path fill="#040506" d="M186.521,117.154v-7.832h7.832v7.832H186.521z M187.665,116.01h5.544v-5.544h-5.544V116.01z"/>
	<path fill="#040506" d="M253.409,164.033l-0.058-7.889l7.89-0.058l0.057,7.946H253.409z M254.609,162.834l5.488-0.057l-0.058-5.489
		l-5.432,0.057L254.609,162.834L254.609,162.834z"/>
	<path fill="#040506" d="M253.409,163.977v-7.832h7.832v7.832H253.409z M254.554,162.834h5.544v-5.546h-5.544V162.834
		L254.554,162.834z"/>
	<path fill="#040506" d="M204.061,142.294c-0.283,0-0.532-0.19-0.604-0.462c-0.171-0.607-0.263-1.225-0.27-1.837
		c0.041-1.965,0.839-3.806,2.245-5.181c1.404-1.379,3.265-2.139,5.232-2.139c0.949,0.002,1.771,0.129,2.581,0.399l0.935,0.312
		l0.344-0.865c1.063-2.295,2.896-4.185,5.156-5.326c1.595-0.804,3.301-1.212,5.072-1.212c2.061,0,4.083,0.563,5.849,1.629
		c1.814,1.091,3.278,2.674,4.24,4.581l0.361,0.716l0.73-0.155c0.352-0.059,0.702-0.086,1.054-0.093c2.082,0,3.932,0.74,5.355,2.141
		c1.407,1.383,2.2,3.229,2.233,5.196c-0.009,0.621-0.098,1.229-0.267,1.813c-0.076,0.283-0.328,0.48-0.611,0.48L204.061,142.294
		L204.061,142.294z M210.656,133.931c-3.382,0-6.109,2.65-6.212,6.032l-0.034,1.133l39.003-0.059l-0.096-1.075
		c-0.103-3.383-2.829-6.032-6.21-6.032c-0.821,0.014-1.488,0.123-2.169,0.354c-0.006,0-0.011,0-0.017,0
		c-0.529,0-0.694-0.223-0.758-0.41c-1.092-3.037-3.584-5.373-6.664-6.25c-0.888-0.252-1.806-0.38-2.729-0.38
		c-4.43,0-8.371,2.978-9.583,7.242l-0.085,0.215c-0.121,0.195-0.321,0.307-0.54,0.307c-0.118,0-0.231-0.033-0.329-0.094
		c-1.03-0.64-2.219-0.98-3.43-0.982l-0.149-0.059L210.656,133.931L210.656,133.931z"/>
	<path fill="#040506" d="M204.061,142.236c-0.257,0-0.482-0.172-0.551-0.42c-0.169-0.601-0.26-1.211-0.267-1.822
		c0.041-1.945,0.831-3.773,2.228-5.14c1.396-1.368,3.241-2.123,5.193-2.123c0.956,0.002,1.778,0.135,2.562,0.396l0.936,0.313
		l0.412-0.896c1.06-2.284,2.884-4.166,5.132-5.298c1.586-0.8,3.281-1.206,5.046-1.206c2.048,0,4.062,0.56,5.818,1.621
		c1.805,1.085,3.264,2.661,4.22,4.558l0.361,0.716l0.791-0.125c0.348-0.057,0.696-0.085,1.044-0.092c0.006,0,0.007,0,0.009,0
		c2.073,0,3.914,0.755,5.309,2.125c1.393,1.371,2.182,3.203,2.215,5.157c-0.008,0.611-0.096,1.218-0.263,1.797
		c-0.07,0.26-0.3,0.439-0.557,0.439H204.061L204.061,142.236z M210.656,133.874c-3.411,0-6.165,2.674-6.269,6.087l-0.036,1.133
		h39.062l-0.037-1.134c-0.104-3.413-2.856-6.087-6.269-6.087c-0.854,0.014-1.532,0.133-2.186,0.357
		c-0.026,0.002-0.05,0.002-0.072,0.002c-0.362,0-0.557-0.153-0.63-0.375c-1.104-3.066-3.605-5.405-6.704-6.287
		c-0.891-0.254-1.813-0.382-2.743-0.382c-4.458,0-8.419,2.994-9.638,7.283l-0.083,0.21c-0.105,0.169-0.287,0.271-0.487,0.271
		c-0.104,0-0.211-0.029-0.299-0.085c-1.042-0.646-2.237-0.988-3.46-0.991L210.656,133.874z"/>
	<polygon fill="none" points="179.833,200.825 179.775,102.634 267.93,102.577 267.985,200.825 	"/>
	<rect x="179.833" y="102.634" fill="none" width="88.097" height="98.134"/>
</g>
</svg>
