<?xml version="1.0" encoding="utf-8"?>
<!-- Generator: Adobe Illustrator 15.1.0, SVG Export Plug-In . SVG Version: 6.00 Build 0)  -->
<!DOCTYPE svg PUBLIC "-//W3C//DTD SVG 1.1//EN" "http://www.w3.org/Graphics/SVG/1.1/DTD/svg11.dtd">
<svg version="1.1" id="Ebene_1" xmlns="http://www.w3.org/2000/svg" xmlns:xlink="http://www.w3.org/1999/xlink" x="0px" y="0px"
	 width="300px" height="273px" viewBox="0 0 300 273" enable-background="new 0 0 300 273" xml:space="preserve">
<g>
	<defs>
		<rect id="SVGID_1_" x="66.863" y="40.586" width="167.051" height="178.934"/>
	</defs>
	<clipPath id="SVGID_2_">
		<use xlink:href="#SVGID_1_"  overflow="visible"/>
	</clipPath>
	<polyline clip-path="url(#SVGID_2_)" fill="none" stroke="#040506" stroke-miterlimit="10" points="232.388,174.837 
		232.388,98.054 150.734,42.403 150.077,128.757 	"/>
</g>
<line fill="#FFFFFF" x1="149.901" y1="128.757" x2="232.308" y2="174.837"/>
<g>
	<defs>
		<rect id="SVGID_3_" x="66.863" y="40.586" width="167.051" height="178.934"/>
	</defs>
	<clipPath id="SVGID_4_">
		<use xlink:href="#SVGID_3_"  overflow="visible"/>
	</clipPath>
	
		<line clip-path="url(#SVGID_4_)" fill="none" stroke="#040506" stroke-miterlimit="10" x1="149.901" y1="128.757" x2="232.308" y2="174.837"/>
</g>
<polygon fill="none" stroke="#040506" stroke-miterlimit="10" points="174.846,117.87 207.402,136.292 207.402,105.579 
	174.846,85.658 "/>
<g>
	<defs>
		<rect id="SVGID_5_" x="66.863" y="40.586" width="167.051" height="178.934"/>
	</defs>
	<clipPath id="SVGID_6_">
		<use xlink:href="#SVGID_5_"  overflow="visible"/>
	</clipPath>
	<polyline clip-path="url(#SVGID_6_)" fill="none" stroke="#040506" stroke-miterlimit="10" points="150.011,128.695 
		68.242,174.265 68.242,97.483 150.299,41.833 	"/>
</g>
<line fill="none" stroke="#040506" stroke-miterlimit="10" x1="86.361" y1="184.549" x2="169.103" y2="139.494"/>
<line fill="none" stroke="#040506" stroke-miterlimit="10" x1="105.722" y1="195.458" x2="187.032" y2="149.52"/>
<line fill="none" stroke="#040506" stroke-miterlimit="10" x1="123.25" y1="204.974" x2="204.115" y2="159.061"/>
<g>
	<defs>
		<rect id="SVGID_7_" x="66.863" y="40.586" width="167.051" height="178.934"/>
	</defs>
	<clipPath id="SVGID_8_">
		<use xlink:href="#SVGID_7_"  overflow="visible"/>
	</clipPath>
	
		<line clip-path="url(#SVGID_8_)" fill="none" stroke="#040506" stroke-miterlimit="10" x1="149.504" y1="220.65" x2="232.663" y2="174.577"/>
</g>
<line fill="none" stroke="#040506" stroke-miterlimit="10" x1="139.922" y1="214.73" x2="221.788" y2="169.06"/>
<line fill="none" stroke="#040506" stroke-miterlimit="10" x1="168.427" y1="209.986" x2="90.346" y2="162.501"/>
<line fill="none" stroke="#040506" stroke-miterlimit="10" x1="188.947" y1="198.424" x2="110.128" y2="150.781"/>
<line fill="none" stroke="#040506" stroke-miterlimit="10" x1="208.444" y1="187.438" x2="129.762" y2="139.808"/>
<g>
	<defs>
		<rect id="SVGID_9_" x="66.863" y="40.586" width="167.051" height="178.934"/>
	</defs>
	<clipPath id="SVGID_10_">
		<use xlink:href="#SVGID_9_"  overflow="visible"/>
	</clipPath>
	
		<line clip-path="url(#SVGID_10_)" fill="none" stroke="#040506" stroke-miterlimit="10" x1="150.427" y1="220.65" x2="68.112" y2="174.265"/>
</g>
<polyline fill="none" stroke="#040506" stroke-miterlimit="10" points="93.08,160.139 93.08,98.397 119.552,81.772 119.552,145.514 
	"/>
</svg>
