<?xml version="1.0" encoding="utf-8"?>
<!-- Generator: Adobe Illustrator 15.1.0, SVG Export Plug-In . SVG Version: 6.00 Build 0)  -->
<!DOCTYPE svg PUBLIC "-//W3C//DTD SVG 1.1//EN" "http://www.w3.org/Graphics/SVG/1.1/DTD/svg11.dtd">
<svg version="1.1" xmlns="http://www.w3.org/2000/svg" xmlns:xlink="http://www.w3.org/1999/xlink" x="0px" y="0px"
	 width="126.93px" height="229.252px" viewBox="0 0 126.93 229.252" enable-background="new 0 0 126.93 229.252"
	 xml:space="preserve">
<g id="Ebene_2" display="none">
	<rect y="-3.68" display="inline" fill="#C20E1A" width="152.333" height="263.333"/>
</g>
<g id="Ebene_1">
	<g>
		<defs>
			<rect id="SVGID_1_" x="12.523" y="99.808" width="58.749" height="113.179"/>
		</defs>
		<clipPath id="SVGID_2_">
			<use xlink:href="#SVGID_1_"  overflow="visible"/>
		</clipPath>
		<path clip-path="url(#SVGID_2_)" d="M18.597,187.822c-0.011,0.018-0.034,0.029-0.069,0.039l-0.05,0.015
			c-0.052,0.011-0.102,0.039-0.15,0.084c-0.048,0.045-0.085,0.116-0.111,0.21l-0.796,2.855c-0.024,0.084-0.045,0.152-0.062,0.201
			c-0.018,0.049-0.037,0.086-0.057,0.111c-0.02,0.024-0.044,0.041-0.072,0.047s-0.063,0.009-0.106,0.009h-0.543
			c-0.037,0-0.068-0.004-0.093-0.012c-0.025-0.008-0.047-0.025-0.066-0.051c-0.02-0.026-0.038-0.064-0.056-0.115
			c-0.017-0.051-0.037-0.118-0.06-0.201l-0.657-2.635c-0.006-0.024-0.01-0.044-0.015-0.062c-0.005-0.016-0.014-0.023-0.029-0.023
			s-0.024,0.008-0.028,0.023c-0.004,0.018-0.008,0.035-0.014,0.056l-0.676,2.651c-0.021,0.084-0.04,0.152-0.057,0.201
			c-0.018,0.049-0.037,0.086-0.059,0.111c-0.021,0.024-0.045,0.041-0.073,0.047c-0.028,0.006-0.063,0.009-0.105,0.009h-0.547
			c-0.037,0-0.067-0.004-0.091-0.012s-0.046-0.025-0.065-0.051c-0.02-0.026-0.038-0.064-0.056-0.115
			c-0.017-0.051-0.037-0.118-0.059-0.201l-0.771-2.855c-0.026-0.096-0.061-0.163-0.104-0.205c-0.044-0.041-0.091-0.067-0.143-0.078
			l-0.05-0.015c-0.035-0.01-0.058-0.021-0.069-0.039c-0.011-0.017-0.017-0.034-0.017-0.056v-0.107c0-0.023,0.007-0.045,0.022-0.062
			s0.036-0.025,0.064-0.025h1.289c0.028,0,0.05,0.009,0.064,0.025c0.015,0.017,0.023,0.038,0.023,0.062v0.113
			c0,0.031-0.012,0.054-0.034,0.065s-0.042,0.02-0.058,0.023l-0.058,0.015c-0.048,0.009-0.081,0.024-0.099,0.048
			c-0.017,0.022-0.026,0.052-0.026,0.087c0,0.026,0.005,0.065,0.015,0.116c0.01,0.051,0.021,0.099,0.032,0.145l0.607,2.521
			c0.006,0.023,0.011,0.046,0.016,0.065c0.004,0.021,0.014,0.031,0.029,0.031c0.014,0,0.025-0.012,0.03-0.033
			c0.006-0.022,0.011-0.044,0.017-0.063l0.787-3.089c0.01-0.034,0.029-0.064,0.059-0.091c0.029-0.026,0.071-0.041,0.124-0.041h0.544
			c0.041,0,0.077,0.011,0.108,0.03c0.031,0.02,0.053,0.054,0.064,0.106l0.765,3.089c0.006,0.023,0.01,0.047,0.014,0.066
			c0.004,0.021,0.013,0.031,0.028,0.031c0.015,0,0.024-0.01,0.029-0.029c0.004-0.02,0.01-0.043,0.015-0.068l0.635-2.554
			c0.013-0.047,0.022-0.09,0.028-0.132c0.005-0.042,0.008-0.075,0.008-0.102c0-0.035-0.007-0.064-0.021-0.087
			c-0.013-0.023-0.044-0.039-0.093-0.048l-0.058-0.015c-0.016-0.004-0.035-0.012-0.057-0.023c-0.021-0.012-0.031-0.034-0.031-0.065
			v-0.113c0-0.023,0.007-0.045,0.02-0.062c0.014-0.017,0.035-0.025,0.063-0.025h0.943c0.029,0,0.051,0.009,0.065,0.025
			c0.014,0.017,0.021,0.038,0.021,0.062v0.107C18.613,187.788,18.607,187.806,18.597,187.822"/>
		<path clip-path="url(#SVGID_2_)" d="M21.213,189.864c-0.019,0.021-0.049,0.033-0.09,0.033h-1.789
			c-0.011,0-0.022,0.005-0.034,0.013c-0.013,0.01-0.019,0.027-0.019,0.053v0.028c0,0.229,0.03,0.414,0.088,0.554
			c0.058,0.142,0.134,0.25,0.227,0.328c0.094,0.077,0.198,0.129,0.315,0.155c0.116,0.026,0.233,0.039,0.349,0.039
			c0.117,0,0.215-0.009,0.296-0.028c0.08-0.018,0.149-0.038,0.205-0.06c0.056-0.023,0.102-0.043,0.138-0.062
			c0.037-0.018,0.068-0.026,0.094-0.026c0.014,0,0.028,0.002,0.04,0.008c0.012,0.005,0.022,0.016,0.032,0.03l0.047,0.074
			c0.005,0.012,0.009,0.023,0.012,0.035s0.004,0.021,0.004,0.029c0,0.025-0.011,0.051-0.033,0.073s-0.052,0.046-0.089,0.067
			c-0.037,0.023-0.079,0.044-0.127,0.064c-0.048,0.02-0.097,0.039-0.147,0.056c-0.076,0.025-0.173,0.047-0.29,0.063
			c-0.117,0.017-0.25,0.024-0.398,0.024c-0.07,0-0.157-0.004-0.262-0.013c-0.104-0.01-0.214-0.03-0.329-0.062
			c-0.114-0.03-0.229-0.077-0.343-0.14c-0.115-0.062-0.218-0.146-0.31-0.253c-0.091-0.107-0.165-0.24-0.222-0.399
			c-0.056-0.156-0.084-0.349-0.084-0.574s0.029-0.435,0.089-0.625c0.059-0.191,0.148-0.357,0.267-0.496
			c0.12-0.141,0.268-0.249,0.447-0.328c0.178-0.078,0.386-0.117,0.622-0.117c0.034,0,0.077,0.001,0.131,0.003
			c0.053,0.001,0.113,0.007,0.18,0.018c0.066,0.011,0.137,0.026,0.214,0.05c0.075,0.022,0.152,0.057,0.23,0.099
			c0.077,0.042,0.15,0.096,0.219,0.161c0.068,0.063,0.128,0.142,0.18,0.234c0.052,0.092,0.093,0.196,0.123,0.317
			c0.031,0.119,0.046,0.257,0.046,0.412v0.081C21.242,189.815,21.232,189.841,21.213,189.864 M20.424,189.562
			c0-0.058-0.001-0.118-0.002-0.185c0-0.065-0.005-0.131-0.015-0.196c-0.009-0.066-0.024-0.129-0.045-0.188
			c-0.022-0.058-0.053-0.111-0.093-0.157c-0.041-0.046-0.093-0.083-0.156-0.109c-0.062-0.027-0.141-0.04-0.235-0.04
			c-0.139,0-0.248,0.025-0.328,0.081c-0.079,0.053-0.139,0.122-0.178,0.207c-0.04,0.085-0.065,0.18-0.075,0.283
			c-0.01,0.105-0.016,0.208-0.016,0.311c0,0.025,0.006,0.039,0.019,0.041c0.012,0.002,0.025,0.003,0.04,0.003h1.02
			c0.015,0,0.029-0.003,0.043-0.01C20.417,189.596,20.424,189.582,20.424,189.562"/>
		<path clip-path="url(#SVGID_2_)" d="M23.02,191.361h-1.359c-0.053,0-0.08-0.021-0.08-0.064v-0.136
			c0-0.028,0.007-0.051,0.022-0.068s0.042-0.025,0.08-0.025h0.059c0.044,0,0.082-0.007,0.113-0.021
			c0.032-0.012,0.057-0.032,0.077-0.062c0.019-0.028,0.033-0.067,0.041-0.115s0.013-0.107,0.013-0.181v-2.606
			c0-0.133-0.016-0.231-0.048-0.295c-0.031-0.063-0.089-0.096-0.174-0.096h-0.081c-0.038,0-0.065-0.011-0.08-0.033
			s-0.022-0.044-0.022-0.063v-0.104c0-0.02,0.007-0.042,0.022-0.063c0.015-0.022,0.042-0.033,0.08-0.033h0.763
			c0.028,0,0.05-0.001,0.068-0.003c0.017-0.001,0.032-0.003,0.044-0.005c0.012-0.003,0.024-0.005,0.035-0.006
			c0.011-0.002,0.024-0.003,0.039-0.003h0.03c0.015,0,0.029,0.004,0.042,0.012c0.013,0.007,0.019,0.021,0.019,0.041v3.258
			c0,0.143,0.018,0.241,0.053,0.296c0.035,0.055,0.099,0.082,0.191,0.082h0.028c0.041,0,0.068,0.008,0.082,0.025
			s0.021,0.04,0.021,0.068v0.136C23.098,191.34,23.072,191.361,23.02,191.361"/>
		<path clip-path="url(#SVGID_2_)" d="M25.376,191.139c0,0.026-0.017,0.056-0.051,0.087c-0.034,0.033-0.085,0.063-0.153,0.092
			c-0.067,0.026-0.151,0.051-0.252,0.069c-0.101,0.021-0.217,0.029-0.348,0.029c-0.187,0-0.335-0.022-0.445-0.067
			c-0.111-0.046-0.196-0.109-0.255-0.192s-0.097-0.184-0.114-0.301c-0.018-0.115-0.026-0.245-0.026-0.388v-1.639
			c0-0.025-0.006-0.043-0.017-0.054c-0.011-0.011-0.024-0.016-0.039-0.016h-0.233c-0.046,0-0.077-0.011-0.091-0.033
			c-0.015-0.021-0.023-0.044-0.023-0.063v-0.092c0-0.017,0.006-0.03,0.017-0.041c0.011-0.012,0.025-0.021,0.04-0.029
			c0.016-0.009,0.032-0.015,0.049-0.018c0.017-0.005,0.03-0.008,0.041-0.012c0.104-0.024,0.188-0.057,0.254-0.1
			c0.065-0.042,0.119-0.091,0.159-0.146c0.04-0.054,0.071-0.113,0.093-0.18c0.021-0.066,0.04-0.135,0.056-0.207l0.017-0.077
			c0.009-0.041,0.024-0.065,0.047-0.077c0.022-0.009,0.044-0.015,0.066-0.015h0.193c0.023,0,0.046,0.007,0.071,0.021
			c0.025,0.014,0.037,0.04,0.037,0.081v0.623c0,0.027,0.006,0.044,0.017,0.056c0.011,0.01,0.022,0.015,0.033,0.015h0.743
			c0.041,0,0.068,0.011,0.082,0.032s0.021,0.042,0.021,0.062v0.103c0,0.02-0.007,0.042-0.021,0.063
			c-0.014,0.022-0.041,0.033-0.082,0.033H24.52c-0.011,0-0.022,0.005-0.033,0.016c-0.011,0.011-0.017,0.028-0.017,0.054v1.697
			c0,0.068,0.002,0.134,0.007,0.197c0.005,0.062,0.02,0.118,0.044,0.167c0.025,0.049,0.065,0.089,0.118,0.118
			c0.054,0.029,0.129,0.044,0.228,0.044c0.051,0,0.097-0.004,0.137-0.014c0.04-0.009,0.075-0.02,0.106-0.03
			c0.03-0.011,0.056-0.021,0.078-0.03c0.023-0.01,0.042-0.014,0.059-0.014c0.015,0,0.028,0.002,0.041,0.008
			c0.013,0.006,0.024,0.016,0.033,0.031l0.039,0.074c0.006,0.011,0.01,0.022,0.013,0.035
			C25.375,191.125,25.376,191.133,25.376,191.139"/>
		<path clip-path="url(#SVGID_2_)" d="M28.406,189.864c-0.02,0.021-0.05,0.033-0.09,0.033h-1.789c-0.011,0-0.022,0.005-0.034,0.013
			c-0.013,0.01-0.019,0.027-0.019,0.053v0.028c0,0.229,0.03,0.414,0.088,0.554c0.058,0.142,0.134,0.25,0.227,0.328
			c0.094,0.077,0.199,0.129,0.315,0.155c0.117,0.026,0.233,0.039,0.35,0.039c0.116,0,0.214-0.009,0.295-0.028
			c0.08-0.018,0.148-0.038,0.205-0.06c0.056-0.023,0.103-0.043,0.139-0.062c0.036-0.018,0.066-0.026,0.093-0.026
			c0.014,0,0.028,0.002,0.04,0.008c0.012,0.005,0.022,0.016,0.032,0.03l0.047,0.074c0.005,0.012,0.009,0.023,0.012,0.035
			s0.004,0.021,0.004,0.029c0,0.025-0.011,0.051-0.033,0.073s-0.052,0.046-0.089,0.067c-0.037,0.023-0.079,0.044-0.127,0.064
			c-0.048,0.02-0.097,0.039-0.147,0.056c-0.076,0.025-0.173,0.047-0.29,0.063s-0.25,0.024-0.398,0.024
			c-0.07,0-0.157-0.004-0.262-0.013c-0.104-0.01-0.214-0.03-0.329-0.062c-0.114-0.03-0.229-0.077-0.343-0.14
			c-0.115-0.062-0.218-0.146-0.31-0.253c-0.091-0.107-0.165-0.24-0.221-0.399c-0.057-0.156-0.085-0.349-0.085-0.574
			s0.029-0.435,0.089-0.625c0.059-0.191,0.148-0.357,0.267-0.496c0.12-0.141,0.268-0.249,0.447-0.328
			c0.178-0.078,0.386-0.117,0.622-0.117c0.034,0,0.077,0.001,0.131,0.003c0.053,0.001,0.113,0.007,0.18,0.018
			s0.138,0.026,0.213,0.05c0.076,0.022,0.153,0.057,0.231,0.099c0.077,0.042,0.15,0.096,0.219,0.161
			c0.068,0.063,0.128,0.142,0.18,0.234c0.052,0.092,0.093,0.196,0.123,0.317c0.031,0.119,0.046,0.257,0.046,0.412v0.081
			C28.435,189.815,28.425,189.841,28.406,189.864 M27.617,189.562c0-0.058-0.001-0.118-0.002-0.185c0-0.065-0.005-0.131-0.015-0.196
			c-0.009-0.066-0.024-0.129-0.045-0.188c-0.021-0.058-0.053-0.111-0.094-0.157c-0.04-0.046-0.092-0.083-0.154-0.109
			c-0.064-0.027-0.142-0.04-0.236-0.04c-0.139,0-0.248,0.025-0.328,0.081c-0.079,0.053-0.139,0.122-0.178,0.207
			c-0.04,0.085-0.065,0.18-0.075,0.283c-0.011,0.105-0.016,0.208-0.016,0.311c0,0.025,0.006,0.039,0.019,0.041
			c0.012,0.002,0.025,0.003,0.04,0.003h1.02c0.015,0,0.029-0.003,0.043-0.01C27.61,189.596,27.617,189.582,27.617,189.562"/>
		<path clip-path="url(#SVGID_2_)" d="M31.02,189.201c-0.018,0.02-0.053,0.03-0.103,0.03h-0.324c-0.037,0-0.064-0.006-0.08-0.018
			c-0.017-0.012-0.03-0.032-0.039-0.057l-0.042-0.137c-0.02-0.064-0.049-0.109-0.087-0.136s-0.089-0.039-0.151-0.039
			c-0.065,0-0.116,0.009-0.152,0.028c-0.036,0.018-0.063,0.044-0.083,0.077c-0.019,0.033-0.031,0.074-0.036,0.122
			c-0.005,0.049-0.007,0.101-0.007,0.158v1.458c0,0.144,0.018,0.241,0.053,0.295c0.035,0.056,0.099,0.082,0.191,0.082h0.028
			c0.041,0,0.068,0.01,0.082,0.027c0.014,0.017,0.021,0.04,0.021,0.067v0.137c0,0.042-0.026,0.062-0.078,0.062h-1.359
			c-0.053,0-0.08-0.021-0.08-0.062v-0.137c0-0.027,0.007-0.051,0.022-0.067c0.015-0.018,0.042-0.027,0.081-0.027h0.058
			c0.044,0,0.082-0.006,0.113-0.019c0.032-0.013,0.057-0.034,0.077-0.063c0.019-0.027,0.033-0.065,0.041-0.114
			c0.009-0.048,0.013-0.108,0.013-0.181v-1.539c0-0.133-0.016-0.23-0.047-0.295c-0.032-0.063-0.09-0.096-0.175-0.096h-0.08
			c-0.039,0-0.066-0.011-0.081-0.033c-0.015-0.021-0.022-0.043-0.022-0.063v-0.103c0-0.021,0.007-0.041,0.022-0.062
			c0.015-0.022,0.042-0.033,0.081-0.033h0.732c0.027,0,0.05-0.001,0.068-0.003c0.017-0.001,0.032-0.004,0.045-0.006
			c0.013-0.003,0.025-0.005,0.036-0.007c0.011-0.002,0.024-0.003,0.039-0.003h0.028c0.014,0,0.029,0.004,0.043,0.011
			c0.013,0.007,0.021,0.021,0.021,0.041v0.066c0,0.019,0.004,0.031,0.014,0.038c0.009,0.006,0.021,0.01,0.036,0.01
			c0.04,0,0.084-0.011,0.13-0.032c0.046-0.021,0.101-0.045,0.163-0.07c0.064-0.027,0.136-0.05,0.218-0.071s0.179-0.031,0.29-0.031
			c0.103,0,0.181,0.012,0.232,0.035c0.05,0.024,0.076,0.069,0.076,0.134v0.513C31.047,189.144,31.038,189.181,31.02,189.201"/>
		<path clip-path="url(#SVGID_2_)" d="M34.464,189.845c0,0.226-0.03,0.434-0.09,0.625c-0.06,0.19-0.15,0.356-0.27,0.498
			c-0.121,0.141-0.271,0.25-0.452,0.329c-0.181,0.08-0.393,0.119-0.636,0.119c-0.12,0-0.22-0.008-0.301-0.022
			c-0.08-0.017-0.146-0.034-0.199-0.054c-0.053-0.02-0.094-0.036-0.123-0.053c-0.03-0.016-0.055-0.023-0.075-0.023
			c-0.021,0-0.034,0.003-0.04,0.009c-0.007,0.006-0.01,0.014-0.01,0.024c0,0.043-0.023,0.064-0.07,0.064h-0.554
			c-0.054,0-0.08-0.023-0.08-0.069v-3.209c0-0.133-0.016-0.231-0.048-0.296c-0.031-0.062-0.09-0.095-0.175-0.095h-0.08
			c-0.038,0-0.066-0.011-0.08-0.033c-0.015-0.022-0.023-0.044-0.023-0.063v-0.104c0-0.02,0.008-0.042,0.023-0.063
			c0.014-0.022,0.042-0.033,0.08-0.033h0.762c0.029,0,0.051-0.001,0.069-0.003c0.017-0.001,0.032-0.003,0.044-0.005
			c0.012-0.002,0.024-0.004,0.035-0.005c0.011-0.003,0.024-0.004,0.039-0.004h0.03c0.015,0,0.029,0.005,0.042,0.012
			c0.012,0.007,0.019,0.021,0.019,0.041v1.062c0,0.027,0.005,0.042,0.015,0.047c0.011,0.006,0.023,0.01,0.038,0.01
			c0.029,0,0.062-0.009,0.098-0.022c0.036-0.015,0.081-0.031,0.133-0.049c0.053-0.018,0.118-0.034,0.195-0.048
			c0.076-0.016,0.171-0.022,0.284-0.022c0.223,0,0.422,0.033,0.596,0.102c0.174,0.066,0.32,0.162,0.439,0.287
			c0.12,0.125,0.21,0.276,0.272,0.452C34.433,189.426,34.464,189.624,34.464,189.845 M33.66,189.862c0-0.161-0.012-0.31-0.036-0.447
			c-0.024-0.137-0.067-0.254-0.128-0.352c-0.061-0.1-0.144-0.176-0.25-0.231c-0.105-0.056-0.238-0.083-0.399-0.083
			c-0.194,0-0.333,0.031-0.418,0.094c-0.086,0.061-0.128,0.147-0.128,0.259v1.644c0,0.105,0.046,0.188,0.139,0.247
			c0.092,0.06,0.23,0.088,0.413,0.088c0.138,0,0.259-0.021,0.36-0.066c0.102-0.046,0.185-0.118,0.251-0.218
			c0.066-0.099,0.115-0.225,0.147-0.379C33.644,190.265,33.66,190.078,33.66,189.862"/>
		<path clip-path="url(#SVGID_2_)" d="M37.577,189.864c-0.02,0.021-0.05,0.033-0.09,0.033h-1.789c-0.011,0-0.022,0.005-0.034,0.013
			c-0.013,0.01-0.018,0.027-0.018,0.053v0.028c0,0.229,0.029,0.414,0.087,0.554c0.058,0.142,0.134,0.25,0.227,0.328
			c0.094,0.077,0.199,0.129,0.315,0.155c0.117,0.026,0.233,0.039,0.35,0.039c0.116,0,0.214-0.009,0.295-0.028
			c0.08-0.018,0.148-0.038,0.205-0.06c0.056-0.023,0.103-0.043,0.139-0.062c0.036-0.018,0.066-0.026,0.093-0.026
			c0.014,0,0.028,0.002,0.04,0.008c0.012,0.005,0.022,0.016,0.032,0.03l0.047,0.074c0.005,0.012,0.009,0.023,0.012,0.035
			s0.004,0.021,0.004,0.029c0,0.025-0.011,0.051-0.033,0.073s-0.052,0.046-0.089,0.067c-0.037,0.023-0.079,0.044-0.127,0.064
			c-0.048,0.02-0.097,0.039-0.147,0.056c-0.076,0.025-0.173,0.047-0.29,0.063c-0.117,0.017-0.25,0.024-0.398,0.024
			c-0.07,0-0.157-0.004-0.262-0.013c-0.104-0.01-0.214-0.03-0.329-0.062c-0.114-0.03-0.229-0.077-0.343-0.14
			c-0.115-0.062-0.218-0.146-0.31-0.253c-0.091-0.107-0.165-0.24-0.221-0.399c-0.057-0.156-0.085-0.349-0.085-0.574
			s0.029-0.435,0.089-0.625c0.059-0.191,0.148-0.357,0.267-0.496c0.12-0.141,0.268-0.249,0.447-0.328
			c0.178-0.078,0.386-0.117,0.622-0.117c0.034,0,0.077,0.001,0.131,0.003c0.053,0.001,0.113,0.007,0.18,0.018
			s0.138,0.026,0.213,0.05c0.076,0.022,0.153,0.057,0.231,0.099c0.077,0.042,0.15,0.096,0.219,0.161
			c0.068,0.063,0.128,0.142,0.18,0.234c0.052,0.092,0.093,0.196,0.123,0.317c0.031,0.119,0.046,0.257,0.046,0.412v0.081
			C37.606,189.815,37.596,189.841,37.577,189.864 M36.788,189.562c0-0.058,0-0.118-0.001-0.185
			c-0.001-0.065-0.006-0.131-0.016-0.196c-0.009-0.066-0.024-0.129-0.045-0.188c-0.021-0.058-0.052-0.111-0.093-0.157
			s-0.093-0.083-0.155-0.109c-0.064-0.027-0.142-0.04-0.236-0.04c-0.139,0-0.248,0.025-0.328,0.081
			c-0.079,0.053-0.139,0.122-0.178,0.207c-0.04,0.085-0.065,0.18-0.075,0.283c-0.011,0.105-0.015,0.208-0.015,0.311
			c0,0.025,0.005,0.039,0.018,0.041c0.012,0.002,0.025,0.003,0.04,0.003h1.02c0.015,0,0.029-0.003,0.043-0.01
			C36.781,189.596,36.788,189.582,36.788,189.562"/>
		<path clip-path="url(#SVGID_2_)" d="M16.527,196.043c0,0.353-0.041,0.658-0.123,0.914s-0.203,0.467-0.363,0.632
			c-0.16,0.165-0.357,0.287-0.591,0.366s-0.503,0.118-0.808,0.118c-0.303,0-0.569-0.044-0.796-0.133
			c-0.227-0.088-0.418-0.213-0.571-0.376c-0.154-0.162-0.269-0.359-0.346-0.591c-0.076-0.231-0.115-0.493-0.115-0.781
			c0-0.354,0.042-0.657,0.124-0.912c0.082-0.256,0.203-0.466,0.363-0.632c0.16-0.165,0.357-0.286,0.592-0.365
			c0.235-0.078,0.504-0.118,0.807-0.118c0.301,0,0.566,0.044,0.794,0.131c0.229,0.087,0.42,0.212,0.573,0.374
			c0.154,0.163,0.269,0.36,0.345,0.592C16.489,195.494,16.527,195.755,16.527,196.043 M15.665,196.075
			c0-0.279-0.02-0.521-0.061-0.723s-0.102-0.369-0.184-0.5c-0.083-0.131-0.185-0.228-0.307-0.291
			c-0.122-0.062-0.263-0.094-0.424-0.094c-0.172,0-0.321,0.032-0.448,0.095c-0.126,0.064-0.232,0.165-0.316,0.302
			s-0.146,0.312-0.187,0.525c-0.041,0.215-0.061,0.474-0.061,0.774c0,0.277,0.02,0.519,0.061,0.721
			c0.041,0.203,0.102,0.37,0.184,0.5c0.083,0.131,0.185,0.229,0.307,0.291c0.122,0.063,0.264,0.094,0.427,0.094
			c0.172,0,0.321-0.03,0.448-0.095c0.126-0.064,0.231-0.164,0.314-0.301c0.083-0.136,0.145-0.312,0.186-0.526
			C15.645,196.633,15.665,196.376,15.665,196.075"/>
		<path clip-path="url(#SVGID_2_)" d="M20.121,196.486c0,0.226-0.03,0.434-0.09,0.625s-0.15,0.358-0.27,0.498
			c-0.12,0.141-0.271,0.251-0.452,0.33c-0.182,0.08-0.393,0.12-0.635,0.12c-0.12,0-0.221-0.009-0.301-0.024
			c-0.081-0.016-0.147-0.034-0.2-0.053c-0.053-0.02-0.094-0.037-0.123-0.052c-0.03-0.018-0.055-0.024-0.075-0.024
			s-0.034,0.003-0.04,0.008c-0.007,0.006-0.01,0.015-0.01,0.025c0,0.043-0.023,0.063-0.069,0.063h-0.555
			c-0.054,0-0.08-0.022-0.08-0.068v-3.209c0-0.133-0.016-0.231-0.048-0.295c-0.031-0.064-0.089-0.097-0.174-0.097h-0.08
			c-0.039,0-0.066-0.011-0.081-0.032c-0.015-0.022-0.022-0.043-0.022-0.064v-0.102c0-0.021,0.007-0.042,0.022-0.064
			c0.015-0.023,0.042-0.034,0.081-0.034h0.762c0.028,0,0.05-0.001,0.068-0.002c0.017-0.002,0.032-0.004,0.044-0.006
			c0.012-0.002,0.024-0.003,0.035-0.005c0.011-0.002,0.024-0.003,0.039-0.003h0.03c0.015,0,0.029,0.004,0.042,0.011
			c0.013,0.007,0.019,0.021,0.019,0.042v1.062c0,0.026,0.005,0.042,0.016,0.048c0.01,0.006,0.022,0.008,0.037,0.008
			c0.03,0,0.062-0.007,0.098-0.022c0.036-0.015,0.081-0.03,0.134-0.049c0.052-0.017,0.117-0.033,0.194-0.048
			c0.076-0.015,0.171-0.021,0.284-0.021c0.223,0,0.422,0.032,0.596,0.101c0.174,0.067,0.32,0.164,0.44,0.288
			c0.119,0.125,0.209,0.275,0.271,0.452S20.121,196.267,20.121,196.486 M19.317,196.504c0-0.16-0.012-0.31-0.036-0.446
			c-0.024-0.138-0.067-0.254-0.128-0.353s-0.144-0.175-0.249-0.23c-0.105-0.057-0.239-0.083-0.399-0.083
			c-0.195,0-0.334,0.03-0.419,0.093c-0.085,0.062-0.128,0.148-0.128,0.259v1.645c0,0.104,0.047,0.187,0.139,0.248
			c0.092,0.059,0.23,0.087,0.413,0.087c0.139,0,0.259-0.022,0.361-0.067c0.101-0.045,0.185-0.118,0.251-0.217
			c0.065-0.1,0.114-0.226,0.147-0.379C19.301,196.906,19.317,196.722,19.317,196.504"/>
		<path clip-path="url(#SVGID_2_)" d="M23.234,196.506c-0.019,0.021-0.049,0.034-0.09,0.034h-1.789
			c-0.011,0-0.022,0.004-0.034,0.013c-0.013,0.01-0.019,0.028-0.019,0.053v0.028c0,0.229,0.03,0.414,0.088,0.554
			c0.058,0.142,0.134,0.25,0.227,0.327c0.094,0.078,0.199,0.13,0.315,0.156c0.116,0.025,0.233,0.038,0.349,0.038
			c0.117,0,0.215-0.009,0.296-0.027c0.08-0.019,0.149-0.039,0.205-0.061c0.056-0.022,0.102-0.044,0.138-0.062
			c0.037-0.018,0.068-0.027,0.094-0.027c0.014,0,0.028,0.002,0.04,0.009c0.012,0.005,0.022,0.015,0.032,0.029l0.047,0.075
			c0.005,0.011,0.009,0.023,0.012,0.034c0.003,0.013,0.004,0.021,0.004,0.029c0,0.026-0.011,0.052-0.033,0.073
			c-0.022,0.024-0.052,0.047-0.089,0.068c-0.037,0.022-0.079,0.043-0.127,0.064c-0.048,0.02-0.097,0.039-0.147,0.056
			c-0.076,0.025-0.173,0.046-0.29,0.062c-0.117,0.018-0.25,0.025-0.398,0.025c-0.07,0-0.157-0.004-0.262-0.014
			c-0.104-0.01-0.214-0.029-0.329-0.062c-0.114-0.031-0.229-0.078-0.343-0.14c-0.115-0.062-0.218-0.146-0.31-0.253
			c-0.091-0.107-0.165-0.24-0.222-0.399c-0.056-0.158-0.084-0.349-0.084-0.575c0-0.225,0.029-0.434,0.089-0.625
			c0.059-0.19,0.148-0.356,0.267-0.497c0.12-0.139,0.268-0.247,0.447-0.325c0.178-0.079,0.386-0.119,0.622-0.119
			c0.034,0,0.077,0.001,0.131,0.003c0.053,0.002,0.113,0.008,0.18,0.018c0.066,0.012,0.138,0.027,0.214,0.051
			c0.075,0.022,0.152,0.056,0.23,0.099c0.077,0.042,0.15,0.096,0.219,0.161c0.068,0.063,0.128,0.142,0.18,0.233
			c0.052,0.092,0.093,0.197,0.123,0.317c0.031,0.12,0.046,0.258,0.046,0.414v0.08C23.263,196.458,23.253,196.483,23.234,196.506
			 M22.445,196.204c0-0.059-0.001-0.119-0.001-0.185c-0.001-0.065-0.006-0.131-0.016-0.197c-0.009-0.065-0.024-0.128-0.045-0.188
			c-0.022-0.06-0.053-0.111-0.093-0.158c-0.041-0.046-0.093-0.082-0.156-0.109c-0.062-0.026-0.141-0.04-0.235-0.04
			c-0.139,0-0.248,0.026-0.328,0.08c-0.079,0.055-0.139,0.123-0.178,0.208c-0.04,0.085-0.065,0.181-0.075,0.284
			c-0.01,0.105-0.016,0.208-0.016,0.311c0,0.024,0.006,0.039,0.019,0.041c0.012,0.002,0.025,0.003,0.04,0.003h1.02
			c0.015,0,0.029-0.004,0.043-0.011C22.438,196.237,22.445,196.225,22.445,196.204"/>
		<path clip-path="url(#SVGID_2_)" d="M25.848,195.844c-0.019,0.02-0.053,0.029-0.103,0.029h-0.324
			c-0.037,0-0.064-0.005-0.081-0.018c-0.016-0.011-0.029-0.031-0.038-0.056l-0.042-0.137c-0.021-0.064-0.05-0.11-0.088-0.136
			c-0.037-0.026-0.088-0.039-0.151-0.039c-0.064,0-0.115,0.009-0.151,0.028c-0.036,0.018-0.063,0.044-0.083,0.077
			c-0.019,0.033-0.031,0.073-0.036,0.121c-0.005,0.049-0.007,0.102-0.007,0.158v1.459c0,0.143,0.018,0.241,0.053,0.295
			c0.035,0.056,0.099,0.082,0.191,0.082h0.028c0.04,0,0.068,0.01,0.082,0.027c0.014,0.017,0.021,0.039,0.021,0.067v0.136
			c0,0.043-0.027,0.063-0.078,0.063h-1.359c-0.054,0-0.08-0.021-0.08-0.063v-0.136c0-0.028,0.007-0.051,0.022-0.067
			c0.014-0.018,0.041-0.027,0.08-0.027h0.058c0.045,0,0.083-0.007,0.114-0.019c0.031-0.013,0.057-0.034,0.076-0.063
			c0.02-0.027,0.034-0.066,0.042-0.114c0.008-0.049,0.012-0.108,0.012-0.181v-1.539c0-0.133-0.015-0.23-0.047-0.296
			c-0.031-0.062-0.089-0.095-0.174-0.095h-0.081c-0.039,0-0.066-0.011-0.08-0.034c-0.015-0.021-0.022-0.043-0.022-0.062v-0.104
			c0-0.02,0.007-0.041,0.022-0.062c0.014-0.022,0.041-0.032,0.08-0.032h0.732c0.028,0,0.051-0.001,0.068-0.003
			c0.018-0.001,0.033-0.004,0.046-0.007c0.013-0.002,0.025-0.005,0.036-0.007c0.011-0.003,0.024-0.003,0.039-0.003h0.028
			c0.015,0,0.029,0.004,0.043,0.012c0.013,0.007,0.02,0.021,0.02,0.041v0.066c0,0.019,0.005,0.031,0.014,0.037
			c0.01,0.007,0.021,0.01,0.036,0.01c0.041,0,0.085-0.011,0.13-0.031c0.047-0.021,0.101-0.045,0.164-0.07
			c0.063-0.027,0.136-0.05,0.218-0.071s0.179-0.031,0.29-0.031c0.103,0,0.18,0.012,0.231,0.035c0.051,0.024,0.077,0.068,0.077,0.134
			v0.513C25.876,195.785,25.866,195.823,25.848,195.844"/>
		<path clip-path="url(#SVGID_2_)" d="M28.844,196.506c-0.02,0.021-0.05,0.034-0.09,0.034h-1.789c-0.011,0-0.022,0.004-0.034,0.013
			c-0.013,0.01-0.019,0.028-0.019,0.053v0.028c0,0.229,0.03,0.414,0.088,0.554c0.058,0.142,0.134,0.25,0.227,0.327
			c0.094,0.078,0.199,0.13,0.315,0.156c0.117,0.025,0.233,0.038,0.35,0.038c0.116,0,0.214-0.009,0.295-0.027
			c0.08-0.019,0.148-0.039,0.205-0.061c0.056-0.022,0.103-0.044,0.139-0.062c0.036-0.018,0.066-0.027,0.093-0.027
			c0.014,0,0.028,0.002,0.04,0.009c0.012,0.005,0.022,0.015,0.032,0.029l0.047,0.075c0.005,0.011,0.009,0.023,0.012,0.034
			c0.003,0.013,0.004,0.021,0.004,0.029c0,0.026-0.011,0.052-0.033,0.073c-0.022,0.024-0.052,0.047-0.089,0.068
			c-0.037,0.022-0.079,0.043-0.127,0.064c-0.048,0.02-0.097,0.039-0.147,0.056c-0.076,0.025-0.173,0.046-0.29,0.062
			c-0.117,0.018-0.25,0.025-0.398,0.025c-0.07,0-0.157-0.004-0.262-0.014c-0.104-0.01-0.214-0.029-0.329-0.062
			c-0.114-0.031-0.229-0.078-0.343-0.14c-0.115-0.062-0.218-0.146-0.31-0.253c-0.091-0.107-0.165-0.24-0.221-0.399
			c-0.057-0.158-0.085-0.349-0.085-0.575c0-0.225,0.029-0.434,0.089-0.625c0.059-0.19,0.148-0.356,0.267-0.497
			c0.12-0.139,0.268-0.247,0.447-0.325c0.178-0.079,0.386-0.119,0.622-0.119c0.034,0,0.077,0.001,0.131,0.003
			c0.053,0.002,0.113,0.008,0.18,0.018c0.067,0.012,0.138,0.027,0.213,0.051c0.076,0.022,0.153,0.056,0.231,0.099
			c0.077,0.042,0.15,0.096,0.219,0.161c0.068,0.063,0.128,0.142,0.18,0.233c0.052,0.092,0.093,0.197,0.123,0.317
			c0.031,0.12,0.046,0.258,0.046,0.414v0.08C28.873,196.458,28.863,196.483,28.844,196.506 M28.055,196.204
			c0-0.059-0.001-0.119-0.002-0.185c0-0.065-0.005-0.131-0.015-0.197c-0.009-0.065-0.024-0.128-0.045-0.188
			s-0.053-0.111-0.093-0.158c-0.041-0.046-0.093-0.082-0.155-0.109c-0.064-0.026-0.142-0.04-0.236-0.04
			c-0.139,0-0.248,0.026-0.328,0.08c-0.079,0.055-0.139,0.123-0.178,0.208c-0.04,0.085-0.065,0.181-0.075,0.284
			c-0.011,0.105-0.016,0.208-0.016,0.311c0,0.024,0.006,0.039,0.019,0.041c0.012,0.002,0.025,0.003,0.04,0.003h1.02
			c0.015,0,0.029-0.004,0.043-0.011C28.048,196.237,28.055,196.225,28.055,196.204"/>
		<path clip-path="url(#SVGID_2_)" d="M31.286,197.186c0,0.133-0.022,0.254-0.065,0.361c-0.044,0.108-0.112,0.2-0.205,0.276
			c-0.094,0.076-0.213,0.134-0.358,0.175c-0.145,0.04-0.321,0.062-0.526,0.062c-0.275,0-0.488-0.029-0.638-0.085
			c-0.15-0.057-0.224-0.127-0.224-0.21v-0.38c0-0.041,0.011-0.067,0.033-0.082c0.022-0.014,0.043-0.021,0.064-0.021h0.125
			c0.051,0,0.085,0.036,0.102,0.107c0.01,0.039,0.02,0.081,0.032,0.125c0.012,0.045,0.035,0.086,0.069,0.123
			c0.035,0.039,0.085,0.07,0.151,0.096c0.067,0.024,0.16,0.037,0.281,0.037c0.083,0,0.157-0.007,0.221-0.019
			c0.065-0.012,0.121-0.032,0.167-0.062c0.046-0.03,0.081-0.069,0.105-0.118s0.036-0.111,0.036-0.188
			c0-0.052-0.007-0.097-0.022-0.135c-0.015-0.037-0.035-0.072-0.061-0.102c-0.026-0.031-0.057-0.059-0.094-0.083
			c-0.037-0.026-0.079-0.053-0.125-0.08l-0.455-0.267c-0.05-0.028-0.106-0.064-0.169-0.106c-0.063-0.041-0.122-0.094-0.177-0.159
			c-0.056-0.064-0.102-0.144-0.14-0.238c-0.038-0.094-0.057-0.209-0.057-0.341c0-0.161,0.028-0.295,0.086-0.401
			c0.057-0.106,0.134-0.19,0.23-0.254c0.096-0.062,0.208-0.106,0.335-0.131c0.128-0.025,0.261-0.038,0.4-0.038
			c0.04,0,0.089,0.001,0.147,0.004c0.057,0.003,0.116,0.009,0.177,0.016c0.061,0.008,0.121,0.018,0.18,0.031
			c0.06,0.013,0.113,0.029,0.16,0.05c0.047,0.02,0.085,0.045,0.114,0.072c0.028,0.029,0.043,0.062,0.043,0.1v0.388
			c0,0.039-0.011,0.065-0.032,0.079c-0.022,0.014-0.042,0.021-0.063,0.021h-0.102c-0.043,0-0.069-0.01-0.078-0.028
			c-0.009-0.021-0.017-0.043-0.025-0.071c-0.005-0.02-0.013-0.051-0.022-0.092c-0.009-0.041-0.03-0.081-0.061-0.123
			c-0.031-0.042-0.078-0.078-0.14-0.11c-0.062-0.03-0.148-0.047-0.259-0.047c-0.063,0-0.124,0.005-0.182,0.017
			c-0.058,0.01-0.11,0.026-0.154,0.052c-0.045,0.024-0.08,0.059-0.107,0.102c-0.026,0.042-0.04,0.097-0.04,0.16
			c0,0.054,0.006,0.1,0.017,0.137c0.011,0.039,0.031,0.074,0.059,0.107c0.029,0.034,0.068,0.065,0.117,0.096
			c0.049,0.03,0.111,0.065,0.187,0.104l0.352,0.183c0.078,0.038,0.152,0.082,0.223,0.129c0.071,0.047,0.135,0.104,0.189,0.171
			c0.055,0.066,0.098,0.147,0.13,0.242C31.27,196.932,31.286,197.048,31.286,197.186"/>
		<path clip-path="url(#SVGID_2_)" d="M37.317,198.003h-1.414c-0.054,0-0.081-0.021-0.081-0.063v-0.136
			c0-0.027,0.007-0.051,0.021-0.067c0.014-0.018,0.041-0.027,0.082-0.027h0.055c0.091,0,0.154-0.026,0.19-0.081
			s0.054-0.153,0.054-0.296v-2.601c0-0.026-0.003-0.042-0.01-0.047c-0.006-0.006-0.012-0.009-0.017-0.009
			c-0.012,0-0.019,0.004-0.022,0.012c-0.004,0.007-0.008,0.018-0.012,0.033l-0.898,3.13c-0.009,0.038-0.02,0.067-0.032,0.091
			c-0.012,0.022-0.027,0.04-0.045,0.052c-0.017,0.013-0.039,0.021-0.065,0.025c-0.025,0.005-0.058,0.007-0.097,0.007h-0.449
			c-0.057,0-0.102-0.014-0.134-0.044c-0.033-0.03-0.059-0.077-0.079-0.143l-0.899-3.125c-0.004-0.015-0.007-0.024-0.011-0.032
			c-0.004-0.007-0.011-0.012-0.022-0.012c-0.006,0-0.012,0.003-0.02,0.009c-0.007,0.006-0.011,0.021-0.011,0.047v2.606
			c0,0.072,0.004,0.132,0.013,0.181c0.008,0.048,0.022,0.087,0.041,0.115c0.02,0.028,0.045,0.05,0.077,0.062
			c0.031,0.012,0.07,0.019,0.116,0.019h0.055c0.041,0,0.069,0.01,0.082,0.027c0.014,0.017,0.021,0.04,0.021,0.067v0.136
			c0,0.043-0.027,0.063-0.08,0.063h-1.04c-0.052,0-0.078-0.021-0.078-0.063v-0.136c0-0.027,0.007-0.051,0.021-0.067
			c0.014-0.018,0.041-0.027,0.082-0.027h0.055c0.091,0,0.154-0.026,0.19-0.081c0.036-0.055,0.055-0.153,0.055-0.296v-2.445
			c0-0.143-0.019-0.24-0.055-0.295c-0.036-0.055-0.099-0.082-0.19-0.082h-0.055c-0.041,0-0.068-0.01-0.082-0.026
			c-0.014-0.019-0.021-0.041-0.021-0.068v-0.103c0-0.029,0.007-0.053,0.021-0.07s0.041-0.027,0.082-0.027h1.22
			c0.046,0,0.081,0.009,0.104,0.023c0.023,0.014,0.039,0.037,0.048,0.069l0.877,3.056c0.011,0.033,0.026,0.049,0.044,0.049
			c0.019,0,0.033-0.016,0.044-0.049l0.865-3.029c0.015-0.045,0.032-0.076,0.049-0.094c0.018-0.017,0.045-0.025,0.082-0.025h1.248
			c0.04,0,0.068,0.01,0.082,0.027c0.014,0.018,0.02,0.041,0.02,0.07v0.103c0,0.027-0.006,0.05-0.02,0.068
			c-0.014,0.017-0.042,0.026-0.082,0.026h-0.055c-0.047,0-0.085,0.006-0.115,0.02c-0.031,0.013-0.056,0.033-0.075,0.062
			c-0.02,0.028-0.034,0.066-0.042,0.114s-0.013,0.108-0.013,0.181v2.445c0,0.072,0.005,0.132,0.013,0.181
			c0.008,0.048,0.022,0.087,0.042,0.115c0.019,0.028,0.044,0.05,0.075,0.062c0.03,0.012,0.068,0.019,0.115,0.019h0.055
			c0.04,0,0.068,0.01,0.082,0.027c0.014,0.017,0.02,0.04,0.02,0.067v0.136C37.395,197.982,37.368,198.003,37.317,198.003"/>
		<path clip-path="url(#SVGID_2_)" d="M39.208,198.003H37.85c-0.053,0-0.08-0.021-0.08-0.063v-0.136
			c0-0.027,0.007-0.051,0.022-0.067c0.015-0.019,0.042-0.027,0.081-0.027h0.058c0.044,0,0.082-0.006,0.113-0.02
			c0.032-0.013,0.057-0.032,0.077-0.062c0.019-0.029,0.033-0.067,0.041-0.116c0.009-0.047,0.013-0.107,0.013-0.18v-1.539
			c0-0.133-0.016-0.231-0.047-0.295c-0.032-0.064-0.09-0.096-0.175-0.096h-0.08c-0.039,0-0.066-0.012-0.081-0.033
			c-0.015-0.022-0.022-0.044-0.022-0.064v-0.102c0-0.021,0.007-0.041,0.022-0.063c0.015-0.021,0.042-0.03,0.081-0.03h0.762
			c0.028,0,0.051-0.001,0.068-0.004c0.018-0.002,0.032-0.004,0.044-0.007c0.013-0.003,0.024-0.006,0.035-0.008
			c0.011-0.001,0.024-0.002,0.039-0.002h0.03c0.015,0,0.029,0.003,0.042,0.011c0.013,0.009,0.02,0.021,0.02,0.041v2.191
			c0,0.143,0.017,0.241,0.052,0.296c0.035,0.054,0.099,0.081,0.191,0.081h0.028c0.041,0,0.068,0.009,0.082,0.027
			c0.014,0.017,0.021,0.04,0.021,0.067v0.136C39.287,197.981,39.26,198.003,39.208,198.003 M38.95,194.296
			c0,0.072-0.012,0.133-0.036,0.183c-0.024,0.051-0.056,0.091-0.096,0.121c-0.039,0.03-0.087,0.053-0.141,0.066
			c-0.055,0.014-0.112,0.021-0.173,0.021c-0.065,0-0.125-0.006-0.18-0.02c-0.056-0.013-0.104-0.034-0.146-0.065
			c-0.042-0.029-0.074-0.069-0.099-0.121c-0.024-0.049-0.036-0.11-0.036-0.185c0-0.072,0.012-0.133,0.036-0.183
			c0.025-0.051,0.057-0.091,0.098-0.121c0.04-0.031,0.088-0.053,0.142-0.065c0.055-0.013,0.113-0.019,0.174-0.019
			c0.063,0,0.122,0.006,0.179,0.019c0.056,0.013,0.104,0.034,0.145,0.064c0.041,0.028,0.073,0.068,0.097,0.119
			C38.938,194.16,38.95,194.222,38.95,194.296"/>
		<path clip-path="url(#SVGID_2_)" d="M41.565,197.781c0,0.026-0.017,0.056-0.051,0.087c-0.034,0.033-0.085,0.063-0.153,0.09
			c-0.067,0.028-0.151,0.053-0.252,0.071c-0.101,0.021-0.217,0.029-0.348,0.029c-0.187,0-0.335-0.022-0.445-0.067
			c-0.111-0.046-0.196-0.109-0.254-0.192c-0.059-0.083-0.097-0.184-0.115-0.301c-0.018-0.115-0.026-0.246-0.026-0.388v-1.639
			c0-0.025-0.006-0.044-0.017-0.055c-0.011-0.01-0.024-0.015-0.039-0.015h-0.233c-0.046,0-0.076-0.011-0.091-0.034
			c-0.015-0.021-0.022-0.043-0.022-0.062v-0.092c0-0.017,0.005-0.03,0.016-0.041c0.011-0.012,0.025-0.021,0.041-0.03
			c0.015-0.008,0.031-0.014,0.048-0.018s0.031-0.008,0.041-0.012c0.104-0.023,0.188-0.057,0.254-0.099
			c0.066-0.043,0.119-0.092,0.159-0.146c0.04-0.054,0.072-0.114,0.093-0.18c0.021-0.066,0.04-0.135,0.057-0.207l0.016-0.077
			c0.009-0.041,0.025-0.066,0.047-0.077c0.022-0.01,0.044-0.015,0.066-0.015h0.194c0.022,0,0.045,0.007,0.07,0.02
			c0.025,0.016,0.037,0.042,0.037,0.083v0.623c0,0.027,0.006,0.044,0.017,0.055c0.011,0.011,0.022,0.016,0.033,0.016h0.743
			c0.041,0,0.069,0.01,0.082,0.032c0.014,0.021,0.021,0.042,0.021,0.062v0.104c0,0.02-0.007,0.041-0.021,0.062
			c-0.013,0.023-0.041,0.034-0.082,0.034h-0.743c-0.011,0-0.022,0.005-0.033,0.015c-0.011,0.011-0.017,0.029-0.017,0.055v1.697
			c0,0.068,0.003,0.134,0.007,0.196c0.005,0.063,0.02,0.119,0.045,0.168c0.024,0.049,0.064,0.088,0.118,0.118
			c0.053,0.029,0.129,0.044,0.227,0.044c0.051,0,0.097-0.004,0.137-0.014c0.04-0.009,0.075-0.02,0.106-0.03
			c0.03-0.011,0.056-0.021,0.078-0.031c0.023-0.009,0.042-0.013,0.059-0.013c0.014,0,0.028,0.002,0.042,0.008
			c0.012,0.005,0.023,0.016,0.033,0.03l0.039,0.075c0.005,0.011,0.009,0.022,0.012,0.035
			C41.564,197.768,41.565,197.775,41.565,197.781"/>
		<path clip-path="url(#SVGID_2_)" d="M43.848,197.781c0,0.026-0.017,0.056-0.051,0.087c-0.034,0.033-0.085,0.063-0.153,0.09
			c-0.067,0.028-0.151,0.053-0.252,0.071c-0.101,0.021-0.217,0.029-0.348,0.029c-0.187,0-0.335-0.022-0.445-0.067
			c-0.111-0.046-0.196-0.109-0.254-0.192c-0.059-0.083-0.097-0.184-0.115-0.301c-0.018-0.115-0.026-0.246-0.026-0.388v-1.639
			c0-0.025-0.006-0.044-0.017-0.055c-0.011-0.01-0.024-0.015-0.039-0.015h-0.233c-0.046,0-0.076-0.011-0.091-0.034
			c-0.015-0.021-0.022-0.043-0.022-0.062v-0.092c0-0.017,0.005-0.03,0.016-0.041c0.011-0.012,0.025-0.021,0.041-0.03
			c0.015-0.008,0.031-0.014,0.048-0.018s0.031-0.008,0.041-0.012c0.104-0.023,0.188-0.057,0.254-0.099
			c0.066-0.043,0.119-0.092,0.159-0.146c0.04-0.054,0.072-0.114,0.093-0.18c0.021-0.066,0.04-0.135,0.057-0.207l0.016-0.077
			c0.009-0.041,0.025-0.066,0.047-0.077c0.022-0.01,0.044-0.015,0.066-0.015h0.194c0.022,0,0.045,0.007,0.07,0.02
			c0.025,0.016,0.037,0.042,0.037,0.083v0.623c0,0.027,0.006,0.044,0.017,0.055c0.011,0.011,0.022,0.016,0.033,0.016h0.743
			c0.041,0,0.069,0.01,0.082,0.032c0.014,0.021,0.021,0.042,0.021,0.062v0.104c0,0.02-0.007,0.041-0.021,0.062
			c-0.013,0.023-0.041,0.034-0.082,0.034h-0.743c-0.011,0-0.022,0.005-0.033,0.015c-0.011,0.011-0.017,0.029-0.017,0.055v1.697
			c0,0.068,0.003,0.134,0.007,0.196c0.005,0.063,0.02,0.119,0.045,0.168c0.024,0.049,0.064,0.088,0.118,0.118
			c0.053,0.029,0.129,0.044,0.227,0.044c0.051,0,0.097-0.004,0.137-0.014c0.04-0.009,0.075-0.02,0.105-0.03
			c0.031-0.011,0.057-0.021,0.079-0.031c0.023-0.009,0.042-0.013,0.059-0.013c0.015,0,0.028,0.002,0.042,0.008
			c0.012,0.005,0.023,0.016,0.033,0.03l0.039,0.075c0.005,0.011,0.009,0.022,0.012,0.035
			C43.847,197.768,43.848,197.775,43.848,197.781"/>
		<path clip-path="url(#SVGID_2_)" d="M46.877,196.506c-0.02,0.021-0.05,0.034-0.09,0.034h-1.789c-0.011,0-0.022,0.004-0.034,0.013
			c-0.013,0.01-0.019,0.028-0.019,0.053v0.028c0,0.229,0.03,0.414,0.088,0.554c0.058,0.142,0.134,0.25,0.227,0.327
			c0.094,0.078,0.199,0.13,0.315,0.156c0.117,0.025,0.233,0.038,0.35,0.038c0.116,0,0.214-0.009,0.295-0.027
			c0.08-0.019,0.148-0.039,0.205-0.061c0.056-0.022,0.103-0.044,0.139-0.062c0.036-0.018,0.066-0.027,0.093-0.027
			c0.014,0,0.028,0.002,0.04,0.009c0.012,0.005,0.022,0.015,0.032,0.029l0.047,0.075c0.005,0.011,0.009,0.023,0.012,0.034
			c0.003,0.013,0.004,0.021,0.004,0.029c0,0.026-0.011,0.052-0.033,0.073c-0.022,0.024-0.052,0.047-0.089,0.068
			c-0.037,0.022-0.079,0.043-0.127,0.064c-0.048,0.02-0.097,0.039-0.147,0.056c-0.076,0.025-0.173,0.046-0.29,0.062
			c-0.117,0.018-0.25,0.025-0.398,0.025c-0.07,0-0.157-0.004-0.262-0.014c-0.104-0.01-0.214-0.029-0.329-0.062
			c-0.114-0.031-0.229-0.078-0.343-0.14c-0.115-0.062-0.218-0.146-0.31-0.253c-0.091-0.107-0.165-0.24-0.221-0.399
			c-0.057-0.158-0.085-0.349-0.085-0.575c0-0.225,0.029-0.434,0.089-0.625c0.059-0.19,0.148-0.356,0.267-0.497
			c0.12-0.139,0.268-0.247,0.447-0.325c0.178-0.079,0.386-0.119,0.622-0.119c0.034,0,0.077,0.001,0.131,0.003
			c0.053,0.002,0.113,0.008,0.18,0.018c0.067,0.012,0.138,0.027,0.213,0.051c0.076,0.022,0.153,0.056,0.231,0.099
			c0.077,0.042,0.15,0.096,0.219,0.161c0.068,0.063,0.128,0.142,0.18,0.233c0.052,0.092,0.093,0.197,0.123,0.317
			c0.031,0.12,0.046,0.258,0.046,0.414v0.08C46.906,196.458,46.896,196.483,46.877,196.506 M46.088,196.204
			c0-0.059-0.001-0.119-0.002-0.185c0-0.065-0.005-0.131-0.015-0.197c-0.009-0.065-0.024-0.128-0.045-0.188
			s-0.053-0.111-0.093-0.158c-0.041-0.046-0.093-0.082-0.155-0.109c-0.064-0.026-0.142-0.04-0.236-0.04
			c-0.139,0-0.248,0.026-0.328,0.08c-0.079,0.055-0.139,0.123-0.178,0.208c-0.04,0.085-0.065,0.181-0.075,0.284
			c-0.011,0.105-0.016,0.208-0.016,0.311c0,0.024,0.006,0.039,0.019,0.041c0.012,0.002,0.025,0.003,0.04,0.003h1.02
			c0.015,0,0.029-0.004,0.043-0.011C46.081,196.237,46.088,196.225,46.088,196.204"/>
		<path clip-path="url(#SVGID_2_)" d="M48.684,198.003h-1.359c-0.053,0-0.08-0.021-0.08-0.063v-0.136
			c0-0.027,0.007-0.051,0.022-0.067c0.015-0.018,0.042-0.027,0.081-0.027h0.058c0.044,0,0.082-0.007,0.113-0.019
			c0.032-0.013,0.057-0.034,0.077-0.062c0.019-0.028,0.033-0.067,0.041-0.115c0.009-0.049,0.013-0.108,0.013-0.181v-2.606
			c0-0.133-0.016-0.231-0.047-0.295c-0.032-0.064-0.09-0.097-0.175-0.097h-0.08c-0.039,0-0.066-0.011-0.081-0.032
			c-0.015-0.022-0.022-0.043-0.022-0.063v-0.103c0-0.021,0.007-0.042,0.022-0.064c0.015-0.021,0.042-0.034,0.081-0.034h0.762
			c0.028,0,0.05-0.001,0.068-0.002c0.017-0.002,0.032-0.004,0.044-0.006c0.012-0.002,0.024-0.003,0.035-0.005
			c0.011-0.002,0.024-0.003,0.039-0.003h0.03c0.015,0,0.029,0.004,0.042,0.011c0.013,0.007,0.019,0.022,0.019,0.042v3.258
			c0,0.143,0.018,0.241,0.053,0.296c0.035,0.055,0.099,0.081,0.191,0.081h0.028c0.041,0,0.068,0.01,0.082,0.027
			c0.014,0.017,0.02,0.04,0.02,0.067v0.136C48.761,197.982,48.736,198.003,48.684,198.003"/>
		<path clip-path="url(#SVGID_2_)" d="M51.291,195.844c-0.018,0.02-0.053,0.029-0.103,0.029h-0.324c-0.037,0-0.064-0.005-0.08-0.018
			c-0.017-0.011-0.03-0.031-0.039-0.056l-0.042-0.137c-0.02-0.064-0.049-0.11-0.087-0.136c-0.038-0.026-0.088-0.039-0.151-0.039
			c-0.065,0-0.116,0.009-0.152,0.028c-0.036,0.018-0.063,0.044-0.083,0.077c-0.019,0.033-0.031,0.073-0.036,0.121
			c-0.005,0.049-0.007,0.102-0.007,0.158v1.459c0,0.143,0.018,0.241,0.053,0.295c0.035,0.056,0.099,0.082,0.191,0.082h0.028
			c0.041,0,0.068,0.01,0.082,0.027c0.014,0.017,0.021,0.039,0.021,0.067v0.136c0,0.043-0.026,0.063-0.078,0.063h-1.359
			c-0.053,0-0.08-0.021-0.08-0.063v-0.136c0-0.028,0.007-0.051,0.022-0.067c0.015-0.018,0.042-0.027,0.081-0.027h0.058
			c0.044,0,0.082-0.007,0.113-0.019c0.032-0.013,0.057-0.034,0.077-0.063c0.019-0.027,0.033-0.066,0.041-0.114
			c0.009-0.049,0.013-0.108,0.013-0.181v-1.539c0-0.133-0.016-0.23-0.047-0.296c-0.032-0.062-0.09-0.095-0.175-0.095h-0.08
			c-0.039,0-0.066-0.011-0.081-0.034c-0.015-0.021-0.022-0.043-0.022-0.062v-0.104c0-0.02,0.007-0.041,0.022-0.062
			c0.015-0.022,0.042-0.032,0.081-0.032h0.732c0.027,0,0.05-0.001,0.068-0.003c0.017-0.001,0.032-0.004,0.045-0.007
			c0.013-0.002,0.025-0.005,0.036-0.007c0.011-0.003,0.024-0.003,0.039-0.003h0.028c0.015,0,0.029,0.004,0.043,0.012
			c0.013,0.007,0.021,0.021,0.021,0.041v0.066c0,0.019,0.004,0.031,0.014,0.037c0.009,0.007,0.021,0.01,0.036,0.01
			c0.04,0,0.084-0.011,0.13-0.031c0.046-0.021,0.101-0.045,0.163-0.07c0.063-0.027,0.136-0.05,0.218-0.071s0.179-0.031,0.29-0.031
			c0.103,0,0.181,0.012,0.232,0.035c0.05,0.024,0.076,0.068,0.076,0.134v0.513C51.318,195.785,51.309,195.823,51.291,195.844"/>
		<path clip-path="url(#SVGID_2_)" d="M54.935,198.003h-1.356c-0.054,0-0.081-0.021-0.081-0.063v-0.136
			c0-0.027,0.007-0.051,0.021-0.067c0.014-0.018,0.042-0.027,0.082-0.027h0.028c0.046,0,0.085-0.007,0.116-0.019
			c0.032-0.013,0.057-0.034,0.077-0.062c0.019-0.028,0.032-0.067,0.04-0.115c0.007-0.049,0.011-0.108,0.011-0.181v-1.187
			c0-0.083-0.005-0.169-0.013-0.257c-0.008-0.089-0.031-0.17-0.07-0.244c-0.039-0.072-0.099-0.132-0.181-0.178
			c-0.081-0.047-0.196-0.07-0.344-0.07c-0.107,0-0.198,0.007-0.271,0.021c-0.074,0.015-0.134,0.036-0.179,0.068
			c-0.046,0.032-0.078,0.072-0.098,0.122c-0.021,0.05-0.031,0.11-0.031,0.18v1.545c0,0.143,0.017,0.241,0.052,0.296
			c0.036,0.055,0.1,0.081,0.192,0.081h0.027c0.041,0,0.069,0.01,0.082,0.027c0.014,0.017,0.021,0.04,0.021,0.067v0.136
			c0,0.043-0.026,0.063-0.077,0.063h-1.359c-0.054,0-0.08-0.021-0.08-0.063v-0.136c0-0.027,0.007-0.051,0.022-0.067
			c0.015-0.018,0.041-0.027,0.08-0.027h0.058c0.045,0,0.082-0.007,0.114-0.019c0.032-0.013,0.057-0.034,0.076-0.062
			c0.02-0.028,0.033-0.067,0.042-0.115c0.008-0.049,0.012-0.108,0.012-0.181v-2.606c0-0.133-0.016-0.231-0.047-0.295
			c-0.031-0.064-0.089-0.097-0.174-0.097h-0.081c-0.039,0-0.065-0.011-0.08-0.032c-0.015-0.022-0.022-0.043-0.022-0.063v-0.103
			c0-0.021,0.007-0.042,0.022-0.064c0.015-0.021,0.041-0.034,0.08-0.034h0.763c0.027,0,0.05-0.001,0.068-0.002
			c0.017-0.002,0.032-0.004,0.044-0.006c0.012-0.002,0.023-0.003,0.035-0.005c0.011-0.002,0.023-0.003,0.038-0.003h0.031
			c0.015,0,0.028,0.004,0.041,0.011c0.014,0.007,0.02,0.022,0.02,0.042v1.089c0,0.03,0.017,0.045,0.052,0.045
			c0.054,0,0.102-0.009,0.145-0.024c0.042-0.018,0.095-0.035,0.156-0.055c0.063-0.019,0.141-0.037,0.236-0.055
			c0.096-0.016,0.222-0.023,0.381-0.023c0.091,0,0.178,0.009,0.262,0.026c0.085,0.02,0.163,0.045,0.235,0.078
			c0.072,0.034,0.136,0.074,0.193,0.123c0.056,0.047,0.101,0.1,0.134,0.157c0.032,0.054,0.056,0.107,0.073,0.162
			c0.018,0.055,0.031,0.111,0.039,0.171c0.009,0.059,0.014,0.122,0.016,0.186c0.001,0.064,0.002,0.132,0.002,0.202v1.176
			c0,0.072,0.005,0.132,0.013,0.181c0.008,0.048,0.022,0.087,0.042,0.115c0.019,0.028,0.044,0.05,0.076,0.062
			c0.031,0.012,0.069,0.019,0.114,0.019h0.058c0.04,0,0.067,0.01,0.081,0.027c0.015,0.017,0.021,0.04,0.021,0.067v0.136
			C55.015,197.982,54.988,198.003,54.935,198.003"/>
		<path clip-path="url(#SVGID_2_)" d="M58.053,196.506c-0.02,0.021-0.05,0.034-0.09,0.034h-1.789c-0.011,0-0.022,0.004-0.034,0.013
			c-0.013,0.01-0.019,0.028-0.019,0.053v0.028c0,0.229,0.03,0.414,0.088,0.554c0.058,0.142,0.134,0.25,0.227,0.327
			c0.094,0.078,0.199,0.13,0.315,0.156c0.117,0.025,0.233,0.038,0.35,0.038c0.116,0,0.214-0.009,0.295-0.027
			c0.08-0.019,0.148-0.039,0.205-0.061c0.056-0.022,0.103-0.044,0.139-0.062c0.036-0.018,0.066-0.027,0.093-0.027
			c0.014,0,0.028,0.002,0.04,0.009c0.012,0.005,0.022,0.015,0.032,0.029l0.047,0.075c0.005,0.011,0.009,0.023,0.012,0.034
			c0.003,0.013,0.004,0.021,0.004,0.029c0,0.026-0.011,0.052-0.033,0.073c-0.022,0.024-0.052,0.047-0.089,0.068
			c-0.037,0.022-0.079,0.043-0.127,0.064c-0.048,0.02-0.097,0.039-0.147,0.056c-0.076,0.025-0.173,0.046-0.29,0.062
			c-0.117,0.018-0.25,0.025-0.398,0.025c-0.07,0-0.157-0.004-0.262-0.014c-0.104-0.01-0.214-0.029-0.329-0.062
			c-0.114-0.031-0.229-0.078-0.343-0.14c-0.115-0.062-0.218-0.146-0.31-0.253c-0.091-0.107-0.165-0.24-0.221-0.399
			c-0.057-0.158-0.085-0.349-0.085-0.575c0-0.225,0.029-0.434,0.089-0.625c0.059-0.19,0.148-0.356,0.267-0.497
			c0.12-0.139,0.268-0.247,0.447-0.325c0.178-0.079,0.386-0.119,0.622-0.119c0.034,0,0.077,0.001,0.131,0.003
			c0.053,0.002,0.113,0.008,0.18,0.018c0.067,0.012,0.138,0.027,0.213,0.051c0.076,0.022,0.153,0.056,0.231,0.099
			c0.077,0.042,0.15,0.096,0.219,0.161c0.068,0.063,0.128,0.142,0.18,0.233c0.052,0.092,0.093,0.197,0.123,0.317
			c0.031,0.12,0.046,0.258,0.046,0.414v0.08C58.082,196.458,58.071,196.483,58.053,196.506 M57.264,196.204
			c0-0.059-0.001-0.119-0.002-0.185c0-0.065-0.005-0.131-0.015-0.197c-0.009-0.065-0.024-0.128-0.045-0.188
			s-0.053-0.111-0.093-0.158c-0.041-0.046-0.093-0.082-0.155-0.109c-0.064-0.026-0.142-0.04-0.236-0.04
			c-0.139,0-0.248,0.026-0.328,0.08c-0.079,0.055-0.139,0.123-0.178,0.208c-0.04,0.085-0.065,0.181-0.075,0.284
			c-0.011,0.105-0.016,0.208-0.016,0.311c0,0.024,0.006,0.039,0.019,0.041c0.012,0.002,0.025,0.003,0.04,0.003h1.02
			c0.015,0,0.029-0.004,0.043-0.011C57.256,196.237,57.264,196.225,57.264,196.204"/>
		<path clip-path="url(#SVGID_2_)" d="M59.859,198.003H58.5c-0.053,0-0.08-0.021-0.08-0.063v-0.136c0-0.027,0.007-0.051,0.022-0.067
			c0.015-0.019,0.042-0.027,0.081-0.027h0.058c0.044,0,0.082-0.006,0.113-0.02c0.032-0.013,0.057-0.032,0.077-0.062
			c0.019-0.029,0.033-0.067,0.041-0.116c0.009-0.047,0.013-0.107,0.013-0.18v-1.539c0-0.133-0.016-0.231-0.047-0.295
			c-0.032-0.064-0.09-0.096-0.175-0.096h-0.08c-0.039,0-0.066-0.012-0.081-0.033c-0.015-0.022-0.022-0.044-0.022-0.064v-0.102
			c0-0.021,0.007-0.041,0.022-0.063c0.015-0.021,0.042-0.03,0.081-0.03h0.762c0.028,0,0.05-0.001,0.068-0.004
			c0.018-0.002,0.032-0.004,0.044-0.007c0.012-0.003,0.024-0.006,0.035-0.008c0.011-0.001,0.024-0.002,0.039-0.002h0.03
			c0.015,0,0.029,0.003,0.042,0.011c0.013,0.009,0.019,0.021,0.019,0.041v2.191c0,0.143,0.018,0.241,0.053,0.296
			c0.035,0.054,0.099,0.081,0.191,0.081h0.028c0.041,0,0.068,0.009,0.082,0.027c0.014,0.017,0.021,0.04,0.021,0.067v0.136
			C59.937,197.981,59.911,198.003,59.859,198.003 M59.601,194.296c0,0.072-0.012,0.133-0.036,0.183
			c-0.024,0.051-0.056,0.091-0.096,0.121c-0.039,0.03-0.087,0.053-0.141,0.066c-0.055,0.014-0.112,0.021-0.173,0.021
			c-0.065,0-0.125-0.006-0.18-0.02c-0.056-0.013-0.104-0.034-0.146-0.065c-0.042-0.029-0.074-0.069-0.099-0.121
			c-0.024-0.049-0.036-0.11-0.036-0.185c0-0.072,0.012-0.133,0.036-0.183c0.025-0.051,0.057-0.091,0.098-0.121
			c0.04-0.031,0.088-0.053,0.142-0.065c0.055-0.013,0.113-0.019,0.173-0.019c0.064,0,0.123,0.006,0.18,0.019
			c0.056,0.013,0.104,0.034,0.145,0.064c0.041,0.028,0.073,0.068,0.097,0.119C59.589,194.16,59.601,194.222,59.601,194.296"/>
		<path clip-path="url(#SVGID_2_)" d="M63.611,198.003h-1.356c-0.054,0-0.081-0.021-0.081-0.063v-0.136
			c0-0.027,0.007-0.051,0.021-0.067c0.014-0.018,0.041-0.027,0.082-0.027h0.028c0.046,0,0.084-0.007,0.116-0.019
			c0.032-0.013,0.057-0.034,0.077-0.062c0.019-0.028,0.032-0.067,0.04-0.115c0.007-0.049,0.011-0.108,0.011-0.181v-1.187
			c0-0.083-0.005-0.169-0.013-0.257c-0.008-0.089-0.032-0.17-0.071-0.244c-0.039-0.072-0.098-0.132-0.18-0.178
			c-0.081-0.047-0.196-0.07-0.344-0.07c-0.107,0-0.198,0.007-0.272,0.021c-0.073,0.015-0.133,0.036-0.178,0.068
			c-0.046,0.032-0.078,0.072-0.098,0.122c-0.021,0.05-0.031,0.11-0.031,0.18v1.545c0,0.143,0.017,0.241,0.052,0.296
			c0.036,0.055,0.099,0.081,0.192,0.081h0.027c0.041,0,0.068,0.01,0.082,0.027c0.014,0.017,0.021,0.04,0.021,0.067v0.136
			c0,0.043-0.026,0.063-0.077,0.063H60.3c-0.054,0-0.081-0.021-0.081-0.063v-0.136c0-0.027,0.008-0.051,0.023-0.067
			c0.014-0.018,0.041-0.027,0.08-0.027h0.058c0.045,0,0.082-0.007,0.114-0.019c0.031-0.013,0.057-0.034,0.076-0.062
			c0.02-0.028,0.033-0.067,0.042-0.115c0.008-0.049,0.012-0.108,0.012-0.181v-1.539c0-0.133-0.016-0.23-0.047-0.296
			c-0.031-0.062-0.09-0.095-0.174-0.095h-0.081c-0.039,0-0.066-0.011-0.08-0.033c-0.015-0.022-0.023-0.044-0.023-0.063v-0.104
			c0-0.02,0.008-0.041,0.023-0.062c0.014-0.022,0.041-0.032,0.08-0.032h0.732c0.028,0,0.05-0.001,0.068-0.003
			c0.017-0.001,0.033-0.004,0.045-0.007c0.014-0.002,0.026-0.005,0.036-0.007c0.012-0.002,0.025-0.003,0.04-0.003h0.027
			c0.015,0,0.029,0.004,0.043,0.012c0.014,0.007,0.021,0.021,0.021,0.041v0.021c0,0.018,0.006,0.029,0.017,0.035
			c0.011,0.007,0.024,0.01,0.039,0.01c0.035,0,0.068-0.004,0.099-0.011c0.032-0.007,0.065-0.017,0.1-0.029
			c0.035-0.013,0.073-0.024,0.115-0.039c0.042-0.014,0.092-0.026,0.15-0.039c0.058-0.012,0.126-0.021,0.204-0.028
			c0.077-0.008,0.169-0.011,0.274-0.011c0.091,0,0.178,0.009,0.262,0.026c0.085,0.02,0.163,0.045,0.235,0.078
			c0.072,0.034,0.136,0.074,0.193,0.123c0.056,0.047,0.101,0.1,0.134,0.157c0.032,0.054,0.056,0.107,0.073,0.162
			c0.018,0.055,0.031,0.111,0.039,0.171c0.009,0.059,0.014,0.122,0.016,0.186c0.001,0.064,0.002,0.132,0.002,0.202v1.176
			c0,0.072,0.005,0.132,0.013,0.181c0.008,0.048,0.022,0.087,0.042,0.115c0.019,0.028,0.045,0.05,0.075,0.062
			c0.032,0.012,0.07,0.019,0.115,0.019h0.058c0.04,0,0.067,0.01,0.081,0.027c0.014,0.017,0.021,0.04,0.021,0.067v0.136
			C63.691,197.982,63.664,198.003,63.611,198.003"/>
		<path clip-path="url(#SVGID_2_)" d="M65.976,197.781c0,0.026-0.017,0.056-0.051,0.087c-0.034,0.033-0.085,0.063-0.153,0.09
			c-0.066,0.028-0.15,0.053-0.252,0.071c-0.1,0.021-0.217,0.029-0.348,0.029c-0.186,0-0.334-0.022-0.445-0.067
			c-0.11-0.046-0.195-0.109-0.254-0.192s-0.098-0.184-0.115-0.301c-0.017-0.115-0.026-0.246-0.026-0.388v-1.639
			c0-0.025-0.006-0.044-0.017-0.055c-0.011-0.01-0.023-0.015-0.039-0.015h-0.233c-0.046,0-0.076-0.011-0.09-0.034
			c-0.016-0.021-0.023-0.043-0.023-0.062v-0.092c0-0.017,0.005-0.03,0.016-0.041c0.012-0.012,0.025-0.021,0.041-0.03
			c0.016-0.008,0.031-0.014,0.048-0.018s0.031-0.008,0.042-0.012c0.103-0.023,0.188-0.057,0.254-0.099
			c0.065-0.043,0.118-0.092,0.158-0.146c0.041-0.054,0.072-0.114,0.093-0.18c0.021-0.066,0.04-0.135,0.057-0.207l0.016-0.077
			c0.01-0.041,0.025-0.066,0.047-0.077c0.022-0.01,0.044-0.015,0.067-0.015h0.193c0.022,0,0.045,0.007,0.069,0.02
			c0.025,0.016,0.039,0.042,0.039,0.083v0.623c0,0.027,0.004,0.044,0.017,0.055c0.01,0.011,0.022,0.016,0.032,0.016h0.744
			c0.039,0,0.067,0.01,0.082,0.032c0.013,0.021,0.02,0.042,0.02,0.062v0.104c0,0.02-0.007,0.041-0.02,0.062
			c-0.015,0.023-0.043,0.034-0.082,0.034h-0.744c-0.01,0-0.022,0.005-0.032,0.015c-0.013,0.011-0.017,0.029-0.017,0.055v1.697
			c0,0.068,0.002,0.134,0.006,0.196c0.004,0.063,0.02,0.119,0.045,0.168s0.063,0.088,0.117,0.118
			c0.054,0.029,0.129,0.044,0.228,0.044c0.052,0,0.099-0.004,0.138-0.014c0.039-0.009,0.074-0.02,0.105-0.03
			c0.029-0.011,0.056-0.021,0.078-0.031c0.022-0.009,0.041-0.013,0.059-0.013c0.016,0,0.028,0.002,0.042,0.008
			c0.013,0.005,0.024,0.016,0.033,0.03l0.039,0.075c0.005,0.011,0.009,0.022,0.012,0.035
			C65.975,197.768,65.976,197.775,65.976,197.781"/>
		<path clip-path="url(#SVGID_2_)" d="M69.246,197.971c-0.013,0.022-0.041,0.033-0.081,0.033h-0.726
			c-0.029,0-0.051,0.001-0.067,0.003c-0.017,0.001-0.03,0.003-0.043,0.005s-0.022,0.004-0.034,0.005
			c-0.009,0.002-0.023,0.003-0.039,0.003h-0.027c-0.016,0-0.029-0.003-0.043-0.009c-0.012-0.007-0.02-0.02-0.02-0.04v-0.023
			c0-0.018-0.004-0.03-0.015-0.036c-0.011-0.008-0.022-0.011-0.037-0.011c-0.039,0-0.084,0.01-0.136,0.025
			c-0.049,0.016-0.108,0.035-0.176,0.054c-0.065,0.02-0.142,0.037-0.224,0.055c-0.084,0.017-0.176,0.024-0.276,0.024
			c-0.148,0-0.275-0.013-0.383-0.037c-0.105-0.025-0.195-0.058-0.269-0.1s-0.132-0.09-0.177-0.146
			c-0.043-0.055-0.078-0.112-0.102-0.172c-0.023-0.059-0.04-0.118-0.048-0.177c-0.007-0.06-0.011-0.115-0.011-0.167
			c0-0.133,0.021-0.245,0.062-0.338c0.042-0.092,0.101-0.172,0.177-0.238s0.168-0.124,0.277-0.172s0.232-0.095,0.369-0.139
			l0.812-0.262c0.041-0.014,0.07-0.031,0.092-0.055c0.021-0.021,0.033-0.058,0.033-0.108v-0.125c0-0.073-0.006-0.141-0.018-0.2
			c-0.011-0.061-0.034-0.111-0.066-0.153c-0.035-0.041-0.086-0.074-0.15-0.097c-0.066-0.023-0.153-0.034-0.26-0.034
			c-0.102,0-0.183,0.013-0.241,0.039c-0.06,0.024-0.104,0.057-0.134,0.095c-0.031,0.038-0.051,0.08-0.062,0.123
			c-0.01,0.045-0.019,0.084-0.024,0.12c-0.004,0.033-0.008,0.06-0.012,0.08c-0.005,0.021-0.012,0.036-0.021,0.048
			c-0.012,0.01-0.025,0.018-0.043,0.023c-0.018,0.004-0.04,0.007-0.07,0.007h-0.408c-0.051,0-0.086-0.011-0.105-0.03
			c-0.018-0.021-0.026-0.058-0.026-0.112v-0.273c0-0.062,0.028-0.116,0.085-0.166c0.059-0.05,0.139-0.094,0.243-0.13
			s0.229-0.063,0.376-0.082c0.146-0.021,0.307-0.03,0.482-0.03c0.174,0,0.336,0.015,0.488,0.045
			c0.153,0.029,0.278,0.071,0.377,0.124c0.072,0.039,0.129,0.085,0.17,0.138c0.043,0.053,0.073,0.11,0.096,0.17
			c0.022,0.062,0.037,0.126,0.041,0.193c0.007,0.068,0.009,0.135,0.009,0.204v1.392c0,0.133,0.017,0.232,0.048,0.297
			c0.031,0.065,0.082,0.097,0.152,0.097h0.103c0.04,0,0.068,0.012,0.081,0.033c0.014,0.021,0.021,0.042,0.021,0.062v0.103
			C69.268,197.927,69.26,197.947,69.246,197.971 M68.137,196.447c0-0.015-0.004-0.026-0.012-0.036
			c-0.007-0.012-0.017-0.017-0.027-0.017h-0.022c-0.009,0-0.019,0.002-0.028,0.006l-0.383,0.139
			c-0.094,0.033-0.176,0.068-0.246,0.105s-0.128,0.08-0.173,0.129c-0.046,0.048-0.079,0.106-0.103,0.17
			c-0.021,0.065-0.032,0.143-0.032,0.231c0,0.108,0.015,0.198,0.046,0.267c0.029,0.069,0.07,0.124,0.12,0.165
			s0.108,0.069,0.173,0.085s0.131,0.023,0.199,0.023c0.054,0,0.109-0.003,0.168-0.01c0.058-0.007,0.111-0.02,0.158-0.039
			s0.086-0.047,0.115-0.084c0.031-0.037,0.047-0.086,0.047-0.147V196.447z"/>
		<path clip-path="url(#SVGID_2_)" d="M70.989,198.003h-1.358c-0.053,0-0.08-0.021-0.08-0.063v-0.136
			c0-0.027,0.007-0.051,0.021-0.067c0.016-0.018,0.042-0.027,0.081-0.027h0.058c0.045,0,0.082-0.007,0.115-0.019
			c0.03-0.013,0.055-0.034,0.075-0.062c0.019-0.028,0.033-0.067,0.041-0.115c0.009-0.049,0.013-0.108,0.013-0.181v-2.606
			c0-0.133-0.016-0.231-0.047-0.295c-0.031-0.064-0.09-0.097-0.175-0.097h-0.08c-0.039,0-0.065-0.011-0.081-0.032
			c-0.015-0.022-0.021-0.043-0.021-0.063v-0.103c0-0.021,0.007-0.042,0.021-0.064c0.016-0.021,0.042-0.034,0.081-0.034h0.763
			c0.027,0,0.049-0.001,0.067-0.002c0.019-0.002,0.032-0.004,0.044-0.006c0.014-0.002,0.023-0.003,0.035-0.005
			s0.023-0.003,0.039-0.003h0.029c0.016,0,0.029,0.004,0.043,0.011c0.013,0.007,0.019,0.022,0.019,0.042v3.258
			c0,0.143,0.019,0.241,0.054,0.296c0.034,0.055,0.099,0.081,0.19,0.081h0.028c0.041,0,0.068,0.01,0.082,0.027
			c0.014,0.017,0.021,0.04,0.021,0.067v0.136C71.067,197.982,71.041,198.003,70.989,198.003"/>
		<path clip-path="url(#SVGID_2_)" d="M51.601,171.182c0.215,0.214,0.215,0.562,0,0.776l-4.28,4.281
			c-0.515-0.304-0.908-0.539-1.637-1.001c-2.766-1.751-5.975-4.095-6.169-5.378c-0.323-2.136,3.942-2.67,5.809-4.955L51.601,171.182
			z M44.182,179.378l-2.32,2.32c-0.214,0.213-0.562,0.213-0.776,0l-7.312-7.313c-0.215-0.215-0.215-0.562,0-0.777l1.414-1.412
			c0.145,0.262,0.313,0.524,0.504,0.787c0.757,1.042,3.199,2.894,5.456,4.466C42.183,178.169,43.261,178.836,44.182,179.378
			 M36.497,166.593l-5.554-5.554c-0.215-0.215-0.215-0.563,0-0.777l4.869-4.869l-7.701-7.701c-0.214-0.215-0.214-0.562,0-0.776
			l4.87-4.869l-7.7-7.7c-0.215-0.215-0.215-0.562,0-0.777l11.135-11.136c0.538,0.822,1.278,1.714,2.239,2.666
			c2.11,2.092,2.754,3.378,0.286,5.264c-1.652,1.263-0.876,3.996,2.864,5.064c5.066,1.444,3.344,3.38,2.448,4.085
			c-0.535,0.423-1.527,1.049-0.809,1.498c0.889,0.556,1.195,0.896-0.68,1.582c-1.995,0.734-3.941,2.668-3.637,4.594
			c0.299,1.905,2.768,2.7,1.203,4.354c-2.081,2.195-3.551,4.74-1.18,7.579c2.19,2.621,3.003,4.363-0.865,6.35
			C37.583,165.829,36.99,166.204,36.497,166.593 M38.649,116.168l-5.684-5.685c-0.214-0.214-0.214-0.562,0-0.776l9.738-9.739
			c0.215-0.214,0.562-0.214,0.777,0l1.86,1.86c-0.282,0.47-0.636,0.916-1.035,1.314c-1.624,1.624-2.55,4.103-1.746,5.994
			c1.016,2.39,3.916,5.156,3.414,5.922c-0.346,0.525-1.205,0.645-2.329,0.684c-0.296,0.01-0.612,0.015-0.941,0.02
			c-0.327,0.006-0.668,0.011-1.018,0.024C40.708,115.82,39.663,115.904,38.649,116.168 M48.227,104.716l2.565,2.565
			c0.214,0.214,0.214,0.562,0,0.775l-2.697,2.698C45.898,108.499,46.141,106.57,48.227,104.716 M51.032,118.036l2.591,2.591
			c0.215,0.215,0.215,0.562,0,0.777l-4.87,4.868l7.701,7.701c0.215,0.214,0.215,0.562,0,0.776l-4.869,4.87l7.7,7.7
			c0.214,0.215,0.214,0.562,0,0.776L46.03,161.353c-0.029-0.123-0.063-0.249-0.101-0.377c-0.666-2.245-2.756-3.328-2.94-4.688
			c-0.262-1.956,2.993-2.185,2.583-5.588c-0.257-2.126-1.75-2.31-1.803-4.177c-0.051-1.797,2.573-2.143,5.54-3.237
			c2.625-0.97-0.77-2.315-1.837-3.096c-1.175-0.859-0.008-1.232,0.646-3.965c0.264-1.108-1.816-2.597-3.987-4.188
			c-1.436-1.054,1.425-1.705,1.211-3.978c-0.215-2.285-3.974-5.126-4.471-7.165c-0.232-0.951,1.245-1.005,4.422-1.138
			c0.061-0.002,0.121-0.004,0.18-0.006c0.383-0.013,0.736-0.022,1.063-0.029c0.299-0.006,0.576-0.012,0.836-0.021
			c1.407-0.05,2.283-0.197,3.233-1.097C50.775,118.443,50.917,118.253,51.032,118.036"/>
		<rect x="12.523" y="205.893" clip-path="url(#SVGID_2_)" width="58.749" height="0.379"/>
		<rect x="12.523" y="199.189" clip-path="url(#SVGID_2_)" width="58.749" height="0.379"/>
		<rect x="12.523" y="192.437" clip-path="url(#SVGID_2_)" width="58.749" height="0.379"/>
		<rect x="12.523" y="185.628" clip-path="url(#SVGID_2_)" width="58.749" height="0.38"/>
		<rect x="12.523" y="212.607" clip-path="url(#SVGID_2_)" width="58.749" height="0.379"/>
	</g>
	<text transform="matrix(1.1111 0 0 1 27.9941 105.0303)" font-family="'HelveticaNeue-Bold'" font-size="4.0934">593</text>
	<text transform="matrix(1.1111 0 0 1 56.3574 140.8438)" font-family="'HelveticaNeue-Bold'" font-size="4.0934">555</text>
	<text transform="matrix(1.1111 0 0 1 23.4097 178.376)" font-family="'HelveticaNeue-Bold'" font-size="4.0934">526</text>
	<text transform="matrix(1 0 0 1 12.1445 29.8164)" font-family="'OpenSans-Bold'" font-size="18">574</text>
	<text transform="matrix(1 0 0 1 12.1445 40.5039)" font-family="'OpenSans-Regular'" font-size="8.4375">67 Kilometer</text>
	<text transform="matrix(1 0 0 1 12.1445 51.1943)" font-family="'OpenSans-Regular'" font-size="8.4375">Welterbe in</text>
	<text transform="matrix(1 0 0 1 12.1445 61.8848)" font-family="'OpenSans-Regular'" font-size="8.4375">Rhein-Kultur</text>
	<g>
		<defs>
			<rect id="SVGID_3_" y="9.577" width="126.93" height="203.409"/>
		</defs>
		<clipPath id="SVGID_4_">
			<use xlink:href="#SVGID_3_"  overflow="visible"/>
		</clipPath>
		
			<line clip-path="url(#SVGID_4_)" fill="none" stroke="#000000" stroke-width="0.731" x1="11.985" y1="31.473" x2="126.93" y2="31.473"/>
		
			<line clip-path="url(#SVGID_4_)" fill="none" stroke="#000000" stroke-width="0.731" x1="11.985" y1="42.097" x2="126.93" y2="42.097"/>
		
			<line clip-path="url(#SVGID_4_)" fill="none" stroke="#000000" stroke-width="0.731" x1="11.985" y1="52.72" x2="126.93" y2="52.72"/>
		
			<line clip-path="url(#SVGID_4_)" fill="none" stroke="#000000" stroke-width="0.731" x1="11.985" y1="63.344" x2="126.93" y2="63.344"/>
	</g>
	<text transform="matrix(1 0 0 1 12.5791 211.3936)"><tspan x="0" y="0" font-family="'Bitter-Regular'" font-size="5.3063">Zweckverba</tspan><tspan x="30.161" y="0" font-family="'Bitter-Regular'" font-size="5.3063">n</tspan><tspan x="33.636" y="0" font-family="'Bitter-Regular'" font-size="5.3063">d</tspan></text>
</g>
</svg>
